G04 (created by PCBNEW-RS274X (2011-04-29 BZR 2986)-stable) date 8/30/2011 9:17:05 PM*
G01*
G70*
G90*
%MOIN*%
G04 Gerber Fmt 3.4, Leading zero omitted, Abs format*
%FSLAX34Y34*%
G04 APERTURE LIST*
%ADD10C,0.006000*%
%ADD11C,0.015000*%
%ADD12R,0.035000X0.055000*%
%ADD13R,0.060000X0.060000*%
%ADD14C,0.060000*%
%ADD15R,0.056000X0.056000*%
%ADD16C,0.056000*%
%ADD17R,0.078700X0.017700*%
%ADD18R,0.017700X0.078700*%
%ADD19R,0.055000X0.035000*%
%ADD20R,0.045000X0.020000*%
%ADD21R,0.074800X0.043300*%
%ADD22C,0.126000*%
%ADD23R,0.055000X0.055000*%
%ADD24C,0.055000*%
%ADD25C,0.070000*%
%ADD26C,0.110200*%
%ADD27R,0.059100X0.059100*%
%ADD28C,0.059100*%
%ADD29R,0.094500X0.094500*%
%ADD30C,0.094500*%
%ADD31R,0.110200X0.055100*%
%ADD32R,0.047200X0.055100*%
%ADD33R,0.077600X0.017700*%
%ADD34R,0.017700X0.077600*%
%ADD35C,0.160000*%
%ADD36C,0.035000*%
%ADD37C,0.040000*%
%ADD38C,0.016000*%
%ADD39C,0.012000*%
%ADD40C,0.020000*%
%ADD41C,0.008000*%
%ADD42C,0.030000*%
G04 APERTURE END LIST*
G54D10*
G54D11*
X64600Y-25600D02*
X16300Y-25600D01*
X16300Y-05900D02*
X16300Y-06100D01*
X64600Y-05900D02*
X16300Y-05900D01*
X64567Y-25591D02*
X64567Y-05906D01*
X16312Y-05906D02*
X16312Y-25591D01*
G54D12*
X62825Y-19500D03*
X63575Y-19500D03*
G54D13*
X22000Y-14200D03*
G54D14*
X22000Y-18200D03*
G54D15*
X28200Y-19200D03*
G54D16*
X31200Y-19200D03*
G54D17*
X39804Y-20193D03*
X39804Y-19878D03*
X39804Y-19563D03*
X39804Y-19248D03*
X39804Y-18933D03*
X39804Y-18618D03*
X39804Y-18303D03*
X39804Y-17988D03*
X43570Y-17990D03*
X43570Y-20200D03*
X43570Y-19880D03*
X43570Y-19560D03*
X43570Y-19250D03*
X43570Y-18930D03*
X43570Y-18620D03*
X43570Y-18300D03*
G54D18*
X40588Y-17200D03*
X40902Y-17200D03*
X41218Y-17200D03*
X41532Y-17200D03*
X41848Y-17200D03*
X42162Y-17200D03*
X42478Y-17200D03*
X42792Y-17200D03*
X40590Y-20980D03*
X40900Y-20980D03*
X41220Y-20980D03*
X41530Y-20980D03*
X41840Y-20980D03*
X42160Y-20980D03*
X42480Y-20980D03*
X42800Y-20980D03*
G54D19*
X33100Y-19525D03*
X33100Y-20275D03*
X34100Y-18625D03*
X34100Y-19375D03*
G54D12*
X50925Y-18600D03*
X51675Y-18600D03*
G54D20*
X54050Y-20750D03*
X51950Y-20750D03*
X54050Y-21250D03*
X54050Y-21750D03*
X54050Y-22250D03*
X51950Y-21250D03*
X51950Y-21750D03*
X51950Y-22250D03*
G54D13*
X23600Y-07600D03*
G54D14*
X23600Y-06600D03*
X24600Y-07600D03*
X24600Y-06600D03*
X25600Y-07600D03*
X25600Y-06600D03*
X26600Y-07600D03*
X26600Y-06600D03*
X27600Y-07600D03*
X27600Y-06600D03*
X28600Y-07600D03*
X28600Y-06600D03*
X29600Y-07600D03*
X29600Y-06600D03*
X30600Y-07600D03*
X30600Y-06600D03*
X31600Y-07600D03*
X31600Y-06600D03*
X32600Y-07600D03*
X32600Y-06600D03*
X33600Y-07600D03*
X33600Y-06600D03*
X34600Y-07600D03*
X34600Y-06600D03*
G54D13*
X36300Y-10500D03*
G54D14*
X36300Y-09500D03*
X37300Y-10500D03*
X37300Y-09500D03*
X38300Y-10500D03*
X38300Y-09500D03*
X39300Y-10500D03*
X39300Y-09500D03*
X40300Y-10500D03*
X40300Y-09500D03*
X41300Y-10500D03*
X41300Y-09500D03*
X42300Y-10500D03*
X42300Y-09500D03*
X43300Y-10500D03*
X43300Y-09500D03*
X44300Y-10500D03*
X44300Y-09500D03*
X45300Y-10500D03*
X45300Y-09500D03*
X46300Y-10500D03*
X46300Y-09500D03*
X47300Y-10500D03*
X47300Y-09500D03*
G54D13*
X48700Y-07600D03*
G54D14*
X48700Y-06600D03*
X49700Y-07600D03*
X49700Y-06600D03*
X50700Y-07600D03*
X50700Y-06600D03*
X51700Y-07600D03*
X51700Y-06600D03*
X52700Y-07600D03*
X52700Y-06600D03*
X53700Y-07600D03*
X53700Y-06600D03*
X54700Y-07600D03*
X54700Y-06600D03*
X55700Y-07600D03*
X55700Y-06600D03*
X56700Y-07600D03*
X56700Y-06600D03*
X57700Y-07600D03*
X57700Y-06600D03*
X58700Y-07600D03*
X58700Y-06600D03*
X59700Y-07600D03*
X59700Y-06600D03*
G54D21*
X50200Y-20708D03*
X50200Y-21692D03*
G54D22*
X18700Y-14816D03*
X18700Y-16784D03*
G54D19*
X49100Y-20575D03*
X49100Y-19825D03*
X49100Y-22375D03*
X49100Y-21625D03*
G54D12*
X55675Y-22000D03*
X54925Y-22000D03*
X54925Y-21200D03*
X55675Y-21200D03*
X54925Y-22800D03*
X55675Y-22800D03*
X54925Y-23600D03*
X55675Y-23600D03*
X53325Y-17900D03*
X54075Y-17900D03*
G54D23*
X63500Y-18200D03*
G54D24*
X63500Y-17200D03*
X63500Y-16200D03*
X63500Y-15200D03*
X63500Y-14200D03*
X63500Y-13200D03*
X63500Y-12200D03*
X63500Y-11200D03*
G54D25*
X20600Y-20200D03*
X26600Y-20200D03*
G54D13*
X44400Y-24300D03*
G54D14*
X44400Y-23300D03*
X45400Y-24300D03*
X45400Y-23300D03*
X46400Y-24300D03*
X46400Y-23300D03*
G54D12*
X35925Y-22100D03*
X36675Y-22100D03*
G54D26*
X20571Y-23100D03*
X29429Y-23100D03*
G54D27*
X21684Y-11200D03*
G54D28*
X19716Y-11200D03*
G54D29*
X32200Y-22511D03*
G54D30*
X32200Y-23889D03*
G54D13*
X32200Y-20300D03*
G54D14*
X28200Y-20300D03*
G54D31*
X54500Y-19812D03*
G54D32*
X54067Y-18788D03*
X54933Y-18788D03*
G54D23*
X41400Y-24300D03*
G54D24*
X40400Y-24300D03*
X39400Y-24300D03*
X38400Y-24300D03*
X37400Y-24300D03*
X36400Y-24300D03*
G54D23*
X49500Y-24300D03*
G54D24*
X50500Y-24300D03*
G54D23*
X52600Y-24300D03*
G54D24*
X53600Y-24300D03*
G54D19*
X38800Y-19525D03*
X38800Y-20275D03*
G54D33*
X36058Y-15100D03*
X36058Y-14785D03*
X36058Y-14470D03*
X36058Y-14155D03*
X36058Y-13840D03*
X36058Y-13525D03*
X36058Y-15415D03*
X36058Y-15730D03*
X36058Y-16045D03*
X36058Y-16360D03*
X36058Y-16675D03*
X30742Y-15100D03*
X30742Y-14785D03*
X30742Y-14470D03*
X30742Y-14155D03*
X30742Y-13840D03*
X30742Y-13525D03*
X30742Y-15415D03*
X30742Y-15730D03*
X30742Y-16045D03*
X30742Y-16360D03*
X30742Y-16675D03*
G54D34*
X33400Y-12442D03*
X33400Y-17758D03*
X33085Y-12442D03*
X33085Y-17758D03*
X32770Y-17758D03*
X32770Y-12442D03*
X32455Y-12442D03*
X32455Y-17758D03*
X32140Y-17758D03*
X32140Y-12442D03*
X31825Y-12442D03*
X31825Y-17758D03*
X33715Y-17758D03*
X33715Y-12442D03*
X34030Y-12442D03*
X34030Y-17758D03*
X34345Y-17758D03*
X34345Y-12442D03*
X34660Y-12442D03*
X34660Y-17758D03*
X34975Y-17758D03*
X34975Y-12442D03*
G54D33*
X52758Y-15100D03*
X52758Y-14785D03*
X52758Y-14470D03*
X52758Y-14155D03*
X52758Y-13840D03*
X52758Y-13525D03*
X52758Y-15415D03*
X52758Y-15730D03*
X52758Y-16045D03*
X52758Y-16360D03*
X52758Y-16675D03*
X47442Y-15100D03*
X47442Y-14785D03*
X47442Y-14470D03*
X47442Y-14155D03*
X47442Y-13840D03*
X47442Y-13525D03*
X47442Y-15415D03*
X47442Y-15730D03*
X47442Y-16045D03*
X47442Y-16360D03*
X47442Y-16675D03*
G54D34*
X50100Y-12442D03*
X50100Y-17758D03*
X49785Y-12442D03*
X49785Y-17758D03*
X49470Y-17758D03*
X49470Y-12442D03*
X49155Y-12442D03*
X49155Y-17758D03*
X48840Y-17758D03*
X48840Y-12442D03*
X48525Y-12442D03*
X48525Y-17758D03*
X50415Y-17758D03*
X50415Y-12442D03*
X50730Y-12442D03*
X50730Y-17758D03*
X51045Y-17758D03*
X51045Y-12442D03*
X51360Y-12442D03*
X51360Y-17758D03*
X51675Y-17758D03*
X51675Y-12442D03*
G54D35*
X17800Y-07400D03*
X17800Y-24100D03*
X63000Y-07400D03*
X63100Y-24100D03*
G54D36*
X44400Y-20000D03*
X47200Y-19800D03*
X50900Y-19800D03*
X51600Y-15300D03*
X35000Y-15300D03*
X41200Y-21700D03*
X33600Y-21800D03*
X50100Y-15900D03*
X33400Y-15900D03*
X40600Y-20100D03*
X35600Y-20100D03*
X41100Y-20100D03*
X35300Y-20500D03*
X51100Y-15600D03*
X34300Y-15600D03*
X38000Y-18300D03*
X32400Y-19500D03*
X49800Y-16300D03*
X33100Y-16300D03*
X39800Y-17500D03*
X28200Y-17700D03*
X41500Y-18500D03*
X46900Y-18700D03*
X41100Y-19200D03*
X46500Y-19300D03*
X46500Y-22500D03*
X39600Y-22600D03*
X41500Y-19600D03*
X46000Y-19600D03*
X46000Y-22000D03*
X39600Y-22000D03*
X42500Y-24700D03*
X61000Y-24400D03*
X64100Y-19500D03*
X54700Y-17900D03*
X50400Y-18600D03*
X44400Y-18900D03*
X40500Y-19200D03*
X33700Y-16700D03*
X48300Y-22400D03*
X48300Y-20600D03*
X34100Y-19800D03*
X52400Y-17600D03*
X51300Y-22300D03*
X37200Y-22100D03*
X38800Y-21600D03*
X39000Y-18600D03*
X31800Y-17000D03*
X51400Y-16900D03*
X56400Y-21600D03*
X37900Y-20900D03*
X42000Y-18200D03*
X53100Y-19800D03*
X42600Y-17900D03*
X48000Y-17800D03*
X48200Y-19300D03*
X52500Y-19800D03*
X61000Y-15000D03*
G54D37*
X22000Y-12900D02*
X21684Y-12584D01*
X22000Y-14200D02*
X22000Y-12900D01*
X21684Y-12584D02*
X21684Y-11200D01*
G54D38*
X62100Y-19500D02*
X61500Y-19500D01*
G54D37*
X61100Y-25200D02*
X61500Y-24800D01*
X61500Y-24800D02*
X61500Y-19500D01*
X61100Y-25200D02*
X57200Y-25200D01*
X62000Y-18200D02*
X63000Y-17200D01*
X61500Y-19500D02*
X61500Y-18700D01*
X61500Y-18700D02*
X62000Y-18200D01*
X63500Y-17200D02*
X63000Y-17200D01*
G54D38*
X62000Y-19500D02*
X62100Y-19500D01*
X62100Y-19500D02*
X62825Y-19500D01*
G54D37*
X38800Y-19525D02*
X37175Y-19525D01*
X35925Y-20775D02*
X35925Y-22100D01*
X37175Y-19525D02*
X35925Y-20775D01*
G54D39*
X50730Y-17758D02*
X50730Y-18405D01*
X50730Y-18405D02*
X50925Y-18600D01*
X44280Y-19880D02*
X43570Y-19880D01*
X44400Y-20000D02*
X44280Y-19880D01*
G54D38*
X34030Y-17758D02*
X34030Y-18555D01*
X34030Y-18555D02*
X34100Y-18625D01*
G54D40*
X34100Y-18625D02*
X34225Y-18625D01*
X34900Y-19300D02*
X34900Y-22100D01*
X34225Y-18625D02*
X34900Y-19300D01*
X43900Y-23300D02*
X43300Y-23900D01*
X43300Y-23900D02*
X43300Y-25200D01*
X44400Y-23300D02*
X43900Y-23300D01*
G54D39*
X55675Y-21200D02*
X56700Y-21200D01*
X56800Y-21300D02*
X56800Y-22800D01*
X56700Y-21200D02*
X56800Y-21300D01*
X55675Y-22800D02*
X56800Y-22800D01*
X56800Y-22800D02*
X56800Y-23600D01*
X56800Y-23600D02*
X56700Y-23600D01*
X57200Y-25200D02*
X57200Y-24000D01*
X56800Y-23600D02*
X56700Y-23600D01*
X56700Y-23600D02*
X55675Y-23600D01*
X57200Y-24000D02*
X56800Y-23600D01*
G54D41*
X32200Y-20300D02*
X33075Y-20300D01*
X33075Y-20300D02*
X33100Y-20275D01*
G54D40*
X50900Y-18625D02*
X50925Y-18600D01*
X50900Y-19800D02*
X50900Y-18625D01*
G54D37*
X34400Y-23200D02*
X34400Y-22600D01*
X34400Y-22600D02*
X34400Y-22400D01*
X34400Y-22400D02*
X34700Y-22100D01*
X34700Y-22100D02*
X34900Y-22100D01*
X34653Y-24200D02*
X34653Y-24453D01*
G54D38*
X51700Y-19800D02*
X52712Y-18788D01*
X38838Y-19563D02*
X38800Y-19525D01*
X39804Y-19563D02*
X38838Y-19563D01*
X52712Y-18788D02*
X54067Y-18788D01*
G54D37*
X34653Y-24200D02*
X34653Y-23453D01*
X55600Y-25200D02*
X57200Y-25200D01*
G54D38*
X38800Y-19200D02*
X39067Y-18933D01*
G54D37*
X55400Y-25200D02*
X55600Y-25200D01*
X47200Y-25200D02*
X55400Y-25200D01*
G54D42*
X47200Y-25200D02*
X47200Y-19800D01*
G54D37*
X43300Y-25200D02*
X47200Y-25200D01*
X35400Y-25200D02*
X43300Y-25200D01*
X34900Y-22100D02*
X35925Y-22100D01*
X32200Y-20300D02*
X32200Y-22511D01*
X32200Y-22511D02*
X34311Y-22511D01*
X34311Y-22511D02*
X34400Y-22600D01*
G54D38*
X38800Y-19525D02*
X38800Y-19200D01*
X39067Y-18933D02*
X39804Y-18933D01*
G54D37*
X34653Y-23453D02*
X34400Y-23200D01*
G54D38*
X50900Y-19800D02*
X51700Y-19800D01*
G54D37*
X34653Y-24453D02*
X35400Y-25200D01*
G54D41*
X53325Y-17900D02*
X53325Y-17525D01*
X52900Y-17100D02*
X51900Y-17100D01*
X53325Y-17525D02*
X52900Y-17100D01*
X51675Y-17758D02*
X51675Y-17325D01*
X51900Y-15600D02*
X51600Y-15300D01*
X51900Y-17100D02*
X51900Y-15600D01*
X51675Y-17325D02*
X51900Y-17100D01*
X34975Y-17758D02*
X34975Y-15325D01*
X51600Y-15300D02*
X51675Y-15375D01*
X34975Y-15325D02*
X35000Y-15300D01*
X39804Y-17988D02*
X35888Y-17988D01*
X35658Y-17758D02*
X34975Y-17758D01*
X35888Y-17988D02*
X35658Y-17758D01*
X33400Y-17758D02*
X33400Y-19000D01*
X41220Y-21680D02*
X41220Y-20980D01*
X41200Y-21700D02*
X41220Y-21680D01*
X33600Y-19200D02*
X33600Y-21800D01*
X33400Y-19000D02*
X33600Y-19200D01*
X50100Y-15900D02*
X50100Y-17758D01*
X33400Y-17758D02*
X33400Y-15900D01*
X40590Y-20110D02*
X40590Y-20980D01*
X40600Y-20100D02*
X40590Y-20110D01*
X35600Y-19200D02*
X35600Y-20100D01*
X34660Y-18260D02*
X35600Y-19200D01*
X34660Y-17758D02*
X34660Y-18260D01*
X34345Y-17758D02*
X34345Y-18245D01*
X40900Y-20300D02*
X40900Y-20980D01*
X41100Y-20100D02*
X40900Y-20300D01*
X35300Y-19200D02*
X35300Y-20500D01*
X34345Y-18245D02*
X35300Y-19200D01*
X34345Y-17758D02*
X34345Y-15645D01*
X51045Y-15655D02*
X51045Y-17758D01*
X51100Y-15600D02*
X51045Y-15655D01*
X34345Y-15645D02*
X34300Y-15600D01*
X47300Y-18300D02*
X43570Y-18300D01*
X47500Y-18500D02*
X47300Y-18300D01*
X47500Y-23900D02*
X47500Y-18500D01*
X47900Y-24300D02*
X47500Y-23900D01*
X49500Y-24300D02*
X47900Y-24300D01*
X47290Y-17990D02*
X43570Y-17990D01*
X47700Y-18400D02*
X47290Y-17990D01*
X47700Y-23300D02*
X47700Y-18400D01*
X48000Y-23600D02*
X47700Y-23300D01*
X51300Y-23600D02*
X48000Y-23600D01*
X52000Y-24300D02*
X51300Y-23600D01*
X52600Y-24300D02*
X52000Y-24300D01*
X44900Y-22800D02*
X44300Y-22200D01*
X44900Y-23700D02*
X44900Y-22800D01*
X44400Y-24200D02*
X44900Y-23700D01*
X44400Y-24300D02*
X44400Y-24200D01*
X42800Y-21600D02*
X42800Y-20980D01*
X43400Y-22200D02*
X42800Y-21600D01*
X44300Y-22200D02*
X43400Y-22200D01*
X45400Y-23300D02*
X45400Y-22900D01*
X42480Y-20220D02*
X42480Y-20980D01*
X42500Y-20200D02*
X42480Y-20220D01*
X42800Y-20200D02*
X42500Y-20200D01*
X43300Y-20700D02*
X42800Y-20200D01*
X43300Y-21300D02*
X43300Y-20700D01*
X44000Y-22000D02*
X43300Y-21300D01*
X44500Y-22000D02*
X44000Y-22000D01*
X45400Y-22900D02*
X44500Y-22000D01*
X33100Y-19525D02*
X32425Y-19525D01*
X38003Y-18303D02*
X39804Y-18303D01*
X38000Y-18300D02*
X38003Y-18303D01*
X32425Y-19525D02*
X32400Y-19500D01*
X33085Y-17758D02*
X33085Y-16315D01*
X49785Y-16315D02*
X49785Y-17758D01*
X49800Y-16300D02*
X49785Y-16315D01*
X33085Y-16315D02*
X33100Y-16300D01*
X33100Y-19525D02*
X33100Y-17773D01*
X33100Y-17773D02*
X33085Y-17758D01*
X28200Y-19200D02*
X28200Y-17700D01*
X40100Y-17200D02*
X40588Y-17200D01*
X39800Y-17500D02*
X40100Y-17200D01*
G54D37*
X28200Y-22200D02*
X28200Y-20300D01*
X29100Y-23100D02*
X28200Y-22200D01*
G54D42*
X28200Y-20300D02*
X28200Y-19200D01*
G54D37*
X29429Y-23100D02*
X29100Y-23100D01*
G54D41*
X46400Y-24300D02*
X46400Y-24100D01*
X41532Y-18468D02*
X41532Y-17200D01*
X41500Y-18500D02*
X41532Y-18468D01*
X46900Y-23600D02*
X46900Y-18700D01*
X46400Y-24100D02*
X46900Y-23600D01*
X38400Y-24300D02*
X38400Y-23800D01*
X41200Y-17218D02*
X41218Y-17200D01*
X41200Y-18100D02*
X41200Y-17218D01*
X41100Y-18200D02*
X41200Y-18100D01*
X41100Y-19200D02*
X41100Y-18200D01*
X46500Y-22500D02*
X46500Y-19300D01*
X38400Y-23800D02*
X39600Y-22600D01*
X44100Y-21800D02*
X43570Y-21270D01*
X44900Y-21800D02*
X44100Y-21800D01*
X45900Y-22800D02*
X44900Y-21800D01*
X45900Y-23800D02*
X45900Y-22800D01*
X45400Y-24300D02*
X45900Y-23800D01*
X43570Y-21270D02*
X43570Y-20200D01*
X37400Y-24300D02*
X37400Y-24200D01*
X40902Y-18098D02*
X40902Y-17200D01*
X40800Y-18200D02*
X40902Y-18098D01*
X40800Y-19500D02*
X40800Y-18200D01*
X40900Y-19600D02*
X40800Y-19500D01*
X41500Y-19600D02*
X40900Y-19600D01*
X46000Y-22000D02*
X46000Y-19600D01*
X37400Y-24200D02*
X39600Y-22000D01*
X61000Y-24400D02*
X61000Y-17500D01*
X61400Y-16000D02*
X62400Y-15000D01*
X42500Y-23500D02*
X42500Y-24700D01*
X41530Y-20980D02*
X41530Y-22530D01*
X41530Y-22530D02*
X42500Y-23500D01*
X62400Y-15000D02*
X62400Y-13700D01*
X62400Y-13700D02*
X62900Y-13200D01*
X62900Y-13200D02*
X63500Y-13200D01*
X61400Y-17100D02*
X61400Y-16000D01*
X61000Y-17500D02*
X61400Y-17100D01*
G54D38*
X63575Y-19500D02*
X64100Y-19500D01*
G54D39*
X54075Y-17900D02*
X54700Y-17900D01*
X50415Y-17758D02*
X50415Y-18585D01*
X50415Y-18585D02*
X50400Y-18600D01*
G54D40*
X43570Y-18930D02*
X44370Y-18930D01*
X44370Y-18930D02*
X44400Y-18900D01*
X39804Y-19248D02*
X40552Y-19248D01*
X40552Y-19248D02*
X40500Y-19200D01*
G54D41*
X33715Y-17758D02*
X33715Y-16715D01*
X33715Y-16715D02*
X33700Y-16700D01*
G54D39*
X49100Y-22375D02*
X48325Y-22375D01*
X48325Y-22375D02*
X48300Y-22400D01*
X49100Y-20575D02*
X48325Y-20575D01*
X48325Y-20575D02*
X48300Y-20600D01*
G54D38*
X34100Y-19375D02*
X34100Y-19800D01*
X51950Y-22250D02*
X51350Y-22250D01*
X51350Y-22250D02*
X51300Y-22300D01*
G54D39*
X39804Y-18618D02*
X39018Y-18618D01*
X51900Y-18600D02*
X52400Y-18100D01*
X52400Y-18100D02*
X52400Y-17600D01*
X51675Y-18600D02*
X51900Y-18600D01*
G54D40*
X36675Y-22100D02*
X37200Y-22100D01*
X38800Y-20275D02*
X38800Y-21600D01*
G54D39*
X39018Y-18618D02*
X39000Y-18600D01*
G54D41*
X45800Y-10000D02*
X45300Y-09500D01*
X45800Y-13300D02*
X45800Y-10000D01*
X46655Y-14155D02*
X45800Y-13300D01*
X47442Y-14155D02*
X46655Y-14155D01*
X46740Y-13840D02*
X46300Y-13400D01*
X47442Y-13840D02*
X46740Y-13840D01*
X46300Y-13400D02*
X46300Y-10500D01*
X41800Y-13600D02*
X41800Y-10000D01*
X44875Y-16675D02*
X41800Y-13600D01*
X47442Y-16675D02*
X44875Y-16675D01*
X41800Y-10000D02*
X41300Y-09500D01*
X47442Y-13525D02*
X47442Y-11842D01*
X46800Y-10000D02*
X46300Y-09500D01*
X46800Y-11200D02*
X46800Y-10000D01*
X47442Y-11842D02*
X46800Y-11200D01*
X45345Y-16045D02*
X42800Y-13500D01*
X47442Y-16045D02*
X45345Y-16045D01*
X42800Y-10000D02*
X42300Y-09500D01*
X42800Y-13500D02*
X42800Y-10000D01*
X43800Y-10000D02*
X43300Y-09500D01*
X43800Y-13300D02*
X43800Y-10000D01*
X45915Y-15415D02*
X43800Y-13300D01*
X47442Y-15415D02*
X45915Y-15415D01*
X31600Y-09600D02*
X31600Y-07600D01*
X33085Y-11085D02*
X31600Y-09600D01*
X33085Y-12442D02*
X33085Y-11085D01*
X32455Y-11655D02*
X30600Y-09800D01*
X32455Y-12442D02*
X32455Y-11655D01*
X30600Y-09800D02*
X30600Y-07600D01*
X31825Y-12442D02*
X30242Y-12442D01*
X29600Y-11800D02*
X29600Y-07600D01*
X30242Y-12442D02*
X29600Y-11800D01*
X34345Y-10045D02*
X33600Y-09300D01*
X34345Y-12442D02*
X34345Y-10045D01*
X33600Y-09300D02*
X33600Y-07600D01*
X26260Y-16360D02*
X24100Y-14200D01*
X30742Y-16360D02*
X26260Y-16360D01*
X24100Y-07100D02*
X23600Y-06600D01*
X24100Y-14200D02*
X24100Y-07100D01*
X46385Y-14785D02*
X44800Y-13200D01*
X47442Y-14785D02*
X46385Y-14785D01*
X44800Y-10000D02*
X44300Y-09500D01*
X44800Y-13200D02*
X44800Y-10000D01*
X51360Y-10440D02*
X53200Y-08600D01*
X51360Y-12442D02*
X51360Y-10440D01*
X53200Y-07100D02*
X52700Y-06600D01*
X53200Y-08600D02*
X53200Y-07100D01*
X27515Y-15415D02*
X25600Y-13500D01*
X30742Y-15415D02*
X27515Y-15415D01*
X25600Y-13500D02*
X25600Y-07600D01*
X37855Y-16045D02*
X40800Y-13100D01*
X36058Y-16045D02*
X37855Y-16045D01*
X40800Y-10000D02*
X40300Y-09500D01*
X40800Y-13100D02*
X40800Y-10000D01*
X30742Y-14785D02*
X28585Y-14785D01*
X26600Y-12800D02*
X26600Y-07600D01*
X28585Y-14785D02*
X26600Y-12800D01*
X36800Y-10000D02*
X36300Y-09500D01*
X36800Y-11700D02*
X36800Y-10000D01*
X36058Y-12442D02*
X36800Y-11700D01*
X36058Y-13525D02*
X36058Y-12442D01*
X29455Y-14155D02*
X27600Y-12300D01*
X30742Y-14155D02*
X29455Y-14155D01*
X27600Y-12300D02*
X27600Y-07600D01*
X28100Y-07100D02*
X27600Y-06600D01*
X28100Y-11900D02*
X28100Y-07100D01*
X30040Y-13840D02*
X28100Y-11900D01*
X30742Y-13840D02*
X30040Y-13840D01*
X37800Y-10000D02*
X37300Y-09500D01*
X37800Y-13300D02*
X37800Y-10000D01*
X36945Y-14155D02*
X37800Y-13300D01*
X36058Y-14155D02*
X36945Y-14155D01*
X30742Y-16675D02*
X25875Y-16675D01*
X23600Y-14400D02*
X23600Y-07600D01*
X25875Y-16675D02*
X23600Y-14400D01*
X29100Y-12200D02*
X29100Y-07100D01*
X30425Y-13525D02*
X29100Y-12200D01*
X30742Y-13525D02*
X30425Y-13525D01*
X29100Y-07100D02*
X28600Y-06600D01*
X36058Y-14785D02*
X37315Y-14785D01*
X38800Y-10000D02*
X38300Y-09500D01*
X38800Y-13300D02*
X38800Y-10000D01*
X37315Y-14785D02*
X38800Y-13300D01*
X26445Y-16045D02*
X24600Y-14200D01*
X30742Y-16045D02*
X26445Y-16045D01*
X24600Y-14200D02*
X24600Y-07600D01*
X37485Y-15415D02*
X39800Y-13100D01*
X36058Y-15415D02*
X37485Y-15415D01*
X39800Y-10000D02*
X39300Y-09500D01*
X39800Y-13100D02*
X39800Y-10000D01*
X55700Y-12000D02*
X55700Y-07600D01*
X53545Y-14155D02*
X55700Y-12000D01*
X52758Y-14155D02*
X53545Y-14155D01*
X51360Y-17758D02*
X51360Y-16940D01*
X31825Y-17025D02*
X31825Y-17758D01*
X31800Y-17000D02*
X31825Y-17025D01*
X51360Y-16940D02*
X51400Y-16900D01*
X56200Y-07100D02*
X55700Y-06600D01*
X56200Y-12000D02*
X56200Y-07100D01*
X53730Y-14470D02*
X56200Y-12000D01*
X52758Y-14470D02*
X53730Y-14470D01*
X48700Y-08300D02*
X48700Y-07600D01*
X48525Y-08475D02*
X48700Y-08300D01*
X48525Y-12442D02*
X48525Y-08475D01*
X52758Y-14785D02*
X54015Y-14785D01*
X56700Y-12100D02*
X56700Y-07600D01*
X54015Y-14785D02*
X56700Y-12100D01*
X48840Y-08960D02*
X49200Y-08600D01*
X48840Y-12442D02*
X48840Y-08960D01*
X49200Y-07100D02*
X48700Y-06600D01*
X49200Y-08600D02*
X49200Y-07100D01*
X49155Y-12442D02*
X49155Y-09145D01*
X49700Y-08600D02*
X49700Y-07600D01*
X49155Y-09145D02*
X49700Y-08600D01*
X49470Y-09430D02*
X50200Y-08700D01*
X49470Y-12442D02*
X49470Y-09430D01*
X50200Y-07100D02*
X49700Y-06600D01*
X50200Y-08700D02*
X50200Y-07100D01*
X50700Y-08700D02*
X50700Y-07600D01*
X49785Y-09615D02*
X50700Y-08700D01*
X49785Y-12442D02*
X49785Y-09615D01*
X50100Y-09700D02*
X51200Y-08600D01*
X50100Y-12442D02*
X50100Y-09700D01*
X51200Y-07100D02*
X50700Y-06600D01*
X51200Y-08600D02*
X51200Y-07100D01*
X51700Y-08600D02*
X51700Y-07600D01*
X50415Y-09885D02*
X51700Y-08600D01*
X50415Y-12442D02*
X50415Y-09885D01*
X50730Y-10070D02*
X52200Y-08600D01*
X50730Y-12442D02*
X50730Y-10070D01*
X52200Y-07100D02*
X51700Y-06600D01*
X52200Y-08600D02*
X52200Y-07100D01*
X51045Y-12442D02*
X51045Y-10255D01*
X52700Y-08600D02*
X52700Y-07600D01*
X51045Y-10255D02*
X52700Y-08600D01*
X54200Y-07100D02*
X53700Y-06600D01*
X54200Y-08100D02*
X54200Y-07100D01*
X51675Y-10625D02*
X54200Y-08100D01*
X51675Y-12442D02*
X51675Y-10625D01*
X32600Y-09400D02*
X32600Y-07600D01*
X33715Y-10515D02*
X32600Y-09400D01*
X33715Y-12442D02*
X33715Y-10515D01*
X32140Y-12442D02*
X32140Y-11840D01*
X30100Y-07100D02*
X29600Y-06600D01*
X30100Y-09800D02*
X30100Y-07100D01*
X32140Y-11840D02*
X30100Y-09800D01*
X31100Y-07100D02*
X30600Y-06600D01*
X31100Y-09700D02*
X31100Y-07100D01*
X32770Y-11370D02*
X31100Y-09700D01*
X32770Y-12442D02*
X32770Y-11370D01*
X32100Y-07100D02*
X31600Y-06600D01*
X32100Y-09500D02*
X32100Y-07100D01*
X33400Y-10800D02*
X32100Y-09500D01*
X33400Y-12442D02*
X33400Y-10800D01*
X33100Y-07100D02*
X32600Y-06600D01*
X33100Y-09400D02*
X33100Y-07100D01*
X34030Y-10330D02*
X33100Y-09400D01*
X34030Y-12442D02*
X34030Y-10330D01*
X34100Y-09100D02*
X34100Y-07100D01*
X34660Y-09660D02*
X34100Y-09100D01*
X34660Y-12442D02*
X34660Y-09660D01*
X34100Y-07100D02*
X33600Y-06600D01*
X57200Y-12200D02*
X57200Y-07100D01*
X54300Y-15100D02*
X57200Y-12200D01*
X52758Y-15100D02*
X54300Y-15100D01*
X57200Y-07100D02*
X56700Y-06600D01*
X54585Y-15415D02*
X57700Y-12300D01*
X52758Y-15415D02*
X54585Y-15415D01*
X57700Y-12300D02*
X57700Y-07600D01*
X52758Y-15730D02*
X54970Y-15730D01*
X58200Y-07100D02*
X57700Y-06600D01*
X58200Y-12500D02*
X58200Y-07100D01*
X54970Y-15730D02*
X58200Y-12500D01*
X52758Y-16045D02*
X55255Y-16045D01*
X58700Y-12600D02*
X58700Y-07600D01*
X55255Y-16045D02*
X58700Y-12600D01*
X59200Y-12700D02*
X59200Y-07100D01*
X55540Y-16360D02*
X59200Y-12700D01*
X52758Y-16360D02*
X55540Y-16360D01*
X59200Y-07100D02*
X58700Y-06600D01*
X52758Y-13525D02*
X53275Y-13525D01*
X54700Y-12100D02*
X54700Y-07600D01*
X53275Y-13525D02*
X54700Y-12100D01*
X52758Y-13840D02*
X53360Y-13840D01*
X55200Y-07100D02*
X54700Y-06600D01*
X55200Y-12000D02*
X55200Y-07100D01*
X53360Y-13840D02*
X55200Y-12000D01*
X25100Y-07100D02*
X24600Y-06600D01*
X25100Y-14000D02*
X25100Y-07100D01*
X26830Y-15730D02*
X25100Y-14000D01*
X30742Y-15730D02*
X26830Y-15730D01*
X30742Y-15100D02*
X28100Y-15100D01*
X26100Y-07100D02*
X25600Y-06600D01*
X26100Y-13100D02*
X26100Y-07100D01*
X28100Y-15100D02*
X26100Y-13100D01*
X27100Y-07100D02*
X26600Y-06600D01*
X27100Y-12500D02*
X27100Y-07100D01*
X29070Y-14470D02*
X27100Y-12500D01*
X30742Y-14470D02*
X29070Y-14470D01*
X35200Y-10500D02*
X36300Y-10500D01*
X34975Y-10725D02*
X35200Y-10500D01*
X34975Y-12442D02*
X34975Y-10725D01*
X36760Y-13840D02*
X37300Y-13300D01*
X36058Y-13840D02*
X36760Y-13840D01*
X37300Y-13300D02*
X37300Y-10500D01*
X36058Y-14470D02*
X37130Y-14470D01*
X38300Y-13300D02*
X38300Y-10500D01*
X37130Y-14470D02*
X38300Y-13300D01*
X36058Y-15100D02*
X37400Y-15100D01*
X39300Y-13200D02*
X39300Y-10500D01*
X37400Y-15100D02*
X39300Y-13200D01*
X37670Y-15730D02*
X40300Y-13100D01*
X36058Y-15730D02*
X37670Y-15730D01*
X40300Y-13100D02*
X40300Y-10500D01*
X42300Y-13600D02*
X42300Y-10500D01*
X45060Y-16360D02*
X42300Y-13600D01*
X47442Y-16360D02*
X45060Y-16360D01*
X47442Y-15730D02*
X45630Y-15730D01*
X43300Y-13400D02*
X43300Y-10500D01*
X45630Y-15730D02*
X43300Y-13400D01*
X46100Y-15100D02*
X44300Y-13300D01*
X47442Y-15100D02*
X46100Y-15100D01*
X44300Y-13300D02*
X44300Y-10500D01*
X47442Y-14470D02*
X46570Y-14470D01*
X45300Y-13200D02*
X45300Y-10500D01*
X46570Y-14470D02*
X45300Y-13200D01*
X54500Y-20600D02*
X54500Y-19812D01*
X54350Y-20750D02*
X54500Y-20600D01*
X54050Y-20750D02*
X54350Y-20750D01*
X39804Y-19878D02*
X38222Y-19878D01*
X56400Y-22000D02*
X55675Y-22000D01*
X56400Y-21600D02*
X56400Y-22000D01*
X37900Y-20200D02*
X37900Y-20900D01*
X38222Y-19878D02*
X37900Y-20200D01*
X50242Y-20750D02*
X50200Y-20708D01*
X51950Y-20750D02*
X50242Y-20750D01*
G54D39*
X49100Y-19825D02*
X49675Y-19825D01*
X50100Y-20608D02*
X50200Y-20708D01*
X50100Y-20250D02*
X50100Y-20608D01*
X49675Y-19825D02*
X50100Y-20250D01*
X50133Y-21625D02*
X50200Y-21692D01*
G54D41*
X50608Y-21692D02*
X51050Y-21250D01*
X50200Y-21692D02*
X50608Y-21692D01*
X51050Y-21250D02*
X51950Y-21250D01*
G54D39*
X49100Y-21625D02*
X50133Y-21625D01*
G54D41*
X54100Y-21200D02*
X54050Y-21250D01*
X54925Y-22000D02*
X54925Y-21200D01*
X54925Y-21200D02*
X54100Y-21200D01*
X54050Y-21750D02*
X53650Y-21750D01*
X41848Y-18048D02*
X41848Y-17200D01*
X42000Y-18200D02*
X41848Y-18048D01*
X53100Y-21200D02*
X53100Y-19800D01*
X53650Y-21750D02*
X53100Y-21200D01*
X54900Y-22800D02*
X54500Y-22400D01*
X54925Y-22800D02*
X54900Y-22800D01*
X54350Y-21750D02*
X54050Y-21750D01*
X54500Y-21900D02*
X54350Y-21750D01*
X54500Y-22400D02*
X54500Y-21900D01*
X54050Y-22250D02*
X53750Y-22250D01*
X42162Y-17862D02*
X42162Y-17200D01*
X42200Y-17900D02*
X42162Y-17862D01*
X42600Y-17900D02*
X42200Y-17900D01*
X48000Y-19100D02*
X48000Y-17800D01*
X48200Y-19300D02*
X48000Y-19100D01*
X52500Y-21000D02*
X52500Y-19800D01*
X53750Y-22250D02*
X52500Y-21000D01*
X54925Y-23600D02*
X54500Y-23600D01*
X54050Y-23150D02*
X54050Y-22250D01*
X54500Y-23600D02*
X54050Y-23150D01*
G54D37*
X20571Y-23100D02*
X20571Y-20229D01*
X20571Y-20229D02*
X20600Y-20200D01*
X22000Y-18200D02*
X21700Y-18200D01*
X20116Y-14816D02*
X18700Y-14816D01*
X20700Y-15400D02*
X20116Y-14816D01*
X20700Y-17200D02*
X20700Y-15400D01*
X21700Y-18200D02*
X20700Y-17200D01*
X22000Y-18200D02*
X25500Y-18200D01*
X26600Y-19300D02*
X26600Y-20200D01*
X25500Y-18200D02*
X26600Y-19300D01*
G54D41*
X54933Y-18788D02*
X59212Y-18788D01*
X61000Y-17000D02*
X61000Y-15000D01*
X59212Y-18788D02*
X61000Y-17000D01*
M02*
