G04 (created by PCBNEW-RS274X (2011-04-29 BZR 2986)-stable) date 8/30/2011 9:17:05 PM*
G01*
G70*
G90*
%MOIN*%
G04 Gerber Fmt 3.4, Leading zero omitted, Abs format*
%FSLAX34Y34*%
G04 APERTURE LIST*
%ADD10C,0.006000*%
%ADD11C,0.015000*%
%ADD12R,0.055000X0.075000*%
%ADD13R,0.080000X0.080000*%
%ADD14C,0.080000*%
%ADD15R,0.076000X0.076000*%
%ADD16C,0.076000*%
%ADD17R,0.098700X0.037700*%
%ADD18R,0.037700X0.098700*%
%ADD19R,0.075000X0.055000*%
%ADD20R,0.065000X0.040000*%
%ADD21R,0.094800X0.063300*%
%ADD22C,0.146000*%
%ADD23R,0.075000X0.075000*%
%ADD24C,0.075000*%
%ADD25C,0.090000*%
%ADD26C,0.130200*%
%ADD27R,0.079100X0.079100*%
%ADD28C,0.079100*%
%ADD29R,0.114500X0.114500*%
%ADD30C,0.114500*%
%ADD31R,0.130200X0.075100*%
%ADD32R,0.067200X0.075100*%
%ADD33R,0.097600X0.037700*%
%ADD34R,0.037700X0.097600*%
%ADD35C,0.180000*%
G04 APERTURE END LIST*
G54D10*
G54D11*
X64600Y-25600D02*
X16300Y-25600D01*
X16300Y-05900D02*
X16300Y-06100D01*
X64600Y-05900D02*
X16300Y-05900D01*
X64567Y-25591D02*
X64567Y-05906D01*
X16312Y-05906D02*
X16312Y-25591D01*
G54D12*
X62825Y-19500D03*
X63575Y-19500D03*
G54D13*
X22000Y-14200D03*
G54D14*
X22000Y-18200D03*
G54D15*
X28200Y-19200D03*
G54D16*
X31200Y-19200D03*
G54D17*
X39804Y-20193D03*
X39804Y-19878D03*
X39804Y-19563D03*
X39804Y-19248D03*
X39804Y-18933D03*
X39804Y-18618D03*
X39804Y-18303D03*
X39804Y-17988D03*
X43570Y-17990D03*
X43570Y-20200D03*
X43570Y-19880D03*
X43570Y-19560D03*
X43570Y-19250D03*
X43570Y-18930D03*
X43570Y-18620D03*
X43570Y-18300D03*
G54D18*
X40588Y-17200D03*
X40902Y-17200D03*
X41218Y-17200D03*
X41532Y-17200D03*
X41848Y-17200D03*
X42162Y-17200D03*
X42478Y-17200D03*
X42792Y-17200D03*
X40590Y-20980D03*
X40900Y-20980D03*
X41220Y-20980D03*
X41530Y-20980D03*
X41840Y-20980D03*
X42160Y-20980D03*
X42480Y-20980D03*
X42800Y-20980D03*
G54D19*
X33100Y-19525D03*
X33100Y-20275D03*
X34100Y-18625D03*
X34100Y-19375D03*
G54D12*
X50925Y-18600D03*
X51675Y-18600D03*
G54D20*
X54050Y-20750D03*
X51950Y-20750D03*
X54050Y-21250D03*
X54050Y-21750D03*
X54050Y-22250D03*
X51950Y-21250D03*
X51950Y-21750D03*
X51950Y-22250D03*
G54D13*
X23600Y-07600D03*
G54D14*
X23600Y-06600D03*
X24600Y-07600D03*
X24600Y-06600D03*
X25600Y-07600D03*
X25600Y-06600D03*
X26600Y-07600D03*
X26600Y-06600D03*
X27600Y-07600D03*
X27600Y-06600D03*
X28600Y-07600D03*
X28600Y-06600D03*
X29600Y-07600D03*
X29600Y-06600D03*
X30600Y-07600D03*
X30600Y-06600D03*
X31600Y-07600D03*
X31600Y-06600D03*
X32600Y-07600D03*
X32600Y-06600D03*
X33600Y-07600D03*
X33600Y-06600D03*
X34600Y-07600D03*
X34600Y-06600D03*
G54D13*
X36300Y-10500D03*
G54D14*
X36300Y-09500D03*
X37300Y-10500D03*
X37300Y-09500D03*
X38300Y-10500D03*
X38300Y-09500D03*
X39300Y-10500D03*
X39300Y-09500D03*
X40300Y-10500D03*
X40300Y-09500D03*
X41300Y-10500D03*
X41300Y-09500D03*
X42300Y-10500D03*
X42300Y-09500D03*
X43300Y-10500D03*
X43300Y-09500D03*
X44300Y-10500D03*
X44300Y-09500D03*
X45300Y-10500D03*
X45300Y-09500D03*
X46300Y-10500D03*
X46300Y-09500D03*
X47300Y-10500D03*
X47300Y-09500D03*
G54D13*
X48700Y-07600D03*
G54D14*
X48700Y-06600D03*
X49700Y-07600D03*
X49700Y-06600D03*
X50700Y-07600D03*
X50700Y-06600D03*
X51700Y-07600D03*
X51700Y-06600D03*
X52700Y-07600D03*
X52700Y-06600D03*
X53700Y-07600D03*
X53700Y-06600D03*
X54700Y-07600D03*
X54700Y-06600D03*
X55700Y-07600D03*
X55700Y-06600D03*
X56700Y-07600D03*
X56700Y-06600D03*
X57700Y-07600D03*
X57700Y-06600D03*
X58700Y-07600D03*
X58700Y-06600D03*
X59700Y-07600D03*
X59700Y-06600D03*
G54D21*
X50200Y-20708D03*
X50200Y-21692D03*
G54D22*
X18700Y-14816D03*
X18700Y-16784D03*
G54D19*
X49100Y-20575D03*
X49100Y-19825D03*
X49100Y-22375D03*
X49100Y-21625D03*
G54D12*
X55675Y-22000D03*
X54925Y-22000D03*
X54925Y-21200D03*
X55675Y-21200D03*
X54925Y-22800D03*
X55675Y-22800D03*
X54925Y-23600D03*
X55675Y-23600D03*
X53325Y-17900D03*
X54075Y-17900D03*
G54D23*
X63500Y-18200D03*
G54D24*
X63500Y-17200D03*
X63500Y-16200D03*
X63500Y-15200D03*
X63500Y-14200D03*
X63500Y-13200D03*
X63500Y-12200D03*
X63500Y-11200D03*
G54D25*
X20600Y-20200D03*
X26600Y-20200D03*
G54D13*
X44400Y-24300D03*
G54D14*
X44400Y-23300D03*
X45400Y-24300D03*
X45400Y-23300D03*
X46400Y-24300D03*
X46400Y-23300D03*
G54D12*
X35925Y-22100D03*
X36675Y-22100D03*
G54D26*
X20571Y-23100D03*
X29429Y-23100D03*
G54D27*
X21684Y-11200D03*
G54D28*
X19716Y-11200D03*
G54D29*
X32200Y-22511D03*
G54D30*
X32200Y-23889D03*
G54D13*
X32200Y-20300D03*
G54D14*
X28200Y-20300D03*
G54D31*
X54500Y-19812D03*
G54D32*
X54067Y-18788D03*
X54933Y-18788D03*
G54D23*
X41400Y-24300D03*
G54D24*
X40400Y-24300D03*
X39400Y-24300D03*
X38400Y-24300D03*
X37400Y-24300D03*
X36400Y-24300D03*
G54D23*
X49500Y-24300D03*
G54D24*
X50500Y-24300D03*
G54D23*
X52600Y-24300D03*
G54D24*
X53600Y-24300D03*
G54D19*
X38800Y-19525D03*
X38800Y-20275D03*
G54D33*
X36058Y-15100D03*
X36058Y-14785D03*
X36058Y-14470D03*
X36058Y-14155D03*
X36058Y-13840D03*
X36058Y-13525D03*
X36058Y-15415D03*
X36058Y-15730D03*
X36058Y-16045D03*
X36058Y-16360D03*
X36058Y-16675D03*
X30742Y-15100D03*
X30742Y-14785D03*
X30742Y-14470D03*
X30742Y-14155D03*
X30742Y-13840D03*
X30742Y-13525D03*
X30742Y-15415D03*
X30742Y-15730D03*
X30742Y-16045D03*
X30742Y-16360D03*
X30742Y-16675D03*
G54D34*
X33400Y-12442D03*
X33400Y-17758D03*
X33085Y-12442D03*
X33085Y-17758D03*
X32770Y-17758D03*
X32770Y-12442D03*
X32455Y-12442D03*
X32455Y-17758D03*
X32140Y-17758D03*
X32140Y-12442D03*
X31825Y-12442D03*
X31825Y-17758D03*
X33715Y-17758D03*
X33715Y-12442D03*
X34030Y-12442D03*
X34030Y-17758D03*
X34345Y-17758D03*
X34345Y-12442D03*
X34660Y-12442D03*
X34660Y-17758D03*
X34975Y-17758D03*
X34975Y-12442D03*
G54D33*
X52758Y-15100D03*
X52758Y-14785D03*
X52758Y-14470D03*
X52758Y-14155D03*
X52758Y-13840D03*
X52758Y-13525D03*
X52758Y-15415D03*
X52758Y-15730D03*
X52758Y-16045D03*
X52758Y-16360D03*
X52758Y-16675D03*
X47442Y-15100D03*
X47442Y-14785D03*
X47442Y-14470D03*
X47442Y-14155D03*
X47442Y-13840D03*
X47442Y-13525D03*
X47442Y-15415D03*
X47442Y-15730D03*
X47442Y-16045D03*
X47442Y-16360D03*
X47442Y-16675D03*
G54D34*
X50100Y-12442D03*
X50100Y-17758D03*
X49785Y-12442D03*
X49785Y-17758D03*
X49470Y-17758D03*
X49470Y-12442D03*
X49155Y-12442D03*
X49155Y-17758D03*
X48840Y-17758D03*
X48840Y-12442D03*
X48525Y-12442D03*
X48525Y-17758D03*
X50415Y-17758D03*
X50415Y-12442D03*
X50730Y-12442D03*
X50730Y-17758D03*
X51045Y-17758D03*
X51045Y-12442D03*
X51360Y-12442D03*
X51360Y-17758D03*
X51675Y-17758D03*
X51675Y-12442D03*
G54D35*
X17800Y-07400D03*
X17800Y-24100D03*
X63000Y-07400D03*
X63100Y-24100D03*
M02*
