G04 (created by PCBNEW-RS274X (2011-04-29 BZR 2986)-stable) date 8/30/2011 9:17:05 PM*
G01*
G70*
G90*
%MOIN*%
G04 Gerber Fmt 3.4, Leading zero omitted, Abs format*
%FSLAX34Y34*%
G04 APERTURE LIST*
%ADD10C,0.006000*%
%ADD11C,0.015000*%
%ADD12C,0.012000*%
G04 APERTURE END LIST*
G54D10*
G54D11*
X64600Y-25600D02*
X16300Y-25600D01*
X16300Y-05900D02*
X16300Y-06100D01*
X64600Y-05900D02*
X16300Y-05900D01*
X64567Y-25591D02*
X64567Y-05906D01*
X16312Y-05906D02*
X16312Y-25591D01*
G54D12*
X57171Y-18029D02*
X57085Y-18057D01*
X57057Y-18086D01*
X57028Y-18143D01*
X57028Y-18229D01*
X57057Y-18286D01*
X57085Y-18314D01*
X57143Y-18343D01*
X57371Y-18343D01*
X57371Y-17743D01*
X57171Y-17743D01*
X57114Y-17771D01*
X57085Y-17800D01*
X57057Y-17857D01*
X57057Y-17914D01*
X57085Y-17971D01*
X57114Y-18000D01*
X57171Y-18029D01*
X57371Y-18029D01*
X56857Y-17743D02*
X56514Y-17743D01*
X56685Y-18343D02*
X56685Y-17743D01*
X56000Y-18343D02*
X56343Y-18343D01*
X56171Y-18343D02*
X56171Y-17743D01*
X56228Y-17829D01*
X56286Y-17886D01*
X56343Y-17914D01*
M02*
