G04 (created by PCBNEW-RS274X (2011-04-29 BZR 2986)-stable) date 8/30/2011 9:17:05 PM*
G01*
G70*
G90*
%MOIN*%
G04 Gerber Fmt 3.4, Leading zero omitted, Abs format*
%FSLAX34Y34*%
G04 APERTURE LIST*
%ADD10C,0.006000*%
%ADD11C,0.015000*%
%ADD12C,0.012000*%
%ADD13C,0.005000*%
%ADD14C,0.012500*%
%ADD15C,0.008000*%
%ADD16C,0.010000*%
%ADD17C,0.010700*%
G04 APERTURE END LIST*
G54D10*
G54D11*
X64600Y-25600D02*
X16300Y-25600D01*
X16300Y-05900D02*
X16300Y-06100D01*
X64600Y-05900D02*
X16300Y-05900D01*
G54D12*
X38186Y-07195D02*
X38472Y-07195D01*
X38129Y-07424D02*
X38329Y-06624D01*
X38529Y-07424D01*
X38643Y-06890D02*
X38872Y-06890D01*
X38729Y-06624D02*
X38729Y-07310D01*
X38757Y-07386D01*
X38815Y-07424D01*
X38872Y-07424D01*
X39158Y-07424D02*
X39100Y-07386D01*
X39072Y-07348D01*
X39043Y-07271D01*
X39043Y-07043D01*
X39072Y-06967D01*
X39100Y-06929D01*
X39158Y-06890D01*
X39243Y-06890D01*
X39300Y-06929D01*
X39329Y-06967D01*
X39358Y-07043D01*
X39358Y-07271D01*
X39329Y-07348D01*
X39300Y-07386D01*
X39243Y-07424D01*
X39158Y-07424D01*
X39615Y-07424D02*
X39615Y-06890D01*
X39615Y-06967D02*
X39643Y-06929D01*
X39701Y-06890D01*
X39786Y-06890D01*
X39843Y-06929D01*
X39872Y-07005D01*
X39872Y-07424D01*
X39872Y-07005D02*
X39901Y-06929D01*
X39958Y-06890D01*
X40043Y-06890D01*
X40101Y-06929D01*
X40129Y-07005D01*
X40129Y-07424D01*
X40415Y-07424D02*
X40415Y-06890D01*
X40415Y-06624D02*
X40386Y-06662D01*
X40415Y-06700D01*
X40443Y-06662D01*
X40415Y-06624D01*
X40415Y-06700D01*
X40958Y-07386D02*
X40901Y-07424D01*
X40787Y-07424D01*
X40729Y-07386D01*
X40701Y-07348D01*
X40672Y-07271D01*
X40672Y-07043D01*
X40701Y-06967D01*
X40729Y-06929D01*
X40787Y-06890D01*
X40901Y-06890D01*
X40958Y-06929D01*
X41672Y-07424D02*
X41672Y-06624D01*
X42015Y-07424D01*
X42015Y-06624D01*
X42301Y-07424D02*
X42301Y-06890D01*
X42301Y-06624D02*
X42272Y-06662D01*
X42301Y-06700D01*
X42329Y-06662D01*
X42301Y-06624D01*
X42301Y-06700D01*
X42530Y-07424D02*
X42844Y-06890D01*
X42530Y-06890D02*
X42844Y-07424D01*
X43073Y-07424D02*
X43073Y-06890D01*
X43073Y-06624D02*
X43044Y-06662D01*
X43073Y-06700D01*
X43101Y-06662D01*
X43073Y-06624D01*
X43073Y-06700D01*
X43587Y-07386D02*
X43530Y-07424D01*
X43416Y-07424D01*
X43359Y-07386D01*
X43330Y-07310D01*
X43330Y-07005D01*
X43359Y-06929D01*
X43416Y-06890D01*
X43530Y-06890D01*
X43587Y-06929D01*
X43616Y-07005D01*
X43616Y-07081D01*
X43330Y-07157D01*
X44244Y-06624D02*
X44444Y-07424D01*
X44644Y-06624D01*
X45158Y-07424D02*
X44815Y-07424D01*
X44987Y-07424D02*
X44987Y-06624D01*
X44930Y-06738D01*
X44872Y-06814D01*
X44815Y-06852D01*
X45415Y-07348D02*
X45443Y-07386D01*
X45415Y-07424D01*
X45386Y-07386D01*
X45415Y-07348D01*
X45415Y-07424D01*
X45815Y-06624D02*
X45872Y-06624D01*
X45929Y-06662D01*
X45958Y-06700D01*
X45987Y-06776D01*
X46015Y-06929D01*
X46015Y-07119D01*
X45987Y-07271D01*
X45958Y-07348D01*
X45929Y-07386D01*
X45872Y-07424D01*
X45815Y-07424D01*
X45758Y-07386D01*
X45729Y-07348D01*
X45701Y-07271D01*
X45672Y-07119D01*
X45672Y-06929D01*
X45701Y-06776D01*
X45729Y-06700D01*
X45758Y-06662D01*
X45815Y-06624D01*
X41272Y-08664D02*
X41072Y-08283D01*
X40929Y-08664D02*
X40929Y-07864D01*
X41157Y-07864D01*
X41215Y-07902D01*
X41243Y-07940D01*
X41272Y-08016D01*
X41272Y-08130D01*
X41243Y-08207D01*
X41215Y-08245D01*
X41157Y-08283D01*
X40929Y-08283D01*
X41757Y-08626D02*
X41700Y-08664D01*
X41586Y-08664D01*
X41529Y-08626D01*
X41500Y-08550D01*
X41500Y-08245D01*
X41529Y-08169D01*
X41586Y-08130D01*
X41700Y-08130D01*
X41757Y-08169D01*
X41786Y-08245D01*
X41786Y-08321D01*
X41500Y-08397D01*
X41986Y-08130D02*
X42129Y-08664D01*
X42271Y-08130D01*
X43157Y-08245D02*
X43243Y-08283D01*
X43271Y-08321D01*
X43300Y-08397D01*
X43300Y-08511D01*
X43271Y-08588D01*
X43243Y-08626D01*
X43185Y-08664D01*
X42957Y-08664D01*
X42957Y-07864D01*
X43157Y-07864D01*
X43214Y-07902D01*
X43243Y-07940D01*
X43271Y-08016D01*
X43271Y-08092D01*
X43243Y-08169D01*
X43214Y-08207D01*
X43157Y-08245D01*
X42957Y-08245D01*
G54D11*
X64567Y-25591D02*
X64567Y-05906D01*
X16312Y-05906D02*
X16312Y-25591D01*
G54D13*
X62600Y-19800D02*
X62599Y-19809D01*
X62596Y-19819D01*
X62591Y-19827D01*
X62585Y-19835D01*
X62577Y-19841D01*
X62569Y-19846D01*
X62560Y-19848D01*
X62550Y-19849D01*
X62541Y-19849D01*
X62532Y-19846D01*
X62523Y-19841D01*
X62516Y-19835D01*
X62509Y-19828D01*
X62505Y-19819D01*
X62502Y-19810D01*
X62501Y-19800D01*
X62501Y-19791D01*
X62504Y-19782D01*
X62508Y-19773D01*
X62515Y-19766D01*
X62522Y-19759D01*
X62530Y-19755D01*
X62540Y-19752D01*
X62549Y-19751D01*
X62558Y-19751D01*
X62568Y-19754D01*
X62576Y-19758D01*
X62584Y-19764D01*
X62590Y-19772D01*
X62595Y-19780D01*
X62598Y-19789D01*
X62599Y-19799D01*
X62600Y-19800D01*
X63000Y-19800D02*
X62600Y-19800D01*
X62600Y-19800D02*
X62600Y-19200D01*
X62600Y-19200D02*
X63000Y-19200D01*
X63400Y-19200D02*
X63800Y-19200D01*
X63800Y-19200D02*
X63800Y-19800D01*
X63800Y-19800D02*
X63400Y-19800D01*
G54D14*
X22000Y-17700D02*
X22000Y-18200D01*
X22000Y-14700D02*
X22000Y-14200D01*
X22000Y-14700D02*
X22000Y-15000D01*
G54D12*
X22000Y-15000D02*
X21600Y-15000D01*
X21600Y-15000D02*
X21600Y-17400D01*
X21600Y-17400D02*
X22000Y-17400D01*
X22000Y-17400D02*
X22000Y-17700D01*
X22000Y-17400D02*
X22400Y-17400D01*
X22400Y-17400D02*
X22400Y-15000D01*
X22400Y-15000D02*
X22000Y-15000D01*
X21600Y-15200D02*
X22400Y-15200D01*
X22400Y-15300D02*
X21600Y-15300D01*
G54D14*
X28900Y-19200D02*
X28200Y-19200D01*
X30500Y-19200D02*
X31200Y-19200D01*
X29100Y-19600D02*
X29100Y-18800D01*
X30500Y-19600D02*
X30500Y-18800D01*
X30500Y-18800D02*
X28900Y-18800D01*
X28900Y-18800D02*
X28900Y-19600D01*
X28900Y-19600D02*
X30500Y-19600D01*
G54D10*
X43680Y-20190D02*
X43230Y-20190D01*
X43680Y-18010D02*
X43240Y-18010D01*
X43680Y-20190D02*
X43680Y-18010D01*
X42800Y-20660D02*
X42800Y-21090D01*
X40590Y-20670D02*
X40590Y-21090D01*
X40580Y-21090D02*
X42800Y-21100D01*
X40600Y-17120D02*
X42770Y-17110D01*
X40170Y-17810D02*
X40170Y-20640D01*
X42780Y-17120D02*
X42780Y-17530D01*
X40420Y-17570D02*
X43200Y-17570D01*
X43220Y-20650D02*
X43220Y-17610D01*
X40170Y-20650D02*
X43170Y-20650D01*
X39720Y-17980D02*
X39720Y-20200D01*
X39720Y-20200D02*
X40170Y-20200D01*
X40174Y-17800D02*
X40404Y-17570D01*
X39722Y-17980D02*
X40174Y-17980D01*
X40600Y-17570D02*
X40600Y-17118D01*
X40770Y-17974D02*
X40766Y-18010D01*
X40755Y-18045D01*
X40738Y-18078D01*
X40715Y-18106D01*
X40687Y-18129D01*
X40654Y-18147D01*
X40619Y-18158D01*
X40583Y-18161D01*
X40547Y-18158D01*
X40512Y-18148D01*
X40480Y-18131D01*
X40451Y-18108D01*
X40427Y-18080D01*
X40410Y-18048D01*
X40399Y-18013D01*
X40395Y-17976D01*
X40398Y-17941D01*
X40408Y-17905D01*
X40424Y-17873D01*
X40447Y-17844D01*
X40475Y-17820D01*
X40507Y-17802D01*
X40542Y-17791D01*
X40579Y-17787D01*
X40614Y-17789D01*
X40649Y-17799D01*
X40682Y-17816D01*
X40711Y-17838D01*
X40735Y-17866D01*
X40753Y-17898D01*
X40765Y-17933D01*
X40769Y-17969D01*
X40770Y-17974D01*
G54D13*
X32850Y-19250D02*
X32849Y-19259D01*
X32846Y-19269D01*
X32841Y-19277D01*
X32835Y-19285D01*
X32827Y-19291D01*
X32819Y-19296D01*
X32810Y-19298D01*
X32800Y-19299D01*
X32791Y-19299D01*
X32782Y-19296D01*
X32773Y-19291D01*
X32766Y-19285D01*
X32759Y-19278D01*
X32755Y-19269D01*
X32752Y-19260D01*
X32751Y-19250D01*
X32751Y-19241D01*
X32754Y-19232D01*
X32758Y-19223D01*
X32765Y-19216D01*
X32772Y-19209D01*
X32780Y-19205D01*
X32790Y-19202D01*
X32799Y-19201D01*
X32808Y-19201D01*
X32818Y-19204D01*
X32826Y-19208D01*
X32834Y-19214D01*
X32840Y-19222D01*
X32845Y-19230D01*
X32848Y-19239D01*
X32849Y-19249D01*
X32850Y-19250D01*
X32800Y-19700D02*
X32800Y-19300D01*
X32800Y-19300D02*
X33400Y-19300D01*
X33400Y-19300D02*
X33400Y-19700D01*
X33400Y-20100D02*
X33400Y-20500D01*
X33400Y-20500D02*
X32800Y-20500D01*
X32800Y-20500D02*
X32800Y-20100D01*
X33850Y-18350D02*
X33849Y-18359D01*
X33846Y-18369D01*
X33841Y-18377D01*
X33835Y-18385D01*
X33827Y-18391D01*
X33819Y-18396D01*
X33810Y-18398D01*
X33800Y-18399D01*
X33791Y-18399D01*
X33782Y-18396D01*
X33773Y-18391D01*
X33766Y-18385D01*
X33759Y-18378D01*
X33755Y-18369D01*
X33752Y-18360D01*
X33751Y-18350D01*
X33751Y-18341D01*
X33754Y-18332D01*
X33758Y-18323D01*
X33765Y-18316D01*
X33772Y-18309D01*
X33780Y-18305D01*
X33790Y-18302D01*
X33799Y-18301D01*
X33808Y-18301D01*
X33818Y-18304D01*
X33826Y-18308D01*
X33834Y-18314D01*
X33840Y-18322D01*
X33845Y-18330D01*
X33848Y-18339D01*
X33849Y-18349D01*
X33850Y-18350D01*
X33800Y-18800D02*
X33800Y-18400D01*
X33800Y-18400D02*
X34400Y-18400D01*
X34400Y-18400D02*
X34400Y-18800D01*
X34400Y-19200D02*
X34400Y-19600D01*
X34400Y-19600D02*
X33800Y-19600D01*
X33800Y-19600D02*
X33800Y-19200D01*
X50700Y-18900D02*
X50699Y-18909D01*
X50696Y-18919D01*
X50691Y-18927D01*
X50685Y-18935D01*
X50677Y-18941D01*
X50669Y-18946D01*
X50660Y-18948D01*
X50650Y-18949D01*
X50641Y-18949D01*
X50632Y-18946D01*
X50623Y-18941D01*
X50616Y-18935D01*
X50609Y-18928D01*
X50605Y-18919D01*
X50602Y-18910D01*
X50601Y-18900D01*
X50601Y-18891D01*
X50604Y-18882D01*
X50608Y-18873D01*
X50615Y-18866D01*
X50622Y-18859D01*
X50630Y-18855D01*
X50640Y-18852D01*
X50649Y-18851D01*
X50658Y-18851D01*
X50668Y-18854D01*
X50676Y-18858D01*
X50684Y-18864D01*
X50690Y-18872D01*
X50695Y-18880D01*
X50698Y-18889D01*
X50699Y-18899D01*
X50700Y-18900D01*
X51100Y-18900D02*
X50700Y-18900D01*
X50700Y-18900D02*
X50700Y-18300D01*
X50700Y-18300D02*
X51100Y-18300D01*
X51500Y-18300D02*
X51900Y-18300D01*
X51900Y-18300D02*
X51900Y-18900D01*
X51900Y-18900D02*
X51500Y-18900D01*
X52300Y-20450D02*
X52250Y-20450D01*
X52250Y-20450D02*
X52250Y-22550D01*
X53750Y-22550D02*
X53750Y-20450D01*
X53750Y-20450D02*
X52300Y-20450D01*
X53200Y-20450D02*
X53200Y-20650D01*
X53200Y-20650D02*
X52800Y-20650D01*
X52800Y-20650D02*
X52800Y-20450D01*
X53750Y-22550D02*
X52250Y-22550D01*
G54D11*
X23100Y-06100D02*
X23100Y-08100D01*
X23100Y-08100D02*
X35100Y-08100D01*
X35100Y-08100D02*
X35100Y-06100D01*
X35100Y-06100D02*
X23100Y-06100D01*
X35800Y-09000D02*
X35800Y-11000D01*
X35800Y-11000D02*
X47800Y-11000D01*
X47800Y-11000D02*
X47800Y-09000D01*
X47800Y-09000D02*
X35800Y-09000D01*
X48200Y-06100D02*
X48200Y-08100D01*
X48200Y-08100D02*
X60200Y-08100D01*
X60200Y-08100D02*
X60200Y-06100D01*
X60200Y-06100D02*
X48200Y-06100D01*
X49609Y-22184D02*
X50791Y-22184D01*
X50791Y-22184D02*
X50791Y-20216D01*
X50791Y-20216D02*
X49609Y-20216D01*
X49609Y-20216D02*
X49609Y-22184D01*
X20078Y-13831D02*
X20078Y-17769D01*
X20078Y-17769D02*
X17322Y-17769D01*
X17322Y-17769D02*
X17322Y-13831D01*
X17322Y-13831D02*
X20078Y-13831D01*
G54D13*
X49450Y-20850D02*
X49449Y-20859D01*
X49446Y-20869D01*
X49441Y-20877D01*
X49435Y-20885D01*
X49427Y-20891D01*
X49419Y-20896D01*
X49410Y-20898D01*
X49400Y-20899D01*
X49391Y-20899D01*
X49382Y-20896D01*
X49373Y-20891D01*
X49366Y-20885D01*
X49359Y-20878D01*
X49355Y-20869D01*
X49352Y-20860D01*
X49351Y-20850D01*
X49351Y-20841D01*
X49354Y-20832D01*
X49358Y-20823D01*
X49365Y-20816D01*
X49372Y-20809D01*
X49380Y-20805D01*
X49390Y-20802D01*
X49399Y-20801D01*
X49408Y-20801D01*
X49418Y-20804D01*
X49426Y-20808D01*
X49434Y-20814D01*
X49440Y-20822D01*
X49445Y-20830D01*
X49448Y-20839D01*
X49449Y-20849D01*
X49450Y-20850D01*
X49400Y-20400D02*
X49400Y-20800D01*
X49400Y-20800D02*
X48800Y-20800D01*
X48800Y-20800D02*
X48800Y-20400D01*
X48800Y-20000D02*
X48800Y-19600D01*
X48800Y-19600D02*
X49400Y-19600D01*
X49400Y-19600D02*
X49400Y-20000D01*
X49450Y-22650D02*
X49449Y-22659D01*
X49446Y-22669D01*
X49441Y-22677D01*
X49435Y-22685D01*
X49427Y-22691D01*
X49419Y-22696D01*
X49410Y-22698D01*
X49400Y-22699D01*
X49391Y-22699D01*
X49382Y-22696D01*
X49373Y-22691D01*
X49366Y-22685D01*
X49359Y-22678D01*
X49355Y-22669D01*
X49352Y-22660D01*
X49351Y-22650D01*
X49351Y-22641D01*
X49354Y-22632D01*
X49358Y-22623D01*
X49365Y-22616D01*
X49372Y-22609D01*
X49380Y-22605D01*
X49390Y-22602D01*
X49399Y-22601D01*
X49408Y-22601D01*
X49418Y-22604D01*
X49426Y-22608D01*
X49434Y-22614D01*
X49440Y-22622D01*
X49445Y-22630D01*
X49448Y-22639D01*
X49449Y-22649D01*
X49450Y-22650D01*
X49400Y-22200D02*
X49400Y-22600D01*
X49400Y-22600D02*
X48800Y-22600D01*
X48800Y-22600D02*
X48800Y-22200D01*
X48800Y-21800D02*
X48800Y-21400D01*
X48800Y-21400D02*
X49400Y-21400D01*
X49400Y-21400D02*
X49400Y-21800D01*
X56000Y-21700D02*
X55999Y-21709D01*
X55996Y-21719D01*
X55991Y-21727D01*
X55985Y-21735D01*
X55977Y-21741D01*
X55969Y-21746D01*
X55960Y-21748D01*
X55950Y-21749D01*
X55941Y-21749D01*
X55932Y-21746D01*
X55923Y-21741D01*
X55916Y-21735D01*
X55909Y-21728D01*
X55905Y-21719D01*
X55902Y-21710D01*
X55901Y-21700D01*
X55901Y-21691D01*
X55904Y-21682D01*
X55908Y-21673D01*
X55915Y-21666D01*
X55922Y-21659D01*
X55930Y-21655D01*
X55940Y-21652D01*
X55949Y-21651D01*
X55958Y-21651D01*
X55968Y-21654D01*
X55976Y-21658D01*
X55984Y-21664D01*
X55990Y-21672D01*
X55995Y-21680D01*
X55998Y-21689D01*
X55999Y-21699D01*
X56000Y-21700D01*
X55500Y-21700D02*
X55900Y-21700D01*
X55900Y-21700D02*
X55900Y-22300D01*
X55900Y-22300D02*
X55500Y-22300D01*
X55100Y-22300D02*
X54700Y-22300D01*
X54700Y-22300D02*
X54700Y-21700D01*
X54700Y-21700D02*
X55100Y-21700D01*
X54700Y-21500D02*
X54699Y-21509D01*
X54696Y-21519D01*
X54691Y-21527D01*
X54685Y-21535D01*
X54677Y-21541D01*
X54669Y-21546D01*
X54660Y-21548D01*
X54650Y-21549D01*
X54641Y-21549D01*
X54632Y-21546D01*
X54623Y-21541D01*
X54616Y-21535D01*
X54609Y-21528D01*
X54605Y-21519D01*
X54602Y-21510D01*
X54601Y-21500D01*
X54601Y-21491D01*
X54604Y-21482D01*
X54608Y-21473D01*
X54615Y-21466D01*
X54622Y-21459D01*
X54630Y-21455D01*
X54640Y-21452D01*
X54649Y-21451D01*
X54658Y-21451D01*
X54668Y-21454D01*
X54676Y-21458D01*
X54684Y-21464D01*
X54690Y-21472D01*
X54695Y-21480D01*
X54698Y-21489D01*
X54699Y-21499D01*
X54700Y-21500D01*
X55100Y-21500D02*
X54700Y-21500D01*
X54700Y-21500D02*
X54700Y-20900D01*
X54700Y-20900D02*
X55100Y-20900D01*
X55500Y-20900D02*
X55900Y-20900D01*
X55900Y-20900D02*
X55900Y-21500D01*
X55900Y-21500D02*
X55500Y-21500D01*
X54700Y-23100D02*
X54699Y-23109D01*
X54696Y-23119D01*
X54691Y-23127D01*
X54685Y-23135D01*
X54677Y-23141D01*
X54669Y-23146D01*
X54660Y-23148D01*
X54650Y-23149D01*
X54641Y-23149D01*
X54632Y-23146D01*
X54623Y-23141D01*
X54616Y-23135D01*
X54609Y-23128D01*
X54605Y-23119D01*
X54602Y-23110D01*
X54601Y-23100D01*
X54601Y-23091D01*
X54604Y-23082D01*
X54608Y-23073D01*
X54615Y-23066D01*
X54622Y-23059D01*
X54630Y-23055D01*
X54640Y-23052D01*
X54649Y-23051D01*
X54658Y-23051D01*
X54668Y-23054D01*
X54676Y-23058D01*
X54684Y-23064D01*
X54690Y-23072D01*
X54695Y-23080D01*
X54698Y-23089D01*
X54699Y-23099D01*
X54700Y-23100D01*
X55100Y-23100D02*
X54700Y-23100D01*
X54700Y-23100D02*
X54700Y-22500D01*
X54700Y-22500D02*
X55100Y-22500D01*
X55500Y-22500D02*
X55900Y-22500D01*
X55900Y-22500D02*
X55900Y-23100D01*
X55900Y-23100D02*
X55500Y-23100D01*
X54700Y-23900D02*
X54699Y-23909D01*
X54696Y-23919D01*
X54691Y-23927D01*
X54685Y-23935D01*
X54677Y-23941D01*
X54669Y-23946D01*
X54660Y-23948D01*
X54650Y-23949D01*
X54641Y-23949D01*
X54632Y-23946D01*
X54623Y-23941D01*
X54616Y-23935D01*
X54609Y-23928D01*
X54605Y-23919D01*
X54602Y-23910D01*
X54601Y-23900D01*
X54601Y-23891D01*
X54604Y-23882D01*
X54608Y-23873D01*
X54615Y-23866D01*
X54622Y-23859D01*
X54630Y-23855D01*
X54640Y-23852D01*
X54649Y-23851D01*
X54658Y-23851D01*
X54668Y-23854D01*
X54676Y-23858D01*
X54684Y-23864D01*
X54690Y-23872D01*
X54695Y-23880D01*
X54698Y-23889D01*
X54699Y-23899D01*
X54700Y-23900D01*
X55100Y-23900D02*
X54700Y-23900D01*
X54700Y-23900D02*
X54700Y-23300D01*
X54700Y-23300D02*
X55100Y-23300D01*
X55500Y-23300D02*
X55900Y-23300D01*
X55900Y-23300D02*
X55900Y-23900D01*
X55900Y-23900D02*
X55500Y-23900D01*
X53100Y-18200D02*
X53099Y-18209D01*
X53096Y-18219D01*
X53091Y-18227D01*
X53085Y-18235D01*
X53077Y-18241D01*
X53069Y-18246D01*
X53060Y-18248D01*
X53050Y-18249D01*
X53041Y-18249D01*
X53032Y-18246D01*
X53023Y-18241D01*
X53016Y-18235D01*
X53009Y-18228D01*
X53005Y-18219D01*
X53002Y-18210D01*
X53001Y-18200D01*
X53001Y-18191D01*
X53004Y-18182D01*
X53008Y-18173D01*
X53015Y-18166D01*
X53022Y-18159D01*
X53030Y-18155D01*
X53040Y-18152D01*
X53049Y-18151D01*
X53058Y-18151D01*
X53068Y-18154D01*
X53076Y-18158D01*
X53084Y-18164D01*
X53090Y-18172D01*
X53095Y-18180D01*
X53098Y-18189D01*
X53099Y-18199D01*
X53100Y-18200D01*
X53500Y-18200D02*
X53100Y-18200D01*
X53100Y-18200D02*
X53100Y-17600D01*
X53100Y-17600D02*
X53500Y-17600D01*
X53900Y-17600D02*
X54300Y-17600D01*
X54300Y-17600D02*
X54300Y-18200D01*
X54300Y-18200D02*
X53900Y-18200D01*
G54D12*
X63000Y-18700D02*
X63000Y-10700D01*
X63000Y-10700D02*
X64000Y-10700D01*
X64000Y-10700D02*
X64000Y-18700D01*
X64000Y-18700D02*
X63000Y-18700D01*
X64000Y-17700D02*
X63000Y-17700D01*
X21100Y-19700D02*
X26100Y-19700D01*
X26100Y-19700D02*
X26100Y-20700D01*
X26100Y-20700D02*
X21100Y-20700D01*
X26100Y-20200D02*
X26600Y-20200D01*
X20600Y-20200D02*
X21100Y-20200D01*
X21100Y-20000D02*
X21400Y-19700D01*
X21100Y-19700D02*
X21100Y-20700D01*
G54D15*
X46900Y-24800D02*
X43900Y-24800D01*
X43900Y-22800D02*
X46900Y-22800D01*
X46900Y-22800D02*
X46900Y-24800D01*
X43900Y-24800D02*
X43900Y-22800D01*
G54D13*
X35700Y-22400D02*
X35699Y-22409D01*
X35696Y-22419D01*
X35691Y-22427D01*
X35685Y-22435D01*
X35677Y-22441D01*
X35669Y-22446D01*
X35660Y-22448D01*
X35650Y-22449D01*
X35641Y-22449D01*
X35632Y-22446D01*
X35623Y-22441D01*
X35616Y-22435D01*
X35609Y-22428D01*
X35605Y-22419D01*
X35602Y-22410D01*
X35601Y-22400D01*
X35601Y-22391D01*
X35604Y-22382D01*
X35608Y-22373D01*
X35615Y-22366D01*
X35622Y-22359D01*
X35630Y-22355D01*
X35640Y-22352D01*
X35649Y-22351D01*
X35658Y-22351D01*
X35668Y-22354D01*
X35676Y-22358D01*
X35684Y-22364D01*
X35690Y-22372D01*
X35695Y-22380D01*
X35698Y-22389D01*
X35699Y-22399D01*
X35700Y-22400D01*
X36100Y-22400D02*
X35700Y-22400D01*
X35700Y-22400D02*
X35700Y-21800D01*
X35700Y-21800D02*
X36100Y-21800D01*
X36500Y-21800D02*
X36900Y-21800D01*
X36900Y-21800D02*
X36900Y-22400D01*
X36900Y-22400D02*
X36500Y-22400D01*
G54D11*
X30315Y-25069D02*
X19685Y-25069D01*
X19685Y-25069D02*
X19685Y-21131D01*
X19685Y-21131D02*
X30315Y-21131D01*
X30315Y-21131D02*
X30315Y-25069D01*
X23062Y-11200D02*
X23017Y-11658D01*
X22883Y-12100D01*
X22667Y-12507D01*
X22376Y-12864D01*
X22020Y-13158D01*
X21615Y-13377D01*
X21174Y-13513D01*
X20716Y-13561D01*
X20258Y-13520D01*
X19816Y-13390D01*
X19407Y-13176D01*
X19048Y-12887D01*
X18752Y-12534D01*
X18530Y-12130D01*
X18390Y-11691D01*
X18339Y-11232D01*
X18377Y-10774D01*
X18504Y-10331D01*
X18715Y-09921D01*
X19001Y-09560D01*
X19352Y-09261D01*
X19755Y-09036D01*
X20193Y-08894D01*
X20651Y-08839D01*
X21110Y-08874D01*
X21554Y-08998D01*
X21965Y-09206D01*
X22328Y-09490D01*
X22630Y-09839D01*
X22857Y-10240D01*
X23003Y-10677D01*
X23061Y-11135D01*
X23062Y-11200D01*
G54D15*
X33800Y-23200D02*
X33769Y-23510D01*
X33679Y-23809D01*
X33532Y-24085D01*
X33335Y-24327D01*
X33094Y-24526D01*
X32820Y-24674D01*
X32521Y-24767D01*
X32211Y-24799D01*
X31901Y-24771D01*
X31601Y-24683D01*
X31324Y-24538D01*
X31081Y-24343D01*
X30880Y-24103D01*
X30730Y-23830D01*
X30635Y-23532D01*
X30601Y-23222D01*
X30627Y-22912D01*
X30713Y-22612D01*
X30856Y-22334D01*
X31050Y-22089D01*
X31287Y-21887D01*
X31560Y-21734D01*
X31857Y-21638D01*
X32167Y-21601D01*
X32477Y-21625D01*
X32778Y-21709D01*
X33057Y-21850D01*
X33303Y-22042D01*
X33507Y-22278D01*
X33661Y-22550D01*
X33760Y-22846D01*
X33799Y-23156D01*
X33800Y-23200D01*
G54D14*
X28700Y-20300D02*
X28200Y-20300D01*
X31700Y-20300D02*
X32200Y-20300D01*
X31700Y-20300D02*
X31400Y-20300D01*
G54D12*
X31400Y-20300D02*
X31400Y-19900D01*
X31400Y-19900D02*
X29000Y-19900D01*
X29000Y-19900D02*
X29000Y-20300D01*
X29000Y-20300D02*
X28700Y-20300D01*
X29000Y-20300D02*
X29000Y-20700D01*
X29000Y-20700D02*
X31400Y-20700D01*
X31400Y-20700D02*
X31400Y-20300D01*
X31200Y-19900D02*
X31200Y-20700D01*
X31100Y-20700D02*
X31100Y-19900D01*
G54D11*
X53791Y-19536D02*
X53555Y-19536D01*
X53555Y-19536D02*
X53555Y-18906D01*
X53555Y-18906D02*
X53713Y-18906D01*
X55287Y-18906D02*
X55445Y-18906D01*
X55445Y-18906D02*
X55445Y-19536D01*
X55445Y-19536D02*
X55209Y-19536D01*
G54D12*
X41900Y-23800D02*
X41900Y-24800D01*
X41900Y-24800D02*
X35900Y-24800D01*
X35900Y-24800D02*
X35900Y-23800D01*
X35900Y-23800D02*
X41900Y-23800D01*
X40900Y-23800D02*
X40900Y-24800D01*
X49000Y-24800D02*
X49000Y-23800D01*
X49000Y-23800D02*
X51000Y-23800D01*
X51000Y-23800D02*
X51000Y-24800D01*
X51000Y-24800D02*
X49000Y-24800D01*
X52100Y-24800D02*
X52100Y-23800D01*
X52100Y-23800D02*
X54100Y-23800D01*
X54100Y-23800D02*
X54100Y-24800D01*
X54100Y-24800D02*
X52100Y-24800D01*
G54D13*
X38550Y-19250D02*
X38549Y-19259D01*
X38546Y-19269D01*
X38541Y-19277D01*
X38535Y-19285D01*
X38527Y-19291D01*
X38519Y-19296D01*
X38510Y-19298D01*
X38500Y-19299D01*
X38491Y-19299D01*
X38482Y-19296D01*
X38473Y-19291D01*
X38466Y-19285D01*
X38459Y-19278D01*
X38455Y-19269D01*
X38452Y-19260D01*
X38451Y-19250D01*
X38451Y-19241D01*
X38454Y-19232D01*
X38458Y-19223D01*
X38465Y-19216D01*
X38472Y-19209D01*
X38480Y-19205D01*
X38490Y-19202D01*
X38499Y-19201D01*
X38508Y-19201D01*
X38518Y-19204D01*
X38526Y-19208D01*
X38534Y-19214D01*
X38540Y-19222D01*
X38545Y-19230D01*
X38548Y-19239D01*
X38549Y-19249D01*
X38550Y-19250D01*
X38500Y-19700D02*
X38500Y-19300D01*
X38500Y-19300D02*
X39100Y-19300D01*
X39100Y-19300D02*
X39100Y-19700D01*
X39100Y-20100D02*
X39100Y-20500D01*
X39100Y-20500D02*
X38500Y-20500D01*
X38500Y-20500D02*
X38500Y-20100D01*
G54D12*
X35370Y-17070D02*
X31430Y-17070D01*
X31430Y-17070D02*
X31430Y-13130D01*
X35180Y-13130D02*
X31430Y-13130D01*
X35370Y-13320D02*
X35370Y-17070D01*
X35180Y-13130D02*
X35370Y-13320D01*
G54D15*
X35150Y-13600D02*
X35145Y-13648D01*
X35131Y-13695D01*
X35108Y-13738D01*
X35077Y-13776D01*
X35039Y-13807D01*
X34996Y-13830D01*
X34950Y-13844D01*
X34901Y-13849D01*
X34854Y-13845D01*
X34807Y-13831D01*
X34764Y-13809D01*
X34726Y-13778D01*
X34694Y-13741D01*
X34671Y-13698D01*
X34656Y-13651D01*
X34651Y-13603D01*
X34655Y-13555D01*
X34668Y-13508D01*
X34690Y-13465D01*
X34721Y-13427D01*
X34758Y-13395D01*
X34800Y-13371D01*
X34847Y-13356D01*
X34895Y-13351D01*
X34943Y-13354D01*
X34990Y-13367D01*
X35033Y-13389D01*
X35072Y-13419D01*
X35104Y-13456D01*
X35128Y-13499D01*
X35143Y-13545D01*
X35149Y-13594D01*
X35150Y-13600D01*
G54D12*
X52070Y-17070D02*
X48130Y-17070D01*
X48130Y-17070D02*
X48130Y-13130D01*
X51880Y-13130D02*
X48130Y-13130D01*
X52070Y-13320D02*
X52070Y-17070D01*
X51880Y-13130D02*
X52070Y-13320D01*
G54D15*
X51850Y-13600D02*
X51845Y-13648D01*
X51831Y-13695D01*
X51808Y-13738D01*
X51777Y-13776D01*
X51739Y-13807D01*
X51696Y-13830D01*
X51650Y-13844D01*
X51601Y-13849D01*
X51554Y-13845D01*
X51507Y-13831D01*
X51464Y-13809D01*
X51426Y-13778D01*
X51394Y-13741D01*
X51371Y-13698D01*
X51356Y-13651D01*
X51351Y-13603D01*
X51355Y-13555D01*
X51368Y-13508D01*
X51390Y-13465D01*
X51421Y-13427D01*
X51458Y-13395D01*
X51500Y-13371D01*
X51547Y-13356D01*
X51595Y-13351D01*
X51643Y-13354D01*
X51690Y-13367D01*
X51733Y-13389D01*
X51772Y-13419D01*
X51804Y-13456D01*
X51828Y-13499D01*
X51843Y-13545D01*
X51849Y-13594D01*
X51850Y-13600D01*
G54D11*
X18700Y-07400D02*
X18682Y-07574D01*
X18632Y-07742D01*
X18549Y-07898D01*
X18438Y-08034D01*
X18303Y-08146D01*
X18148Y-08229D01*
X17980Y-08281D01*
X17806Y-08299D01*
X17632Y-08284D01*
X17463Y-08234D01*
X17308Y-08153D01*
X17171Y-08043D01*
X17058Y-07908D01*
X16973Y-07754D01*
X16920Y-07587D01*
X16901Y-07412D01*
X16915Y-07238D01*
X16964Y-07069D01*
X17044Y-06913D01*
X17153Y-06775D01*
X17287Y-06661D01*
X17440Y-06576D01*
X17607Y-06521D01*
X17782Y-06501D01*
X17956Y-06514D01*
X18125Y-06561D01*
X18282Y-06641D01*
X18420Y-06749D01*
X18535Y-06882D01*
X18622Y-07034D01*
X18677Y-07201D01*
X18699Y-07375D01*
X18700Y-07400D01*
X18700Y-24100D02*
X18682Y-24274D01*
X18632Y-24442D01*
X18549Y-24598D01*
X18438Y-24734D01*
X18303Y-24846D01*
X18148Y-24929D01*
X17980Y-24981D01*
X17806Y-24999D01*
X17632Y-24984D01*
X17463Y-24934D01*
X17308Y-24853D01*
X17171Y-24743D01*
X17058Y-24608D01*
X16973Y-24454D01*
X16920Y-24287D01*
X16901Y-24112D01*
X16915Y-23938D01*
X16964Y-23769D01*
X17044Y-23613D01*
X17153Y-23475D01*
X17287Y-23361D01*
X17440Y-23276D01*
X17607Y-23221D01*
X17782Y-23201D01*
X17956Y-23214D01*
X18125Y-23261D01*
X18282Y-23341D01*
X18420Y-23449D01*
X18535Y-23582D01*
X18622Y-23734D01*
X18677Y-23901D01*
X18699Y-24075D01*
X18700Y-24100D01*
X63900Y-07400D02*
X63882Y-07574D01*
X63832Y-07742D01*
X63749Y-07898D01*
X63638Y-08034D01*
X63503Y-08146D01*
X63348Y-08229D01*
X63180Y-08281D01*
X63006Y-08299D01*
X62832Y-08284D01*
X62663Y-08234D01*
X62508Y-08153D01*
X62371Y-08043D01*
X62258Y-07908D01*
X62173Y-07754D01*
X62120Y-07587D01*
X62101Y-07412D01*
X62115Y-07238D01*
X62164Y-07069D01*
X62244Y-06913D01*
X62353Y-06775D01*
X62487Y-06661D01*
X62640Y-06576D01*
X62807Y-06521D01*
X62982Y-06501D01*
X63156Y-06514D01*
X63325Y-06561D01*
X63482Y-06641D01*
X63620Y-06749D01*
X63735Y-06882D01*
X63822Y-07034D01*
X63877Y-07201D01*
X63899Y-07375D01*
X63900Y-07400D01*
X64000Y-24100D02*
X63982Y-24274D01*
X63932Y-24442D01*
X63849Y-24598D01*
X63738Y-24734D01*
X63603Y-24846D01*
X63448Y-24929D01*
X63280Y-24981D01*
X63106Y-24999D01*
X62932Y-24984D01*
X62763Y-24934D01*
X62608Y-24853D01*
X62471Y-24743D01*
X62358Y-24608D01*
X62273Y-24454D01*
X62220Y-24287D01*
X62201Y-24112D01*
X62215Y-23938D01*
X62264Y-23769D01*
X62344Y-23613D01*
X62453Y-23475D01*
X62587Y-23361D01*
X62740Y-23276D01*
X62907Y-23221D01*
X63082Y-23201D01*
X63256Y-23214D01*
X63425Y-23261D01*
X63582Y-23341D01*
X63720Y-23449D01*
X63835Y-23582D01*
X63922Y-23734D01*
X63977Y-23901D01*
X63999Y-24075D01*
X64000Y-24100D01*
G54D13*
X63158Y-20277D02*
X63146Y-20289D01*
X63111Y-20301D01*
X63087Y-20301D01*
X63051Y-20289D01*
X63027Y-20265D01*
X63016Y-20242D01*
X63004Y-20194D01*
X63004Y-20158D01*
X63016Y-20111D01*
X63027Y-20087D01*
X63051Y-20063D01*
X63087Y-20051D01*
X63111Y-20051D01*
X63146Y-20063D01*
X63158Y-20075D01*
X63301Y-20158D02*
X63277Y-20146D01*
X63266Y-20135D01*
X63254Y-20111D01*
X63254Y-20099D01*
X63266Y-20075D01*
X63277Y-20063D01*
X63301Y-20051D01*
X63349Y-20051D01*
X63373Y-20063D01*
X63385Y-20075D01*
X63396Y-20099D01*
X63396Y-20111D01*
X63385Y-20135D01*
X63373Y-20146D01*
X63349Y-20158D01*
X63301Y-20158D01*
X63277Y-20170D01*
X63266Y-20182D01*
X63254Y-20206D01*
X63254Y-20254D01*
X63266Y-20277D01*
X63277Y-20289D01*
X63301Y-20301D01*
X63349Y-20301D01*
X63373Y-20289D01*
X63385Y-20277D01*
X63396Y-20254D01*
X63396Y-20206D01*
X63385Y-20182D01*
X63373Y-20170D01*
X63349Y-20158D01*
G54D15*
X22962Y-16495D02*
X22562Y-16495D01*
X22562Y-16400D01*
X22581Y-16342D01*
X22619Y-16304D01*
X22657Y-16285D01*
X22733Y-16266D01*
X22790Y-16266D01*
X22867Y-16285D01*
X22905Y-16304D01*
X22943Y-16342D01*
X22962Y-16400D01*
X22962Y-16495D01*
X22962Y-15885D02*
X22962Y-16114D01*
X22962Y-16000D02*
X22562Y-16000D01*
X22619Y-16038D01*
X22657Y-16076D01*
X22676Y-16114D01*
X29405Y-18662D02*
X29405Y-18262D01*
X29500Y-18262D01*
X29558Y-18281D01*
X29596Y-18319D01*
X29615Y-18357D01*
X29634Y-18433D01*
X29634Y-18490D01*
X29615Y-18567D01*
X29596Y-18605D01*
X29558Y-18643D01*
X29500Y-18662D01*
X29405Y-18662D01*
X29786Y-18300D02*
X29805Y-18281D01*
X29843Y-18262D01*
X29939Y-18262D01*
X29977Y-18281D01*
X29996Y-18300D01*
X30015Y-18338D01*
X30015Y-18376D01*
X29996Y-18433D01*
X29767Y-18662D01*
X30015Y-18662D01*
X41210Y-16402D02*
X41210Y-15902D01*
X41629Y-16355D02*
X41610Y-16379D01*
X41553Y-16402D01*
X41515Y-16402D01*
X41457Y-16379D01*
X41419Y-16331D01*
X41400Y-16283D01*
X41381Y-16188D01*
X41381Y-16117D01*
X41400Y-16021D01*
X41419Y-15974D01*
X41457Y-15926D01*
X41515Y-15902D01*
X41553Y-15902D01*
X41610Y-15926D01*
X41629Y-15950D01*
X42010Y-16402D02*
X41781Y-16402D01*
X41895Y-16402D02*
X41895Y-15902D01*
X41857Y-15974D01*
X41819Y-16021D01*
X41781Y-16045D01*
G54D13*
X34001Y-20342D02*
X33882Y-20425D01*
X34001Y-20484D02*
X33751Y-20484D01*
X33751Y-20389D01*
X33763Y-20365D01*
X33775Y-20354D01*
X33799Y-20342D01*
X33835Y-20342D01*
X33858Y-20354D01*
X33870Y-20365D01*
X33882Y-20389D01*
X33882Y-20484D01*
X33751Y-20258D02*
X33751Y-20092D01*
X34001Y-20199D01*
X34458Y-19977D02*
X34446Y-19989D01*
X34411Y-20001D01*
X34387Y-20001D01*
X34351Y-19989D01*
X34327Y-19965D01*
X34316Y-19942D01*
X34304Y-19894D01*
X34304Y-19858D01*
X34316Y-19811D01*
X34327Y-19787D01*
X34351Y-19763D01*
X34387Y-19751D01*
X34411Y-19751D01*
X34446Y-19763D01*
X34458Y-19775D01*
X34696Y-20001D02*
X34554Y-20001D01*
X34625Y-20001D02*
X34625Y-19751D01*
X34601Y-19787D01*
X34577Y-19811D01*
X34554Y-19823D01*
X51258Y-19277D02*
X51246Y-19289D01*
X51211Y-19301D01*
X51187Y-19301D01*
X51151Y-19289D01*
X51127Y-19265D01*
X51116Y-19242D01*
X51104Y-19194D01*
X51104Y-19158D01*
X51116Y-19111D01*
X51127Y-19087D01*
X51151Y-19063D01*
X51187Y-19051D01*
X51211Y-19051D01*
X51246Y-19063D01*
X51258Y-19075D01*
X51354Y-19075D02*
X51366Y-19063D01*
X51389Y-19051D01*
X51449Y-19051D01*
X51473Y-19063D01*
X51485Y-19075D01*
X51496Y-19099D01*
X51496Y-19123D01*
X51485Y-19158D01*
X51342Y-19301D01*
X51496Y-19301D01*
G54D10*
X51357Y-19832D02*
X51357Y-20196D01*
X51379Y-20239D01*
X51400Y-20261D01*
X51443Y-20282D01*
X51529Y-20282D01*
X51571Y-20261D01*
X51593Y-20239D01*
X51614Y-20196D01*
X51614Y-19832D01*
X51785Y-19832D02*
X52064Y-19832D01*
X51914Y-20004D01*
X51978Y-20004D01*
X52021Y-20025D01*
X52042Y-20046D01*
X52064Y-20089D01*
X52064Y-20196D01*
X52042Y-20239D01*
X52021Y-20261D01*
X51978Y-20282D01*
X51850Y-20282D01*
X51807Y-20261D01*
X51785Y-20239D01*
G54D16*
X28305Y-08862D02*
X28305Y-08462D01*
X28458Y-08462D01*
X28496Y-08481D01*
X28515Y-08500D01*
X28534Y-08538D01*
X28534Y-08595D01*
X28515Y-08633D01*
X28496Y-08652D01*
X28458Y-08671D01*
X28305Y-08671D01*
X28915Y-08862D02*
X28686Y-08862D01*
X28800Y-08862D02*
X28800Y-08462D01*
X28762Y-08519D01*
X28724Y-08557D01*
X28686Y-08576D01*
X41005Y-11862D02*
X41005Y-11462D01*
X41158Y-11462D01*
X41196Y-11481D01*
X41215Y-11500D01*
X41234Y-11538D01*
X41234Y-11595D01*
X41215Y-11633D01*
X41196Y-11652D01*
X41158Y-11671D01*
X41005Y-11671D01*
X41386Y-11500D02*
X41405Y-11481D01*
X41443Y-11462D01*
X41539Y-11462D01*
X41577Y-11481D01*
X41596Y-11500D01*
X41615Y-11538D01*
X41615Y-11576D01*
X41596Y-11633D01*
X41367Y-11862D01*
X41615Y-11862D01*
X53905Y-09262D02*
X53905Y-08862D01*
X54058Y-08862D01*
X54096Y-08881D01*
X54115Y-08900D01*
X54134Y-08938D01*
X54134Y-08995D01*
X54115Y-09033D01*
X54096Y-09052D01*
X54058Y-09071D01*
X53905Y-09071D01*
X54267Y-08862D02*
X54515Y-08862D01*
X54381Y-09014D01*
X54439Y-09014D01*
X54477Y-09033D01*
X54496Y-09052D01*
X54515Y-09090D01*
X54515Y-09186D01*
X54496Y-09224D01*
X54477Y-09243D01*
X54439Y-09262D01*
X54324Y-09262D01*
X54286Y-09243D01*
X54267Y-09224D01*
G54D12*
X49715Y-19143D02*
X50115Y-19743D01*
X50115Y-19143D02*
X49715Y-19743D01*
X50657Y-19743D02*
X50314Y-19743D01*
X50486Y-19743D02*
X50486Y-19143D01*
X50429Y-19229D01*
X50371Y-19286D01*
X50314Y-19314D01*
G54D17*
X18875Y-18616D02*
X18194Y-18616D01*
X18194Y-18453D01*
X18227Y-18412D01*
X18259Y-18392D01*
X18324Y-18372D01*
X18421Y-18372D01*
X18486Y-18392D01*
X18518Y-18412D01*
X18551Y-18453D01*
X18551Y-18616D01*
X18421Y-18005D02*
X18875Y-18005D01*
X18162Y-18107D02*
X18648Y-18208D01*
X18648Y-17944D01*
G54D13*
X48577Y-20161D02*
X48589Y-20173D01*
X48601Y-20208D01*
X48601Y-20232D01*
X48589Y-20268D01*
X48565Y-20292D01*
X48542Y-20303D01*
X48494Y-20315D01*
X48458Y-20315D01*
X48411Y-20303D01*
X48387Y-20292D01*
X48363Y-20268D01*
X48351Y-20232D01*
X48351Y-20208D01*
X48363Y-20173D01*
X48375Y-20161D01*
X48601Y-19923D02*
X48601Y-20065D01*
X48601Y-19994D02*
X48351Y-19994D01*
X48387Y-20018D01*
X48411Y-20042D01*
X48423Y-20065D01*
X48351Y-19768D02*
X48351Y-19744D01*
X48363Y-19720D01*
X48375Y-19708D01*
X48399Y-19696D01*
X48446Y-19685D01*
X48506Y-19685D01*
X48554Y-19696D01*
X48577Y-19708D01*
X48589Y-19720D01*
X48601Y-19744D01*
X48601Y-19768D01*
X48589Y-19792D01*
X48577Y-19804D01*
X48554Y-19815D01*
X48506Y-19827D01*
X48446Y-19827D01*
X48399Y-19815D01*
X48375Y-19804D01*
X48363Y-19792D01*
X48351Y-19768D01*
X48577Y-21961D02*
X48589Y-21973D01*
X48601Y-22008D01*
X48601Y-22032D01*
X48589Y-22068D01*
X48565Y-22092D01*
X48542Y-22103D01*
X48494Y-22115D01*
X48458Y-22115D01*
X48411Y-22103D01*
X48387Y-22092D01*
X48363Y-22068D01*
X48351Y-22032D01*
X48351Y-22008D01*
X48363Y-21973D01*
X48375Y-21961D01*
X48601Y-21723D02*
X48601Y-21865D01*
X48601Y-21794D02*
X48351Y-21794D01*
X48387Y-21818D01*
X48411Y-21842D01*
X48423Y-21865D01*
X48601Y-21485D02*
X48601Y-21627D01*
X48601Y-21556D02*
X48351Y-21556D01*
X48387Y-21580D01*
X48411Y-21604D01*
X48423Y-21627D01*
X56158Y-22401D02*
X56075Y-22282D01*
X56016Y-22401D02*
X56016Y-22151D01*
X56111Y-22151D01*
X56135Y-22163D01*
X56146Y-22175D01*
X56158Y-22199D01*
X56158Y-22235D01*
X56146Y-22258D01*
X56135Y-22270D01*
X56111Y-22282D01*
X56016Y-22282D01*
X56254Y-22175D02*
X56266Y-22163D01*
X56289Y-22151D01*
X56349Y-22151D01*
X56373Y-22163D01*
X56385Y-22175D01*
X56396Y-22199D01*
X56396Y-22223D01*
X56385Y-22258D01*
X56242Y-22401D01*
X56396Y-22401D01*
X56158Y-21001D02*
X56075Y-20882D01*
X56016Y-21001D02*
X56016Y-20751D01*
X56111Y-20751D01*
X56135Y-20763D01*
X56146Y-20775D01*
X56158Y-20799D01*
X56158Y-20835D01*
X56146Y-20858D01*
X56135Y-20870D01*
X56111Y-20882D01*
X56016Y-20882D01*
X56242Y-20751D02*
X56396Y-20751D01*
X56313Y-20846D01*
X56349Y-20846D01*
X56373Y-20858D01*
X56385Y-20870D01*
X56396Y-20894D01*
X56396Y-20954D01*
X56385Y-20977D01*
X56373Y-20989D01*
X56349Y-21001D01*
X56277Y-21001D01*
X56254Y-20989D01*
X56242Y-20977D01*
X56158Y-23201D02*
X56075Y-23082D01*
X56016Y-23201D02*
X56016Y-22951D01*
X56111Y-22951D01*
X56135Y-22963D01*
X56146Y-22975D01*
X56158Y-22999D01*
X56158Y-23035D01*
X56146Y-23058D01*
X56135Y-23070D01*
X56111Y-23082D01*
X56016Y-23082D01*
X56373Y-23035D02*
X56373Y-23201D01*
X56313Y-22939D02*
X56254Y-23118D01*
X56408Y-23118D01*
X56158Y-24001D02*
X56075Y-23882D01*
X56016Y-24001D02*
X56016Y-23751D01*
X56111Y-23751D01*
X56135Y-23763D01*
X56146Y-23775D01*
X56158Y-23799D01*
X56158Y-23835D01*
X56146Y-23858D01*
X56135Y-23870D01*
X56111Y-23882D01*
X56016Y-23882D01*
X56385Y-23751D02*
X56266Y-23751D01*
X56254Y-23870D01*
X56266Y-23858D01*
X56289Y-23846D01*
X56349Y-23846D01*
X56373Y-23858D01*
X56385Y-23870D01*
X56396Y-23894D01*
X56396Y-23954D01*
X56385Y-23977D01*
X56373Y-23989D01*
X56349Y-24001D01*
X56289Y-24001D01*
X56266Y-23989D01*
X56254Y-23977D01*
X54658Y-17601D02*
X54575Y-17482D01*
X54516Y-17601D02*
X54516Y-17351D01*
X54611Y-17351D01*
X54635Y-17363D01*
X54646Y-17375D01*
X54658Y-17399D01*
X54658Y-17435D01*
X54646Y-17458D01*
X54635Y-17470D01*
X54611Y-17482D01*
X54516Y-17482D01*
X54873Y-17351D02*
X54825Y-17351D01*
X54801Y-17363D01*
X54789Y-17375D01*
X54766Y-17411D01*
X54754Y-17458D01*
X54754Y-17554D01*
X54766Y-17577D01*
X54777Y-17589D01*
X54801Y-17601D01*
X54849Y-17601D01*
X54873Y-17589D01*
X54885Y-17577D01*
X54896Y-17554D01*
X54896Y-17494D01*
X54885Y-17470D01*
X54873Y-17458D01*
X54849Y-17446D01*
X54801Y-17446D01*
X54777Y-17458D01*
X54766Y-17470D01*
X54754Y-17494D01*
G54D17*
X62775Y-15316D02*
X62094Y-15316D01*
X62094Y-15153D01*
X62127Y-15112D01*
X62159Y-15092D01*
X62224Y-15072D01*
X62321Y-15072D01*
X62386Y-15092D01*
X62418Y-15112D01*
X62451Y-15153D01*
X62451Y-15316D01*
X62094Y-14684D02*
X62094Y-14888D01*
X62418Y-14908D01*
X62386Y-14888D01*
X62354Y-14847D01*
X62354Y-14745D01*
X62386Y-14705D01*
X62418Y-14684D01*
X62483Y-14664D01*
X62645Y-14664D01*
X62710Y-14684D01*
X62743Y-14705D01*
X62775Y-14745D01*
X62775Y-14847D01*
X62743Y-14888D01*
X62710Y-14908D01*
G54D15*
X23517Y-19423D02*
X23350Y-19161D01*
X23231Y-19423D02*
X23231Y-18873D01*
X23422Y-18873D01*
X23469Y-18899D01*
X23493Y-18925D01*
X23517Y-18977D01*
X23517Y-19056D01*
X23493Y-19108D01*
X23469Y-19135D01*
X23422Y-19161D01*
X23231Y-19161D01*
X23993Y-19423D02*
X23707Y-19423D01*
X23850Y-19423D02*
X23850Y-18873D01*
X23802Y-18951D01*
X23755Y-19004D01*
X23707Y-19030D01*
X45105Y-22462D02*
X45105Y-22062D01*
X45258Y-22062D01*
X45296Y-22081D01*
X45315Y-22100D01*
X45334Y-22138D01*
X45334Y-22195D01*
X45315Y-22233D01*
X45296Y-22252D01*
X45258Y-22271D01*
X45105Y-22271D01*
X45677Y-22062D02*
X45600Y-22062D01*
X45562Y-22081D01*
X45543Y-22100D01*
X45505Y-22157D01*
X45486Y-22233D01*
X45486Y-22386D01*
X45505Y-22424D01*
X45524Y-22443D01*
X45562Y-22462D01*
X45639Y-22462D01*
X45677Y-22443D01*
X45696Y-22424D01*
X45715Y-22386D01*
X45715Y-22290D01*
X45696Y-22252D01*
X45677Y-22233D01*
X45639Y-22214D01*
X45562Y-22214D01*
X45524Y-22233D01*
X45505Y-22252D01*
X45486Y-22290D01*
G54D13*
X36258Y-22777D02*
X36246Y-22789D01*
X36211Y-22801D01*
X36187Y-22801D01*
X36151Y-22789D01*
X36127Y-22765D01*
X36116Y-22742D01*
X36104Y-22694D01*
X36104Y-22658D01*
X36116Y-22611D01*
X36127Y-22587D01*
X36151Y-22563D01*
X36187Y-22551D01*
X36211Y-22551D01*
X36246Y-22563D01*
X36258Y-22575D01*
X36342Y-22551D02*
X36496Y-22551D01*
X36413Y-22646D01*
X36449Y-22646D01*
X36473Y-22658D01*
X36485Y-22670D01*
X36496Y-22694D01*
X36496Y-22754D01*
X36485Y-22777D01*
X36473Y-22789D01*
X36449Y-22801D01*
X36377Y-22801D01*
X36354Y-22789D01*
X36342Y-22777D01*
G54D12*
X18901Y-21686D02*
X18872Y-21714D01*
X18786Y-21743D01*
X18729Y-21743D01*
X18644Y-21714D01*
X18586Y-21657D01*
X18558Y-21600D01*
X18529Y-21486D01*
X18529Y-21400D01*
X18558Y-21286D01*
X18586Y-21229D01*
X18644Y-21171D01*
X18729Y-21143D01*
X18786Y-21143D01*
X18872Y-21171D01*
X18901Y-21200D01*
X19415Y-21143D02*
X19301Y-21143D01*
X19244Y-21171D01*
X19215Y-21200D01*
X19158Y-21286D01*
X19129Y-21400D01*
X19129Y-21629D01*
X19158Y-21686D01*
X19186Y-21714D01*
X19244Y-21743D01*
X19358Y-21743D01*
X19415Y-21714D01*
X19444Y-21686D01*
X19472Y-21629D01*
X19472Y-21486D01*
X19444Y-21429D01*
X19415Y-21400D01*
X19358Y-21371D01*
X19244Y-21371D01*
X19186Y-21400D01*
X19158Y-21429D01*
X19129Y-21486D01*
X18801Y-08986D02*
X18772Y-09014D01*
X18686Y-09043D01*
X18629Y-09043D01*
X18544Y-09014D01*
X18486Y-08957D01*
X18458Y-08900D01*
X18429Y-08786D01*
X18429Y-08700D01*
X18458Y-08586D01*
X18486Y-08529D01*
X18544Y-08471D01*
X18629Y-08443D01*
X18686Y-08443D01*
X18772Y-08471D01*
X18801Y-08500D01*
X19001Y-08443D02*
X19401Y-08443D01*
X19144Y-09043D01*
G54D15*
X33342Y-24924D02*
X33326Y-24943D01*
X33276Y-24962D01*
X33242Y-24962D01*
X33192Y-24943D01*
X33159Y-24905D01*
X33142Y-24867D01*
X33126Y-24790D01*
X33126Y-24733D01*
X33142Y-24657D01*
X33159Y-24619D01*
X33192Y-24581D01*
X33242Y-24562D01*
X33276Y-24562D01*
X33326Y-24581D01*
X33342Y-24600D01*
X33509Y-24962D02*
X33576Y-24962D01*
X33609Y-24943D01*
X33626Y-24924D01*
X33659Y-24867D01*
X33676Y-24790D01*
X33676Y-24638D01*
X33659Y-24600D01*
X33642Y-24581D01*
X33609Y-24562D01*
X33542Y-24562D01*
X33509Y-24581D01*
X33492Y-24600D01*
X33476Y-24638D01*
X33476Y-24733D01*
X33492Y-24771D01*
X33509Y-24790D01*
X33542Y-24810D01*
X33609Y-24810D01*
X33642Y-24790D01*
X33659Y-24771D01*
X33676Y-24733D01*
X30605Y-21262D02*
X30605Y-20862D01*
X30700Y-20862D01*
X30758Y-20881D01*
X30796Y-20919D01*
X30815Y-20957D01*
X30834Y-21033D01*
X30834Y-21090D01*
X30815Y-21167D01*
X30796Y-21205D01*
X30758Y-21243D01*
X30700Y-21262D01*
X30605Y-21262D01*
X30967Y-20862D02*
X31215Y-20862D01*
X31081Y-21014D01*
X31139Y-21014D01*
X31177Y-21033D01*
X31196Y-21052D01*
X31215Y-21090D01*
X31215Y-21186D01*
X31196Y-21224D01*
X31177Y-21243D01*
X31139Y-21262D01*
X31024Y-21262D01*
X30986Y-21243D01*
X30967Y-21224D01*
G54D12*
X55858Y-19643D02*
X55858Y-19043D01*
X56001Y-19043D01*
X56086Y-19071D01*
X56144Y-19129D01*
X56172Y-19186D01*
X56201Y-19300D01*
X56201Y-19386D01*
X56172Y-19500D01*
X56144Y-19557D01*
X56086Y-19614D01*
X56001Y-19643D01*
X55858Y-19643D01*
X56715Y-19243D02*
X56715Y-19643D01*
X56572Y-19014D02*
X56429Y-19443D01*
X56801Y-19443D01*
G54D17*
X39884Y-23675D02*
X39884Y-22994D01*
X40047Y-22994D01*
X40088Y-23027D01*
X40108Y-23059D01*
X40128Y-23124D01*
X40128Y-23221D01*
X40108Y-23286D01*
X40088Y-23318D01*
X40047Y-23351D01*
X39884Y-23351D01*
X40271Y-22994D02*
X40556Y-22994D01*
X40373Y-23675D01*
X49684Y-23575D02*
X49684Y-22894D01*
X49847Y-22894D01*
X49888Y-22927D01*
X49908Y-22959D01*
X49928Y-23024D01*
X49928Y-23121D01*
X49908Y-23186D01*
X49888Y-23218D01*
X49847Y-23251D01*
X49684Y-23251D01*
X50173Y-23186D02*
X50132Y-23154D01*
X50112Y-23121D01*
X50092Y-23056D01*
X50092Y-23024D01*
X50112Y-22959D01*
X50132Y-22927D01*
X50173Y-22894D01*
X50255Y-22894D01*
X50295Y-22927D01*
X50316Y-22959D01*
X50336Y-23024D01*
X50336Y-23056D01*
X50316Y-23121D01*
X50295Y-23154D01*
X50255Y-23186D01*
X50173Y-23186D01*
X50132Y-23218D01*
X50112Y-23251D01*
X50092Y-23316D01*
X50092Y-23445D01*
X50112Y-23510D01*
X50132Y-23543D01*
X50173Y-23575D01*
X50255Y-23575D01*
X50295Y-23543D01*
X50316Y-23510D01*
X50336Y-23445D01*
X50336Y-23316D01*
X50316Y-23251D01*
X50295Y-23218D01*
X50255Y-23186D01*
X52784Y-23575D02*
X52784Y-22894D01*
X52947Y-22894D01*
X52988Y-22927D01*
X53008Y-22959D01*
X53028Y-23024D01*
X53028Y-23121D01*
X53008Y-23186D01*
X52988Y-23218D01*
X52947Y-23251D01*
X52784Y-23251D01*
X53232Y-23575D02*
X53314Y-23575D01*
X53355Y-23543D01*
X53375Y-23510D01*
X53416Y-23413D01*
X53436Y-23283D01*
X53436Y-23024D01*
X53416Y-22959D01*
X53395Y-22927D01*
X53355Y-22894D01*
X53273Y-22894D01*
X53232Y-22927D01*
X53212Y-22959D01*
X53192Y-23024D01*
X53192Y-23186D01*
X53212Y-23251D01*
X53232Y-23283D01*
X53273Y-23316D01*
X53355Y-23316D01*
X53395Y-23283D01*
X53416Y-23251D01*
X53436Y-23186D01*
G54D13*
X39377Y-20842D02*
X39389Y-20854D01*
X39401Y-20889D01*
X39401Y-20913D01*
X39389Y-20949D01*
X39365Y-20973D01*
X39342Y-20984D01*
X39294Y-20996D01*
X39258Y-20996D01*
X39211Y-20984D01*
X39187Y-20973D01*
X39163Y-20949D01*
X39151Y-20913D01*
X39151Y-20889D01*
X39163Y-20854D01*
X39175Y-20842D01*
X39151Y-20615D02*
X39151Y-20734D01*
X39270Y-20746D01*
X39258Y-20734D01*
X39246Y-20711D01*
X39246Y-20651D01*
X39258Y-20627D01*
X39270Y-20615D01*
X39294Y-20604D01*
X39354Y-20604D01*
X39377Y-20615D01*
X39389Y-20627D01*
X39401Y-20651D01*
X39401Y-20711D01*
X39389Y-20734D01*
X39377Y-20746D01*
G54D15*
X35795Y-17043D02*
X35795Y-17529D01*
X35814Y-17586D01*
X35833Y-17614D01*
X35871Y-17643D01*
X35948Y-17643D01*
X35986Y-17614D01*
X36005Y-17586D01*
X36024Y-17529D01*
X36024Y-17043D01*
X36424Y-17643D02*
X36195Y-17643D01*
X36309Y-17643D02*
X36309Y-17043D01*
X36271Y-17129D01*
X36233Y-17186D01*
X36195Y-17214D01*
X53495Y-16643D02*
X53495Y-17129D01*
X53514Y-17186D01*
X53533Y-17214D01*
X53571Y-17243D01*
X53648Y-17243D01*
X53686Y-17214D01*
X53705Y-17186D01*
X53724Y-17129D01*
X53724Y-16643D01*
X53895Y-16700D02*
X53914Y-16671D01*
X53952Y-16643D01*
X54048Y-16643D01*
X54086Y-16671D01*
X54105Y-16700D01*
X54124Y-16757D01*
X54124Y-16814D01*
X54105Y-16900D01*
X53876Y-17243D01*
X54124Y-17243D01*
M02*
