M48
INCH,TZ
T1C0.024
T2C0.025
T3C0.030
T4C0.032
T5C0.035
T6C0.040
T7C0.045
T8C0.047
T9C0.055
T10C0.063
T11C0.120
%
G90
G05
T1
X28200Y-19200
X31200Y-19200
T2
X28200Y-17700
X31800Y-17000
X32400Y-19500
X33100Y-16300
X33400Y-15900
X33600Y-21800
X33700Y-16700
X34100Y-19800
X34300Y-15600
X35000Y-15300
X35300Y-20500
X35600Y-20100
X37200Y-22100
X37900Y-20900
X38000Y-18300
X38800Y-21600
X39000Y-18600
X39600Y-22000
X39600Y-22600
X39800Y-17500
X40500Y-19200
X40600Y-20100
X41100Y-19200
X41100Y-20100
X41200Y-21700
X41500Y-18500
X41500Y-19600
X42000Y-18200
X42500Y-24700
X42600Y-17900
X44400Y-18900
X44400Y-20000
X46000Y-19600
X46000Y-22000
X46500Y-19300
X46500Y-22500
X46900Y-18700
X47200Y-19800
X48000Y-17800
X48200Y-19300
X48300Y-20600
X48300Y-22400
X49800Y-16300
X50100Y-15900
X50400Y-18600
X50900Y-19800
X51100Y-15600
X51300Y-22300
X51400Y-16900
X51600Y-15300
X52400Y-17600
X52500Y-19800
X53100Y-19800
X54700Y-17900
X56400Y-21600
X61000Y-15000
X61000Y-24400
X64100Y-19500
T3
X19716Y-11200
X21684Y-11200
T4
X23600Y-7600
X36300Y-10500
X36400Y-24300
X37400Y-24300
X38400Y-24300
X39400Y-24300
X40400Y-24300
X41400Y-24300
X48700Y-7600
X49500Y-24300
X50500Y-24300
X52600Y-24300
X53600Y-24300
X63500Y-11200
X63500Y-12200
X63500Y-13200
X63500Y-14200
X63500Y-15200
X63500Y-16200
X63500Y-17200
X63500Y-18200
T5
X22000Y-14200
X22000Y-18200
X28200Y-20300
X32200Y-20300
T6
X23600Y-6600
X24600Y-6600
X24600Y-7600
X25600Y-6600
X25600Y-7600
X26600Y-6600
X26600Y-7600
X27600Y-6600
X27600Y-7600
X28600Y-6600
X28600Y-7600
X29600Y-6600
X29600Y-7600
X30600Y-6600
X30600Y-7600
X31600Y-6600
X31600Y-7600
X32600Y-6600
X32600Y-7600
X33600Y-6600
X33600Y-7600
X34600Y-6600
X34600Y-7600
X36300Y-9500
X37300Y-9500
X37300Y-10500
X38300Y-9500
X38300Y-10500
X39300Y-9500
X39300Y-10500
X40300Y-9500
X40300Y-10500
X41300Y-9500
X41300Y-10500
X42300Y-9500
X42300Y-10500
X43300Y-9500
X43300Y-10500
X44300Y-9500
X44300Y-10500
X44400Y-23300
X44400Y-24300
X45300Y-9500
X45300Y-10500
X45400Y-23300
X45400Y-24300
X46300Y-9500
X46300Y-10500
X46400Y-23300
X46400Y-24300
X47300Y-9500
X47300Y-10500
X48700Y-6600
X49700Y-6600
X49700Y-7600
X50700Y-6600
X50700Y-7600
X51700Y-6600
X51700Y-7600
X52700Y-6600
X52700Y-7600
X53700Y-6600
X53700Y-7600
X54700Y-6600
X54700Y-7600
X55700Y-6600
X55700Y-7600
X56700Y-6600
X56700Y-7600
X57700Y-6600
X57700Y-7600
X58700Y-6600
X58700Y-7600
X59700Y-6600
X59700Y-7600
T7
X20600Y-20200
X26600Y-20200
T8
X32200Y-22511
X32200Y-23889
T9
X20571Y-23100
X29429Y-23100
T10
X18700Y-14816
X18700Y-16784
T11
X17800Y-7400
X17800Y-24100
X63000Y-7400
X63100Y-24100
T0
M30
