G04 (created by PCBNEW-RS274X (2011-04-29 BZR 2986)-stable) date 6/2/2011 10:57:15 PM*
G01*
G70*
G90*
%MOIN*%
G04 Gerber Fmt 3.4, Leading zero omitted, Abs format*
%FSLAX34Y34*%
G04 APERTURE LIST*
%ADD10C,0.006000*%
%ADD11C,0.015000*%
%ADD12R,0.035000X0.055000*%
%ADD13R,0.055000X0.035000*%
%ADD14R,0.060000X0.060000*%
%ADD15C,0.060000*%
%ADD16C,0.160000*%
%ADD17C,0.051200*%
%ADD18C,0.008000*%
G04 APERTURE END LIST*
G54D10*
G54D11*
X07600Y-18600D02*
X27200Y-18600D01*
X07600Y-07000D02*
X27200Y-07000D01*
X07581Y-07000D02*
X07581Y-18600D01*
X27200Y-18600D02*
X27200Y-07000D01*
G54D12*
X14606Y-07700D03*
X15356Y-07700D03*
G54D13*
X26300Y-10125D03*
X26300Y-10875D03*
G54D14*
X12400Y-17500D03*
G54D15*
X12400Y-16500D03*
X13400Y-17500D03*
X13400Y-16500D03*
X14400Y-17500D03*
X14400Y-16500D03*
X15400Y-17500D03*
X15400Y-16500D03*
X16400Y-17500D03*
X16400Y-16500D03*
X17400Y-17500D03*
X17400Y-16500D03*
X18400Y-17500D03*
X18400Y-16500D03*
X19400Y-17500D03*
X19400Y-16500D03*
X20400Y-17500D03*
X20400Y-16500D03*
X21400Y-17500D03*
X21400Y-16500D03*
X22400Y-17500D03*
X22400Y-16500D03*
X23400Y-17500D03*
X23400Y-16500D03*
G54D16*
X26100Y-08100D03*
X26200Y-17600D03*
X08700Y-17500D03*
X08700Y-08100D03*
G54D17*
X12581Y-09256D03*
X13624Y-09512D03*
X14427Y-10224D03*
X14809Y-11228D03*
X14679Y-12295D03*
X14069Y-13181D03*
X13120Y-13677D03*
X12042Y-13677D03*
X11093Y-13181D03*
X10483Y-12295D03*
X10353Y-11228D03*
X10735Y-10224D03*
X11538Y-09512D03*
X22200Y-09256D03*
X23243Y-09512D03*
X24046Y-10224D03*
X24428Y-11228D03*
X24298Y-12295D03*
X23688Y-13181D03*
X22739Y-13677D03*
X21661Y-13677D03*
X20712Y-13181D03*
X20102Y-12295D03*
X19972Y-11228D03*
X20354Y-10224D03*
X21157Y-09512D03*
G54D18*
X08100Y-10800D02*
X08676Y-10224D01*
X08100Y-14500D02*
X08100Y-10800D01*
X11100Y-17500D02*
X08100Y-14500D01*
X12400Y-17500D02*
X11100Y-17500D01*
X08676Y-10224D02*
X10735Y-10224D01*
X13400Y-17500D02*
X13400Y-17400D01*
X09505Y-12295D02*
X10483Y-12295D01*
X09100Y-12700D02*
X09505Y-12295D01*
X09100Y-14100D02*
X09100Y-12700D01*
X10600Y-15600D02*
X09100Y-14100D01*
X12400Y-15600D02*
X10600Y-15600D01*
X12900Y-16100D02*
X12400Y-15600D01*
X12900Y-16900D02*
X12900Y-16100D01*
X13400Y-17400D02*
X12900Y-16900D01*
X22400Y-17500D02*
X21900Y-17000D01*
X24824Y-10224D02*
X24046Y-10224D01*
X25100Y-10500D02*
X24824Y-10224D01*
X25100Y-11100D02*
X25100Y-10500D01*
X25600Y-11600D02*
X25100Y-11100D01*
X25600Y-14900D02*
X25600Y-11600D01*
X25000Y-15500D02*
X25600Y-14900D01*
X22600Y-15500D02*
X25000Y-15500D01*
X22400Y-15700D02*
X22600Y-15500D01*
X21900Y-16200D02*
X22400Y-15700D01*
X21900Y-17000D02*
X21900Y-16200D01*
X22656Y-08800D02*
X22200Y-09256D01*
X24500Y-08800D02*
X22656Y-08800D01*
X25825Y-10125D02*
X24500Y-08800D01*
X26300Y-10125D02*
X25825Y-10125D01*
X20400Y-16500D02*
X20400Y-16100D01*
X23688Y-14212D02*
X23688Y-13181D01*
X23300Y-14600D02*
X23688Y-14212D01*
X21900Y-14600D02*
X23300Y-14600D01*
X20400Y-16100D02*
X21900Y-14600D01*
X25300Y-11800D02*
X24728Y-11228D01*
X25300Y-14800D02*
X25300Y-11800D01*
X24900Y-15200D02*
X25300Y-14800D01*
X22500Y-15200D02*
X24900Y-15200D01*
X21400Y-16300D02*
X22500Y-15200D01*
X21400Y-16500D02*
X21400Y-16300D01*
X24728Y-11228D02*
X24428Y-11228D01*
X22400Y-16500D02*
X22500Y-16500D01*
X24712Y-09512D02*
X23243Y-09512D01*
X25400Y-10200D02*
X24712Y-09512D01*
X25400Y-11000D02*
X25400Y-10200D01*
X25900Y-11500D02*
X25400Y-11000D01*
X25900Y-15000D02*
X25900Y-11500D01*
X25100Y-15800D02*
X25900Y-15000D01*
X23200Y-15800D02*
X25100Y-15800D01*
X22500Y-16500D02*
X23200Y-15800D01*
X13400Y-07700D02*
X12581Y-08519D01*
X14606Y-07700D02*
X13400Y-07700D01*
X12581Y-08519D02*
X12581Y-09256D01*
X12400Y-16500D02*
X10700Y-16500D01*
X08972Y-11228D02*
X10353Y-11228D01*
X08500Y-11700D02*
X08972Y-11228D01*
X08500Y-14300D02*
X08500Y-11700D01*
X10700Y-16500D02*
X08500Y-14300D01*
X11500Y-15200D02*
X11093Y-14793D01*
X12600Y-15200D02*
X11500Y-15200D01*
X13400Y-16000D02*
X12600Y-15200D01*
X13400Y-16500D02*
X13400Y-16000D01*
X11093Y-14793D02*
X11093Y-13181D01*
X14400Y-17500D02*
X13900Y-17000D01*
X12042Y-14442D02*
X12042Y-13677D01*
X12300Y-14700D02*
X12042Y-14442D01*
X12700Y-14700D02*
X12300Y-14700D01*
X13900Y-15900D02*
X12700Y-14700D01*
X13900Y-17000D02*
X13900Y-15900D01*
X14400Y-15700D02*
X13120Y-14420D01*
X14400Y-16500D02*
X14400Y-15700D01*
X13120Y-14420D02*
X13120Y-13677D01*
X14900Y-15200D02*
X14069Y-14369D01*
X14900Y-17000D02*
X14900Y-15200D01*
X15400Y-17500D02*
X14900Y-17000D01*
X14069Y-14369D02*
X14069Y-13181D01*
X15400Y-16500D02*
X15400Y-14900D01*
X14679Y-14179D02*
X14679Y-12295D01*
X15400Y-14900D02*
X14679Y-14179D01*
X19300Y-14300D02*
X19300Y-11900D01*
X17900Y-15700D02*
X19300Y-14300D01*
X17900Y-17000D02*
X17900Y-15700D01*
X18400Y-17500D02*
X17900Y-17000D01*
X19300Y-11900D02*
X19972Y-11228D01*
X23400Y-17500D02*
X24500Y-17500D01*
X23800Y-07700D02*
X15356Y-07700D01*
X25500Y-09400D02*
X23800Y-07700D01*
X26600Y-09400D02*
X25500Y-09400D01*
X26900Y-09700D02*
X26600Y-09400D01*
X26900Y-15100D02*
X26900Y-09700D01*
X24500Y-17500D02*
X26900Y-15100D01*
X24900Y-16500D02*
X26300Y-15100D01*
X23400Y-16500D02*
X24900Y-16500D01*
X26300Y-15100D02*
X26300Y-10875D01*
X18900Y-15900D02*
X20712Y-14088D01*
X18900Y-17100D02*
X18900Y-15900D01*
X19300Y-17500D02*
X18900Y-17100D01*
X19400Y-17500D02*
X19300Y-17500D01*
X20712Y-14088D02*
X20712Y-13181D01*
X20400Y-17500D02*
X20300Y-17500D01*
X22739Y-14061D02*
X22739Y-13677D01*
X22500Y-14300D02*
X22739Y-14061D01*
X21700Y-14300D02*
X22500Y-14300D01*
X19900Y-16100D02*
X21700Y-14300D01*
X19900Y-17100D02*
X19900Y-16100D01*
X20300Y-17500D02*
X19900Y-17100D01*
X24900Y-12600D02*
X24595Y-12295D01*
X24900Y-14600D02*
X24900Y-12600D01*
X24600Y-14900D02*
X24900Y-14600D01*
X22100Y-14900D02*
X24600Y-14900D01*
X20900Y-16100D02*
X22100Y-14900D01*
X20900Y-17000D02*
X20900Y-16100D01*
X21400Y-17500D02*
X20900Y-17000D01*
X24595Y-12295D02*
X24298Y-12295D01*
X17400Y-16500D02*
X17400Y-15600D01*
X19576Y-10224D02*
X20354Y-10224D01*
X18900Y-10900D02*
X19576Y-10224D01*
X18900Y-14100D02*
X18900Y-10900D01*
X17400Y-15600D02*
X18900Y-14100D01*
X19800Y-14400D02*
X19800Y-12597D01*
X18400Y-15800D02*
X19800Y-14400D01*
X18400Y-16500D02*
X18400Y-15800D01*
X19800Y-12597D02*
X20102Y-12295D01*
X19400Y-16500D02*
X19400Y-15938D01*
X19400Y-15938D02*
X21661Y-13677D01*
X16400Y-17500D02*
X15900Y-17000D01*
X15900Y-12319D02*
X14809Y-11228D01*
X15900Y-17000D02*
X15900Y-12319D01*
X16400Y-11100D02*
X15524Y-10224D01*
X16400Y-16500D02*
X16400Y-11100D01*
X15524Y-10224D02*
X14427Y-10224D01*
M02*
