M48
INCH,TZ
T1C0.026
T2C0.032
T3C0.040
T4C0.120
%
G90
G05
T1
X10353Y-11228
X10483Y-12295
X10735Y-10224
X11093Y-13181
X11538Y-9512
X12042Y-13677
X12581Y-9256
X13120Y-13677
X13624Y-9512
X14069Y-13181
X14427Y-10224
X14679Y-12295
X14809Y-11228
X19972Y-11228
X20102Y-12295
X20354Y-10224
X20712Y-13181
X21157Y-9512
X21661Y-13677
X22200Y-9256
X22739Y-13677
X23243Y-9512
X23688Y-13181
X24046Y-10224
X24298Y-12295
X24428Y-11228
T2
X12400Y-16500
X15300Y-7700
X17100Y-10100
X17100Y-14100
X19300Y-7700
T3
X12400Y-17500
X13400Y-16500
X13400Y-17500
X14400Y-16500
X14400Y-17500
X15400Y-16500
X15400Y-17500
X16400Y-16500
X16400Y-17500
X17400Y-16500
X17400Y-17500
X18400Y-16500
X18400Y-17500
X19400Y-16500
X19400Y-17500
X20400Y-16500
X20400Y-17500
X21400Y-16500
X21400Y-17500
X22400Y-16500
X22400Y-17500
X23400Y-16500
X23400Y-17500
T4
X9000Y-8200
X9000Y-17400
X26000Y-8200
X26000Y-17400
T0
M30
