G04 (created by PCBNEW-RS274X (2011-04-29 BZR 2986)-stable) date 8/31/2011 10:38:09 PM*
G01*
G70*
G90*
%MOIN*%
G04 Gerber Fmt 3.4, Leading zero omitted, Abs format*
%FSLAX34Y34*%
G04 APERTURE LIST*
%ADD10C,0.006000*%
%ADD11C,0.015000*%
%ADD12C,0.007500*%
%ADD13C,0.012000*%
G04 APERTURE END LIST*
G54D10*
G54D11*
X07800Y-18600D02*
X27200Y-18600D01*
X07800Y-07000D02*
X27200Y-07000D01*
G54D12*
X15343Y-08762D02*
X15343Y-08362D01*
X15486Y-08762D02*
X15486Y-08362D01*
X15658Y-08762D01*
X15658Y-08362D01*
X15800Y-08610D02*
X16029Y-08610D01*
X16329Y-08762D02*
X16157Y-08762D01*
X16243Y-08762D02*
X16243Y-08362D01*
X16214Y-08419D01*
X16186Y-08457D01*
X16157Y-08476D01*
X16586Y-08495D02*
X16586Y-08762D01*
X16515Y-08343D02*
X16443Y-08629D01*
X16629Y-08629D01*
X16972Y-08762D02*
X16972Y-08362D01*
X17144Y-08762D01*
X17144Y-08362D01*
X17286Y-08762D02*
X17286Y-08495D01*
X17286Y-08362D02*
X17272Y-08381D01*
X17286Y-08400D01*
X17301Y-08381D01*
X17286Y-08362D01*
X17286Y-08400D01*
X17401Y-08762D02*
X17558Y-08495D01*
X17401Y-08495D02*
X17558Y-08762D01*
X17672Y-08762D02*
X17672Y-08495D01*
X17672Y-08362D02*
X17658Y-08381D01*
X17672Y-08400D01*
X17687Y-08381D01*
X17672Y-08362D01*
X17672Y-08400D01*
X17930Y-08743D02*
X17901Y-08762D01*
X17844Y-08762D01*
X17815Y-08743D01*
X17801Y-08705D01*
X17801Y-08552D01*
X17815Y-08514D01*
X17844Y-08495D01*
X17901Y-08495D01*
X17930Y-08514D01*
X17944Y-08552D01*
X17944Y-08590D01*
X17801Y-08629D01*
X18401Y-08552D02*
X18444Y-08571D01*
X18459Y-08590D01*
X18473Y-08629D01*
X18473Y-08686D01*
X18459Y-08724D01*
X18444Y-08743D01*
X18416Y-08762D01*
X18301Y-08762D01*
X18301Y-08362D01*
X18401Y-08362D01*
X18430Y-08381D01*
X18444Y-08400D01*
X18459Y-08438D01*
X18459Y-08476D01*
X18444Y-08514D01*
X18430Y-08533D01*
X18401Y-08552D01*
X18301Y-08552D01*
X18644Y-08762D02*
X18616Y-08743D01*
X18601Y-08724D01*
X18587Y-08686D01*
X18587Y-08571D01*
X18601Y-08533D01*
X18616Y-08514D01*
X18644Y-08495D01*
X18687Y-08495D01*
X18716Y-08514D01*
X18730Y-08533D01*
X18744Y-08571D01*
X18744Y-08686D01*
X18730Y-08724D01*
X18716Y-08743D01*
X18687Y-08762D01*
X18644Y-08762D01*
X19001Y-08762D02*
X19001Y-08552D01*
X18987Y-08514D01*
X18958Y-08495D01*
X18901Y-08495D01*
X18872Y-08514D01*
X19001Y-08743D02*
X18972Y-08762D01*
X18901Y-08762D01*
X18872Y-08743D01*
X18858Y-08705D01*
X18858Y-08667D01*
X18872Y-08629D01*
X18901Y-08610D01*
X18972Y-08610D01*
X19001Y-08590D01*
X19143Y-08762D02*
X19143Y-08495D01*
X19143Y-08571D02*
X19158Y-08533D01*
X19172Y-08514D01*
X19201Y-08495D01*
X19229Y-08495D01*
X19458Y-08762D02*
X19458Y-08362D01*
X19458Y-08743D02*
X19429Y-08762D01*
X19372Y-08762D01*
X19344Y-08743D01*
X19329Y-08724D01*
X19315Y-08686D01*
X19315Y-08571D01*
X19329Y-08533D01*
X19344Y-08514D01*
X19372Y-08495D01*
X19429Y-08495D01*
X19458Y-08514D01*
X16986Y-09397D02*
X16886Y-09206D01*
X16814Y-09397D02*
X16814Y-08997D01*
X16929Y-08997D01*
X16957Y-09016D01*
X16972Y-09035D01*
X16986Y-09073D01*
X16986Y-09130D01*
X16972Y-09168D01*
X16957Y-09187D01*
X16929Y-09206D01*
X16814Y-09206D01*
X17229Y-09378D02*
X17200Y-09397D01*
X17143Y-09397D01*
X17114Y-09378D01*
X17100Y-09340D01*
X17100Y-09187D01*
X17114Y-09149D01*
X17143Y-09130D01*
X17200Y-09130D01*
X17229Y-09149D01*
X17243Y-09187D01*
X17243Y-09225D01*
X17100Y-09264D01*
X17343Y-09130D02*
X17414Y-09397D01*
X17486Y-09130D01*
X17929Y-09187D02*
X17972Y-09206D01*
X17987Y-09225D01*
X18001Y-09264D01*
X18001Y-09321D01*
X17987Y-09359D01*
X17972Y-09378D01*
X17944Y-09397D01*
X17829Y-09397D01*
X17829Y-08997D01*
X17929Y-08997D01*
X17958Y-09016D01*
X17972Y-09035D01*
X17987Y-09073D01*
X17987Y-09111D01*
X17972Y-09149D01*
X17958Y-09168D01*
X17929Y-09187D01*
X17829Y-09187D01*
G54D11*
X07781Y-07000D02*
X07781Y-18600D01*
X27200Y-18600D02*
X27200Y-07000D01*
X26900Y-08200D02*
X26882Y-08374D01*
X26832Y-08542D01*
X26749Y-08698D01*
X26638Y-08834D01*
X26503Y-08946D01*
X26348Y-09029D01*
X26180Y-09081D01*
X26006Y-09099D01*
X25832Y-09084D01*
X25663Y-09034D01*
X25508Y-08953D01*
X25371Y-08843D01*
X25258Y-08708D01*
X25173Y-08554D01*
X25120Y-08387D01*
X25101Y-08212D01*
X25115Y-08038D01*
X25164Y-07869D01*
X25244Y-07713D01*
X25353Y-07575D01*
X25487Y-07461D01*
X25640Y-07376D01*
X25807Y-07321D01*
X25982Y-07301D01*
X26156Y-07314D01*
X26325Y-07361D01*
X26482Y-07441D01*
X26620Y-07549D01*
X26735Y-07682D01*
X26822Y-07834D01*
X26877Y-08001D01*
X26899Y-08175D01*
X26900Y-08200D01*
X26900Y-17400D02*
X26882Y-17574D01*
X26832Y-17742D01*
X26749Y-17898D01*
X26638Y-18034D01*
X26503Y-18146D01*
X26348Y-18229D01*
X26180Y-18281D01*
X26006Y-18299D01*
X25832Y-18284D01*
X25663Y-18234D01*
X25508Y-18153D01*
X25371Y-18043D01*
X25258Y-17908D01*
X25173Y-17754D01*
X25120Y-17587D01*
X25101Y-17412D01*
X25115Y-17238D01*
X25164Y-17069D01*
X25244Y-16913D01*
X25353Y-16775D01*
X25487Y-16661D01*
X25640Y-16576D01*
X25807Y-16521D01*
X25982Y-16501D01*
X26156Y-16514D01*
X26325Y-16561D01*
X26482Y-16641D01*
X26620Y-16749D01*
X26735Y-16882D01*
X26822Y-17034D01*
X26877Y-17201D01*
X26899Y-17375D01*
X26900Y-17400D01*
X09900Y-17400D02*
X09882Y-17574D01*
X09832Y-17742D01*
X09749Y-17898D01*
X09638Y-18034D01*
X09503Y-18146D01*
X09348Y-18229D01*
X09180Y-18281D01*
X09006Y-18299D01*
X08832Y-18284D01*
X08663Y-18234D01*
X08508Y-18153D01*
X08371Y-18043D01*
X08258Y-17908D01*
X08173Y-17754D01*
X08120Y-17587D01*
X08101Y-17412D01*
X08115Y-17238D01*
X08164Y-17069D01*
X08244Y-16913D01*
X08353Y-16775D01*
X08487Y-16661D01*
X08640Y-16576D01*
X08807Y-16521D01*
X08982Y-16501D01*
X09156Y-16514D01*
X09325Y-16561D01*
X09482Y-16641D01*
X09620Y-16749D01*
X09735Y-16882D01*
X09822Y-17034D01*
X09877Y-17201D01*
X09899Y-17375D01*
X09900Y-17400D01*
X09900Y-08200D02*
X09882Y-08374D01*
X09832Y-08542D01*
X09749Y-08698D01*
X09638Y-08834D01*
X09503Y-08946D01*
X09348Y-09029D01*
X09180Y-09081D01*
X09006Y-09099D01*
X08832Y-09084D01*
X08663Y-09034D01*
X08508Y-08953D01*
X08371Y-08843D01*
X08258Y-08708D01*
X08173Y-08554D01*
X08120Y-08387D01*
X08101Y-08212D01*
X08115Y-08038D01*
X08164Y-07869D01*
X08244Y-07713D01*
X08353Y-07575D01*
X08487Y-07461D01*
X08640Y-07376D01*
X08807Y-07321D01*
X08982Y-07301D01*
X09156Y-07314D01*
X09325Y-07361D01*
X09482Y-07441D01*
X09620Y-07549D01*
X09735Y-07682D01*
X09822Y-07834D01*
X09877Y-08001D01*
X09899Y-08175D01*
X09900Y-08200D01*
X16219Y-11500D02*
X16149Y-12206D01*
X15944Y-12886D01*
X15611Y-13513D01*
X15162Y-14063D01*
X14615Y-14516D01*
X13990Y-14853D01*
X13312Y-15063D01*
X12606Y-15137D01*
X11900Y-15073D01*
X11219Y-14873D01*
X10589Y-14544D01*
X10036Y-14099D01*
X09580Y-13555D01*
X09238Y-12933D01*
X09023Y-12256D01*
X08944Y-11550D01*
X09003Y-10844D01*
X09199Y-10161D01*
X09524Y-09530D01*
X09965Y-08973D01*
X10505Y-08513D01*
X11125Y-08167D01*
X11800Y-07947D01*
X12505Y-07863D01*
X13212Y-07918D01*
X13896Y-08109D01*
X14530Y-08429D01*
X15089Y-08866D01*
X15553Y-09403D01*
X15904Y-10021D01*
X16128Y-10695D01*
X16217Y-11399D01*
X16219Y-11500D01*
X25838Y-11500D02*
X25768Y-12206D01*
X25563Y-12886D01*
X25230Y-13513D01*
X24781Y-14063D01*
X24234Y-14516D01*
X23609Y-14853D01*
X22931Y-15063D01*
X22225Y-15137D01*
X21519Y-15073D01*
X20838Y-14873D01*
X20208Y-14544D01*
X19655Y-14099D01*
X19199Y-13555D01*
X18857Y-12933D01*
X18642Y-12256D01*
X18563Y-11550D01*
X18622Y-10844D01*
X18818Y-10161D01*
X19143Y-09530D01*
X19584Y-08973D01*
X20124Y-08513D01*
X20744Y-08167D01*
X21419Y-07947D01*
X22124Y-07863D01*
X22831Y-07918D01*
X23515Y-08109D01*
X24149Y-08429D01*
X24708Y-08866D01*
X25172Y-09403D01*
X25523Y-10021D01*
X25747Y-10695D01*
X25836Y-11399D01*
X25838Y-11500D01*
G54D13*
X12143Y-11143D02*
X12143Y-11629D01*
X12171Y-11686D01*
X12200Y-11714D01*
X12257Y-11743D01*
X12371Y-11743D01*
X12429Y-11714D01*
X12457Y-11686D01*
X12486Y-11629D01*
X12486Y-11143D01*
X13086Y-11743D02*
X12743Y-11743D01*
X12915Y-11743D02*
X12915Y-11143D01*
X12858Y-11229D01*
X12800Y-11286D01*
X12743Y-11314D01*
X21743Y-11143D02*
X21743Y-11629D01*
X21771Y-11686D01*
X21800Y-11714D01*
X21857Y-11743D01*
X21971Y-11743D01*
X22029Y-11714D01*
X22057Y-11686D01*
X22086Y-11629D01*
X22086Y-11143D01*
X22343Y-11200D02*
X22372Y-11171D01*
X22429Y-11143D01*
X22572Y-11143D01*
X22629Y-11171D01*
X22658Y-11200D01*
X22686Y-11257D01*
X22686Y-11314D01*
X22658Y-11400D01*
X22315Y-11743D01*
X22686Y-11743D01*
M02*
