G04 (created by PCBNEW-RS274X (2011-04-29 BZR 2986)-stable) date 8/31/2011 10:38:09 PM*
G01*
G70*
G90*
%MOIN*%
G04 Gerber Fmt 3.4, Leading zero omitted, Abs format*
%FSLAX34Y34*%
G04 APERTURE LIST*
%ADD10C,0.006000*%
%ADD11C,0.015000*%
%ADD12R,0.080000X0.080000*%
%ADD13C,0.080000*%
%ADD14C,0.180000*%
%ADD15C,0.071200*%
G04 APERTURE END LIST*
G54D10*
G54D11*
X07800Y-18600D02*
X27200Y-18600D01*
X07800Y-07000D02*
X27200Y-07000D01*
X07781Y-07000D02*
X07781Y-18600D01*
X27200Y-18600D02*
X27200Y-07000D01*
G54D12*
X12400Y-16500D03*
G54D13*
X12400Y-17500D03*
X13400Y-16500D03*
X13400Y-17500D03*
X14400Y-16500D03*
X14400Y-17500D03*
X15400Y-16500D03*
X15400Y-17500D03*
X16400Y-16500D03*
X16400Y-17500D03*
X17400Y-16500D03*
X17400Y-17500D03*
X18400Y-16500D03*
X18400Y-17500D03*
X19400Y-16500D03*
X19400Y-17500D03*
X20400Y-16500D03*
X20400Y-17500D03*
X21400Y-16500D03*
X21400Y-17500D03*
X22400Y-16500D03*
X22400Y-17500D03*
X23400Y-16500D03*
X23400Y-17500D03*
G54D14*
X26000Y-08200D03*
X26000Y-17400D03*
X09000Y-17400D03*
X09000Y-08200D03*
G54D15*
X12581Y-09256D03*
X13624Y-09512D03*
X14427Y-10224D03*
X14809Y-11228D03*
X14679Y-12295D03*
X14069Y-13181D03*
X13120Y-13677D03*
X12042Y-13677D03*
X11093Y-13181D03*
X10483Y-12295D03*
X10353Y-11228D03*
X10735Y-10224D03*
X11538Y-09512D03*
X22200Y-09256D03*
X23243Y-09512D03*
X24046Y-10224D03*
X24428Y-11228D03*
X24298Y-12295D03*
X23688Y-13181D03*
X22739Y-13677D03*
X21661Y-13677D03*
X20712Y-13181D03*
X20102Y-12295D03*
X19972Y-11228D03*
X20354Y-10224D03*
X21157Y-09512D03*
G54D13*
X15300Y-07700D03*
X19300Y-07700D03*
X17100Y-10100D03*
X17100Y-14100D03*
M02*
