G04 (created by PCBNEW-RS274X (2011-04-29 BZR 2986)-stable) date 8/31/2011 10:38:09 PM*
G01*
G70*
G90*
%MOIN*%
G04 Gerber Fmt 3.4, Leading zero omitted, Abs format*
%FSLAX34Y34*%
G04 APERTURE LIST*
%ADD10C,0.006000*%
%ADD11C,0.015000*%
%ADD12R,0.060000X0.060000*%
%ADD13C,0.060000*%
%ADD14C,0.160000*%
%ADD15C,0.051200*%
%ADD16C,0.008000*%
G04 APERTURE END LIST*
G54D10*
G54D11*
X07800Y-18600D02*
X27200Y-18600D01*
X07800Y-07000D02*
X27200Y-07000D01*
X07781Y-07000D02*
X07781Y-18600D01*
X27200Y-18600D02*
X27200Y-07000D01*
G54D12*
X12400Y-16500D03*
G54D13*
X12400Y-17500D03*
X13400Y-16500D03*
X13400Y-17500D03*
X14400Y-16500D03*
X14400Y-17500D03*
X15400Y-16500D03*
X15400Y-17500D03*
X16400Y-16500D03*
X16400Y-17500D03*
X17400Y-16500D03*
X17400Y-17500D03*
X18400Y-16500D03*
X18400Y-17500D03*
X19400Y-16500D03*
X19400Y-17500D03*
X20400Y-16500D03*
X20400Y-17500D03*
X21400Y-16500D03*
X21400Y-17500D03*
X22400Y-16500D03*
X22400Y-17500D03*
X23400Y-16500D03*
X23400Y-17500D03*
G54D14*
X26000Y-08200D03*
X26000Y-17400D03*
X09000Y-17400D03*
X09000Y-08200D03*
G54D15*
X12581Y-09256D03*
X13624Y-09512D03*
X14427Y-10224D03*
X14809Y-11228D03*
X14679Y-12295D03*
X14069Y-13181D03*
X13120Y-13677D03*
X12042Y-13677D03*
X11093Y-13181D03*
X10483Y-12295D03*
X10353Y-11228D03*
X10735Y-10224D03*
X11538Y-09512D03*
X22200Y-09256D03*
X23243Y-09512D03*
X24046Y-10224D03*
X24428Y-11228D03*
X24298Y-12295D03*
X23688Y-13181D03*
X22739Y-13677D03*
X21661Y-13677D03*
X20712Y-13181D03*
X20102Y-12295D03*
X19972Y-11228D03*
X20354Y-10224D03*
X21157Y-09512D03*
G54D13*
X15300Y-07700D03*
X19300Y-07700D03*
X17100Y-10100D03*
X17100Y-14100D03*
G54D16*
X08676Y-10224D02*
X10735Y-10224D01*
X08000Y-10900D02*
X08676Y-10224D01*
X08000Y-14800D02*
X08000Y-10900D01*
X09700Y-16500D02*
X08000Y-14800D01*
X12400Y-16500D02*
X09700Y-16500D01*
X13400Y-16500D02*
X13400Y-15900D01*
X09105Y-12295D02*
X10483Y-12295D01*
X08700Y-12700D02*
X09105Y-12295D01*
X08700Y-14600D02*
X08700Y-12700D01*
X09600Y-15500D02*
X08700Y-14600D01*
X13000Y-15500D02*
X09600Y-15500D01*
X13400Y-15900D02*
X13000Y-15500D01*
X24624Y-10224D02*
X24046Y-10224D01*
X25600Y-11200D02*
X24624Y-10224D01*
X25600Y-13700D02*
X25600Y-11200D01*
X23800Y-15500D02*
X25600Y-13700D01*
X22900Y-15500D02*
X23800Y-15500D01*
X22400Y-16000D02*
X22900Y-15500D01*
X22400Y-16500D02*
X22400Y-16000D01*
X18300Y-08700D02*
X21644Y-08700D01*
X17100Y-09900D02*
X18300Y-08700D01*
X17100Y-10100D02*
X17100Y-09900D01*
X21644Y-08700D02*
X22200Y-09256D01*
X23688Y-13912D02*
X23688Y-13181D01*
X23100Y-14500D02*
X23688Y-13912D01*
X22400Y-14500D02*
X23100Y-14500D01*
X20900Y-17000D02*
X20900Y-16000D01*
X20900Y-16000D02*
X22400Y-14500D01*
X20400Y-17500D02*
X20900Y-17000D01*
X25128Y-11228D02*
X24428Y-11228D01*
X21400Y-17500D02*
X21900Y-17000D01*
X23600Y-15200D02*
X25200Y-13600D01*
X22600Y-15200D02*
X23600Y-15200D01*
X21900Y-15900D02*
X22600Y-15200D01*
X21900Y-17000D02*
X21900Y-15900D01*
X25200Y-13600D02*
X25200Y-11300D01*
X25200Y-11300D02*
X25128Y-11228D01*
X22900Y-16100D02*
X23200Y-15800D01*
X22900Y-17000D02*
X22900Y-16100D01*
X22400Y-17500D02*
X22900Y-17000D01*
X25900Y-11100D02*
X24312Y-09512D01*
X25900Y-13900D02*
X25900Y-11100D01*
X24000Y-15800D02*
X25900Y-13900D01*
X24312Y-09512D02*
X23243Y-09512D01*
X23200Y-15800D02*
X24000Y-15800D01*
X13100Y-07700D02*
X12581Y-08219D01*
X12581Y-08219D02*
X12581Y-09256D01*
X15300Y-07700D02*
X13100Y-07700D01*
X09400Y-15800D02*
X08300Y-14700D01*
X08672Y-11228D02*
X10353Y-11228D01*
X12900Y-15900D02*
X12800Y-15800D01*
X12900Y-17100D02*
X12900Y-15900D01*
X12500Y-17500D02*
X12900Y-17100D01*
X12800Y-15800D02*
X09400Y-15800D01*
X08300Y-14700D02*
X08300Y-11600D01*
X12400Y-17500D02*
X12500Y-17500D01*
X08300Y-11600D02*
X08672Y-11228D01*
X09100Y-14500D02*
X09100Y-13400D01*
X09100Y-13400D02*
X09319Y-13181D01*
X13100Y-15100D02*
X09700Y-15100D01*
X13900Y-15900D02*
X13100Y-15100D01*
X13900Y-17100D02*
X13900Y-15900D01*
X13500Y-17500D02*
X13900Y-17100D01*
X13400Y-17500D02*
X13500Y-17500D01*
X09700Y-15100D02*
X09100Y-14500D01*
X09319Y-13181D02*
X11093Y-13181D01*
X12042Y-14342D02*
X12042Y-13677D01*
X12400Y-14700D02*
X12042Y-14342D01*
X14400Y-15900D02*
X13200Y-14700D01*
X14400Y-16500D02*
X14400Y-15900D01*
X13200Y-14700D02*
X12400Y-14700D01*
X14400Y-17500D02*
X14900Y-17000D01*
X13600Y-14157D02*
X13120Y-13677D01*
X14900Y-17000D02*
X14900Y-16000D01*
X13600Y-14700D02*
X13600Y-14157D01*
X14900Y-16000D02*
X13600Y-14700D01*
X14069Y-14569D02*
X14069Y-13181D01*
X15400Y-15900D02*
X14069Y-14569D01*
X15400Y-16500D02*
X15400Y-15900D01*
X15900Y-15900D02*
X14679Y-14679D01*
X15400Y-17500D02*
X15900Y-17000D01*
X15900Y-17000D02*
X15900Y-15900D01*
X14679Y-14679D02*
X14679Y-12295D01*
X18400Y-16500D02*
X18400Y-11600D01*
X18772Y-11228D02*
X19972Y-11228D01*
X18400Y-11600D02*
X18772Y-11228D01*
X23400Y-16500D02*
X23900Y-16500D01*
X26300Y-14100D02*
X26300Y-10700D01*
X26300Y-10700D02*
X23300Y-07700D01*
X23300Y-07700D02*
X19300Y-07700D01*
X23900Y-16500D02*
X26300Y-14100D01*
X19400Y-16500D02*
X19400Y-13500D01*
X19719Y-13181D02*
X20712Y-13181D01*
X19400Y-13500D02*
X19719Y-13181D01*
X20400Y-16500D02*
X20400Y-15900D01*
X22623Y-13677D02*
X22739Y-13677D01*
X20400Y-15900D02*
X22623Y-13677D01*
X22500Y-14900D02*
X23400Y-14900D01*
X21400Y-16000D02*
X22500Y-14900D01*
X21400Y-16500D02*
X21400Y-16000D01*
X24900Y-12897D02*
X24298Y-12295D01*
X24900Y-13400D02*
X24900Y-12897D01*
X23400Y-14900D02*
X24900Y-13400D01*
X18576Y-10224D02*
X20354Y-10224D01*
X17900Y-10900D02*
X18576Y-10224D01*
X17900Y-17000D02*
X17900Y-10900D01*
X17400Y-17500D02*
X17900Y-17000D01*
X18900Y-17000D02*
X18900Y-12600D01*
X18400Y-17500D02*
X18900Y-17000D01*
X19205Y-12295D02*
X20102Y-12295D01*
X18900Y-12600D02*
X19205Y-12295D01*
X19900Y-15000D02*
X21223Y-13677D01*
X19900Y-17000D02*
X19900Y-15000D01*
X19400Y-17500D02*
X19900Y-17000D01*
X21223Y-13677D02*
X21661Y-13677D01*
X15400Y-11819D02*
X14809Y-11228D01*
X15400Y-14800D02*
X15400Y-11819D01*
X16400Y-15800D02*
X15400Y-14800D01*
X16400Y-16500D02*
X16400Y-15800D01*
X15900Y-14600D02*
X15900Y-10900D01*
X16900Y-15600D02*
X15900Y-14600D01*
X16900Y-17000D02*
X16900Y-15600D01*
X16400Y-17500D02*
X16900Y-17000D01*
X14451Y-10200D02*
X14427Y-10224D01*
X15200Y-10200D02*
X14451Y-10200D01*
X15900Y-10900D02*
X15200Y-10200D01*
M02*
