G04 (created by PCBNEW-RS274X (2011-04-29 BZR 2986)-stable) date 5/31/2011 9:18:06 PM*
G01*
G70*
G90*
%MOIN*%
G04 Gerber Fmt 3.4, Leading zero omitted, Abs format*
%FSLAX34Y34*%
G04 APERTURE LIST*
%ADD10C,0.006000*%
%ADD11C,0.015000*%
%ADD12C,0.083500*%
%ADD13R,0.055000X0.035000*%
%ADD14R,0.055000X0.055000*%
%ADD15C,0.055000*%
%ADD16C,0.073200*%
%ADD17R,0.019600X0.078700*%
%ADD18R,0.078700X0.019600*%
%ADD19R,0.060000X0.060000*%
%ADD20C,0.060000*%
%ADD21R,0.056000X0.056000*%
%ADD22C,0.056000*%
%ADD23R,0.059100X0.059100*%
%ADD24C,0.059100*%
%ADD25R,0.078700X0.017700*%
%ADD26R,0.017700X0.078700*%
%ADD27R,0.035000X0.055000*%
%ADD28R,0.045000X0.020000*%
%ADD29R,0.074800X0.043300*%
%ADD30R,0.086600X0.086600*%
%ADD31C,0.078700*%
%ADD32R,0.011800X0.025600*%
%ADD33R,0.014800X0.019700*%
%ADD34C,0.160000*%
%ADD35C,0.092500*%
%ADD36C,0.035000*%
%ADD37C,0.040000*%
%ADD38C,0.012000*%
%ADD39C,0.020000*%
%ADD40C,0.016000*%
%ADD41C,0.030000*%
%ADD42C,0.008000*%
G04 APERTURE END LIST*
G54D10*
G54D11*
X64567Y-25591D02*
X64567Y-05906D01*
X05512Y-25591D02*
X64567Y-25591D01*
X05512Y-05906D02*
X05512Y-25591D01*
X05512Y-05906D02*
X64567Y-05906D01*
G54D12*
X08283Y-19952D03*
X21117Y-17452D03*
X21117Y-13948D03*
X21117Y-11448D03*
X08283Y-11448D03*
X21117Y-19952D03*
G54D13*
X49100Y-22475D03*
X49100Y-21725D03*
X49100Y-20575D03*
X49100Y-19825D03*
G54D14*
X63500Y-18200D03*
G54D15*
X63500Y-17200D03*
X63500Y-16200D03*
X63500Y-15200D03*
X63500Y-14200D03*
X63500Y-13200D03*
X63500Y-12200D03*
X63500Y-11200D03*
G54D14*
X41400Y-24300D03*
G54D15*
X40400Y-24300D03*
X39400Y-24300D03*
X38400Y-24300D03*
X37400Y-24300D03*
X36400Y-24300D03*
G54D14*
X49500Y-24300D03*
G54D15*
X50500Y-24300D03*
G54D14*
X52600Y-24300D03*
G54D15*
X53600Y-24300D03*
G54D16*
X34653Y-24200D03*
X28747Y-24200D03*
G54D17*
X34974Y-12738D03*
X34659Y-12738D03*
X34344Y-12738D03*
X34029Y-12738D03*
X33714Y-12738D03*
X33400Y-12738D03*
X33086Y-12738D03*
X32771Y-12738D03*
X32456Y-12738D03*
X32141Y-12738D03*
X31826Y-12738D03*
G54D18*
X31038Y-13526D03*
X31038Y-13841D03*
X31038Y-14156D03*
X31038Y-14471D03*
X31038Y-14786D03*
X31038Y-15100D03*
X31038Y-15414D03*
X31038Y-15729D03*
X31038Y-16044D03*
X31038Y-16359D03*
X31038Y-16674D03*
G54D17*
X31826Y-17462D03*
X32141Y-17462D03*
X32456Y-17462D03*
X32771Y-17462D03*
X33086Y-17462D03*
X33400Y-17462D03*
X33714Y-17462D03*
X34029Y-17462D03*
X34344Y-17462D03*
X34659Y-17462D03*
X34974Y-17462D03*
G54D18*
X35762Y-16674D03*
X35762Y-16359D03*
X35762Y-16044D03*
X35762Y-15729D03*
X35762Y-15414D03*
X35762Y-15100D03*
X35762Y-14786D03*
X35762Y-14471D03*
X35762Y-14156D03*
X35762Y-13841D03*
X35762Y-13526D03*
G54D17*
X51674Y-12738D03*
X51359Y-12738D03*
X51044Y-12738D03*
X50729Y-12738D03*
X50414Y-12738D03*
X50100Y-12738D03*
X49786Y-12738D03*
X49471Y-12738D03*
X49156Y-12738D03*
X48841Y-12738D03*
X48526Y-12738D03*
G54D18*
X47738Y-13526D03*
X47738Y-13841D03*
X47738Y-14156D03*
X47738Y-14471D03*
X47738Y-14786D03*
X47738Y-15100D03*
X47738Y-15414D03*
X47738Y-15729D03*
X47738Y-16044D03*
X47738Y-16359D03*
X47738Y-16674D03*
G54D17*
X48526Y-17462D03*
X48841Y-17462D03*
X49156Y-17462D03*
X49471Y-17462D03*
X49786Y-17462D03*
X50100Y-17462D03*
X50414Y-17462D03*
X50729Y-17462D03*
X51044Y-17462D03*
X51359Y-17462D03*
X51674Y-17462D03*
G54D18*
X52462Y-16674D03*
X52462Y-16359D03*
X52462Y-16044D03*
X52462Y-15729D03*
X52462Y-15414D03*
X52462Y-15100D03*
X52462Y-14786D03*
X52462Y-14471D03*
X52462Y-14156D03*
X52462Y-13841D03*
X52462Y-13526D03*
G54D19*
X44400Y-24300D03*
G54D20*
X44400Y-23300D03*
X45400Y-24300D03*
X45400Y-23300D03*
X46400Y-24300D03*
X46400Y-23300D03*
G54D19*
X22900Y-23900D03*
G54D20*
X22900Y-19900D03*
G54D21*
X30000Y-20400D03*
G54D22*
X33000Y-20400D03*
G54D21*
X33000Y-21500D03*
G54D22*
X30000Y-21500D03*
G54D21*
X34400Y-22600D03*
G54D22*
X31400Y-22600D03*
G54D23*
X26200Y-23484D03*
G54D24*
X26200Y-21516D03*
G54D14*
X35800Y-22100D03*
G54D15*
X36800Y-22100D03*
G54D25*
X39804Y-20193D03*
X39804Y-19878D03*
X39804Y-19563D03*
X39804Y-19248D03*
X39804Y-18933D03*
X39804Y-18618D03*
X39804Y-18303D03*
X39804Y-17988D03*
X43570Y-17990D03*
X43570Y-20200D03*
X43570Y-19880D03*
X43570Y-19560D03*
X43570Y-19250D03*
X43570Y-18930D03*
X43570Y-18620D03*
X43570Y-18300D03*
G54D26*
X40588Y-17200D03*
X40902Y-17200D03*
X41218Y-17200D03*
X41532Y-17200D03*
X41848Y-17200D03*
X42162Y-17200D03*
X42478Y-17200D03*
X42792Y-17200D03*
X40590Y-20980D03*
X40900Y-20980D03*
X41220Y-20980D03*
X41530Y-20980D03*
X41840Y-20980D03*
X42160Y-20980D03*
X42480Y-20980D03*
X42800Y-20980D03*
G54D27*
X28225Y-19900D03*
X28975Y-19900D03*
G54D13*
X54900Y-19225D03*
X54900Y-19975D03*
X54100Y-19975D03*
X54100Y-19225D03*
G54D27*
X46725Y-19200D03*
X47475Y-19200D03*
X46725Y-18400D03*
X47475Y-18400D03*
G54D13*
X34100Y-18625D03*
X34100Y-19375D03*
G54D27*
X50925Y-18600D03*
X51675Y-18600D03*
G54D13*
X38800Y-19525D03*
X38800Y-20275D03*
G54D27*
X61975Y-17200D03*
X61225Y-17200D03*
G54D28*
X54050Y-20750D03*
X51950Y-20750D03*
X54050Y-21250D03*
X54050Y-21750D03*
X54050Y-22250D03*
X51950Y-21250D03*
X51950Y-21750D03*
X51950Y-22250D03*
G54D19*
X23600Y-07600D03*
G54D20*
X23600Y-06600D03*
X24600Y-07600D03*
X24600Y-06600D03*
X25600Y-07600D03*
X25600Y-06600D03*
X26600Y-07600D03*
X26600Y-06600D03*
X27600Y-07600D03*
X27600Y-06600D03*
X28600Y-07600D03*
X28600Y-06600D03*
X29600Y-07600D03*
X29600Y-06600D03*
X30600Y-07600D03*
X30600Y-06600D03*
X31600Y-07600D03*
X31600Y-06600D03*
X32600Y-07600D03*
X32600Y-06600D03*
X33600Y-07600D03*
X33600Y-06600D03*
X34600Y-07600D03*
X34600Y-06600D03*
G54D19*
X36300Y-10500D03*
G54D20*
X36300Y-09500D03*
X37300Y-10500D03*
X37300Y-09500D03*
X38300Y-10500D03*
X38300Y-09500D03*
X39300Y-10500D03*
X39300Y-09500D03*
X40300Y-10500D03*
X40300Y-09500D03*
X41300Y-10500D03*
X41300Y-09500D03*
X42300Y-10500D03*
X42300Y-09500D03*
X43300Y-10500D03*
X43300Y-09500D03*
X44300Y-10500D03*
X44300Y-09500D03*
X45300Y-10500D03*
X45300Y-09500D03*
X46300Y-10500D03*
X46300Y-09500D03*
X47300Y-10500D03*
X47300Y-09500D03*
G54D19*
X48700Y-07600D03*
G54D20*
X48700Y-06600D03*
X49700Y-07600D03*
X49700Y-06600D03*
X50700Y-07600D03*
X50700Y-06600D03*
X51700Y-07600D03*
X51700Y-06600D03*
X52700Y-07600D03*
X52700Y-06600D03*
X53700Y-07600D03*
X53700Y-06600D03*
X54700Y-07600D03*
X54700Y-06600D03*
X55700Y-07600D03*
X55700Y-06600D03*
X56700Y-07600D03*
X56700Y-06600D03*
X57700Y-07600D03*
X57700Y-06600D03*
X58700Y-07600D03*
X58700Y-06600D03*
X59700Y-07600D03*
X59700Y-06600D03*
G54D29*
X50200Y-20708D03*
X50200Y-21692D03*
G54D30*
X56731Y-23000D03*
G54D31*
X60669Y-23000D03*
G54D32*
X55600Y-23765D03*
X55600Y-24435D03*
G54D33*
X55812Y-24435D03*
X55388Y-24435D03*
X55388Y-23765D03*
X55812Y-23765D03*
G54D34*
X63300Y-07200D03*
X63300Y-24400D03*
G54D13*
X44600Y-19925D03*
X44600Y-20675D03*
G54D34*
X06800Y-24300D03*
X06700Y-07200D03*
G54D35*
X06700Y-20000D03*
X06700Y-11500D03*
G54D36*
X22600Y-08500D03*
X50900Y-19800D03*
X42700Y-19900D03*
X47500Y-19800D03*
X35700Y-18000D03*
X39500Y-17200D03*
X38900Y-18000D03*
X51700Y-16600D03*
X41200Y-21800D03*
X49100Y-16200D03*
X33400Y-15900D03*
X33600Y-20200D03*
X35600Y-19400D03*
X40000Y-20800D03*
X34400Y-15300D03*
X49200Y-15700D03*
X35700Y-19900D03*
X40600Y-21800D03*
X45300Y-21200D03*
X48100Y-21200D03*
X45200Y-18300D03*
X44300Y-18300D03*
X44700Y-18000D03*
X51500Y-23700D03*
X48600Y-23700D03*
X48500Y-20700D03*
X45600Y-20700D03*
X45600Y-18000D03*
X44900Y-22200D03*
X42800Y-22200D03*
X45400Y-22600D03*
X42500Y-22600D03*
X33100Y-18400D03*
X38400Y-18400D03*
X38400Y-16300D03*
X48800Y-16600D03*
X39900Y-16700D03*
X30900Y-17400D03*
X41500Y-20300D03*
X47000Y-20300D03*
X36500Y-20500D03*
X39900Y-17500D03*
X38100Y-20500D03*
X36600Y-17500D03*
X45700Y-21800D03*
X44000Y-21800D03*
X40900Y-15600D03*
X36100Y-20800D03*
X36500Y-16700D03*
X37600Y-20800D03*
X37900Y-15600D03*
X37900Y-16700D03*
X42500Y-24700D03*
X61400Y-24000D03*
X44600Y-21300D03*
X50400Y-16700D03*
X52400Y-17600D03*
X42700Y-18100D03*
X34100Y-19800D03*
X38800Y-21400D03*
X49100Y-21100D03*
X51300Y-22300D03*
X40600Y-18500D03*
X39000Y-18600D03*
X61500Y-16500D03*
X49100Y-23100D03*
X33700Y-16500D03*
X31800Y-14900D03*
X49500Y-14900D03*
X46100Y-21500D03*
X53200Y-22200D03*
X46100Y-18600D03*
X42100Y-18600D03*
X22900Y-19200D03*
X28200Y-19200D03*
X40900Y-18900D03*
X54900Y-18600D03*
X53400Y-20000D03*
X46100Y-19200D03*
X41700Y-19200D03*
G54D37*
X26200Y-23484D02*
X27384Y-23484D01*
X27384Y-23484D02*
X28100Y-24200D01*
X22900Y-23900D02*
X24100Y-23900D01*
X24516Y-23484D02*
X24600Y-23484D01*
X24600Y-23484D02*
X26200Y-23484D01*
X24100Y-23900D02*
X24516Y-23484D01*
X24516Y-23484D02*
X24516Y-15816D01*
X28100Y-24200D02*
X28747Y-24200D01*
X24516Y-15816D02*
X22600Y-13900D01*
X22600Y-13900D02*
X22600Y-08500D01*
G54D38*
X50925Y-18600D02*
X50925Y-18425D01*
X50729Y-18229D02*
X50729Y-17462D01*
X50925Y-18425D02*
X50729Y-18229D01*
G54D39*
X50900Y-19800D02*
X50900Y-18625D01*
X50900Y-18625D02*
X50925Y-18600D01*
X52875Y-19225D02*
X54100Y-19225D01*
X52300Y-19800D02*
X52875Y-19225D01*
G54D40*
X39067Y-18933D02*
X39804Y-18933D01*
X43570Y-19880D02*
X42720Y-19880D01*
X42720Y-19880D02*
X42700Y-19900D01*
X47475Y-19200D02*
X47475Y-18400D01*
X47500Y-19800D02*
X47500Y-19225D01*
X47500Y-19225D02*
X47475Y-19200D01*
X34900Y-21500D02*
X33000Y-21500D01*
X43570Y-19880D02*
X44555Y-19880D01*
X44555Y-19880D02*
X44600Y-19925D01*
G54D41*
X47500Y-25200D02*
X47500Y-19800D01*
G54D39*
X61975Y-17200D02*
X63000Y-17200D01*
G54D37*
X55600Y-25200D02*
X61100Y-25200D01*
X55400Y-25200D02*
X55600Y-25200D01*
X63000Y-17200D02*
X63500Y-17200D01*
X62000Y-18200D02*
X63000Y-17200D01*
X62000Y-24300D02*
X62000Y-18200D01*
X61100Y-25200D02*
X62000Y-24300D01*
G54D39*
X34100Y-18625D02*
X34425Y-18625D01*
X34900Y-19100D02*
X34900Y-21500D01*
X34900Y-21500D02*
X34900Y-22100D01*
X34425Y-18625D02*
X34900Y-19100D01*
G54D40*
X34029Y-17462D02*
X34029Y-18554D01*
X34029Y-18554D02*
X34100Y-18625D01*
G54D38*
X55388Y-24435D02*
X55388Y-25200D01*
X55388Y-25200D02*
X55400Y-25200D01*
G54D39*
X44400Y-23300D02*
X43900Y-23300D01*
X43300Y-23900D02*
X43300Y-25200D01*
X43900Y-23300D02*
X43300Y-23900D01*
G54D37*
X34653Y-24200D02*
X34653Y-24453D01*
X35400Y-25200D02*
X43300Y-25200D01*
X43300Y-25200D02*
X47500Y-25200D01*
X47500Y-25200D02*
X55400Y-25200D01*
X34653Y-24453D02*
X35400Y-25200D01*
X34400Y-22400D02*
X34700Y-22100D01*
X34700Y-22100D02*
X34900Y-22100D01*
X34400Y-22600D02*
X34400Y-22400D01*
X34653Y-24200D02*
X34653Y-23453D01*
X34400Y-23200D02*
X34400Y-22600D01*
X34653Y-23453D02*
X34400Y-23200D01*
X34900Y-22100D02*
X35800Y-22100D01*
G54D40*
X38838Y-19563D02*
X38800Y-19525D01*
X39804Y-19563D02*
X38838Y-19563D01*
G54D41*
X35800Y-22000D02*
X37100Y-20700D01*
X37100Y-20700D02*
X37100Y-20100D01*
X37100Y-20100D02*
X37675Y-19525D01*
X37675Y-19525D02*
X38800Y-19525D01*
X35800Y-22100D02*
X35800Y-22000D01*
G54D39*
X50900Y-19800D02*
X52300Y-19800D01*
G54D40*
X38800Y-19525D02*
X38800Y-19200D01*
X38800Y-19200D02*
X39067Y-18933D01*
G54D42*
X35700Y-17800D02*
X35700Y-18000D01*
X35362Y-17462D02*
X35700Y-17800D01*
X34974Y-17462D02*
X35362Y-17462D01*
X38900Y-18000D02*
X38912Y-17988D01*
X51674Y-17462D02*
X51674Y-16626D01*
X38900Y-17400D02*
X38900Y-18000D01*
X39100Y-17200D02*
X38900Y-17400D01*
X39500Y-17200D02*
X39100Y-17200D01*
X51674Y-16626D02*
X51700Y-16600D01*
X38912Y-17988D02*
X39804Y-17988D01*
X41220Y-21780D02*
X41200Y-21800D01*
X33400Y-15900D02*
X33400Y-17462D01*
X50100Y-17462D02*
X50100Y-16800D01*
X50100Y-16800D02*
X49500Y-16200D01*
X49500Y-16200D02*
X49100Y-16200D01*
X41220Y-20980D02*
X41220Y-21780D01*
X33600Y-20200D02*
X33400Y-20000D01*
X33400Y-20000D02*
X33400Y-17462D01*
X35400Y-18800D02*
X34659Y-18059D01*
X35400Y-19200D02*
X35400Y-18800D01*
X35600Y-19400D02*
X35400Y-19200D01*
X40180Y-20980D02*
X40000Y-20800D01*
X34659Y-18059D02*
X34659Y-17462D01*
X40590Y-20980D02*
X40180Y-20980D01*
X51044Y-17462D02*
X51044Y-16844D01*
X34344Y-15356D02*
X34344Y-17462D01*
X34400Y-15300D02*
X34344Y-15356D01*
X49900Y-15700D02*
X49200Y-15700D01*
X51044Y-16844D02*
X49900Y-15700D01*
X40600Y-21800D02*
X40900Y-21500D01*
X35400Y-19900D02*
X35200Y-19700D01*
X35200Y-19000D02*
X34344Y-18144D01*
X35700Y-19900D02*
X35400Y-19900D01*
X34344Y-18144D02*
X34344Y-17462D01*
X35200Y-19700D02*
X35200Y-19000D01*
X40900Y-21500D02*
X40900Y-20980D01*
X34344Y-17462D02*
X34344Y-18144D01*
X34344Y-18144D02*
X34344Y-17462D01*
X43570Y-18300D02*
X44300Y-18300D01*
X48100Y-21200D02*
X48200Y-21300D01*
X48200Y-21300D02*
X48200Y-23800D01*
X48200Y-23800D02*
X48700Y-24300D01*
X48700Y-24300D02*
X49500Y-24300D01*
X45300Y-18400D02*
X45300Y-21200D01*
X45200Y-18300D02*
X45300Y-18400D01*
X44690Y-17990D02*
X44700Y-18000D01*
X43570Y-17990D02*
X44690Y-17990D01*
X52100Y-24300D02*
X52600Y-24300D01*
X48600Y-20800D02*
X48600Y-23700D01*
X48500Y-20700D02*
X48600Y-20800D01*
X51500Y-23700D02*
X52100Y-24300D01*
X45600Y-18000D02*
X45600Y-20700D01*
X42800Y-20980D02*
X42800Y-22200D01*
X44900Y-23800D02*
X44400Y-24300D01*
X44900Y-22200D02*
X44900Y-23800D01*
X42480Y-22580D02*
X42500Y-22600D01*
X42480Y-20980D02*
X42480Y-22580D01*
X45400Y-22600D02*
X45400Y-23300D01*
X49500Y-16600D02*
X48800Y-16600D01*
X38400Y-18400D02*
X38497Y-18303D01*
X38400Y-16300D02*
X38400Y-18400D01*
X49786Y-17462D02*
X49786Y-16886D01*
X33086Y-17462D02*
X33086Y-18386D01*
X49786Y-16886D02*
X49500Y-16600D01*
X38497Y-18303D02*
X39804Y-18303D01*
X33086Y-18386D02*
X33100Y-18400D01*
X40588Y-17200D02*
X40588Y-16988D01*
X30000Y-18300D02*
X30000Y-20400D01*
X30900Y-17400D02*
X30000Y-18300D01*
G54D40*
X30000Y-21500D02*
X30000Y-20400D01*
G54D42*
X40300Y-16700D02*
X39900Y-16700D01*
X40588Y-16988D02*
X40300Y-16700D01*
G54D40*
X28975Y-19900D02*
X29500Y-19900D01*
X29500Y-19900D02*
X30000Y-20400D01*
G54D42*
X41500Y-20300D02*
X41400Y-20200D01*
X41400Y-20200D02*
X41400Y-18100D01*
X41400Y-18100D02*
X41532Y-17968D01*
X46400Y-24300D02*
X46700Y-24300D01*
X41532Y-17968D02*
X41532Y-17200D01*
X47000Y-24000D02*
X47000Y-20300D01*
X46700Y-24300D02*
X47000Y-24000D01*
X41200Y-17900D02*
X40500Y-17900D01*
X41218Y-17882D02*
X41200Y-17900D01*
X36500Y-17600D02*
X36500Y-20500D01*
X38100Y-20500D02*
X38400Y-20800D01*
X38400Y-20800D02*
X38400Y-24300D01*
X41218Y-17200D02*
X41218Y-17882D01*
X36600Y-17500D02*
X36500Y-17600D01*
X40100Y-17500D02*
X39900Y-17500D01*
X40500Y-17900D02*
X40100Y-17500D01*
X45900Y-22000D02*
X45900Y-23800D01*
X45900Y-23800D02*
X45400Y-24300D01*
X43570Y-20200D02*
X43700Y-20200D01*
X43700Y-20200D02*
X44000Y-20500D01*
X44000Y-20500D02*
X44000Y-21800D01*
X45700Y-21800D02*
X45900Y-22000D01*
X40902Y-15602D02*
X40900Y-15600D01*
X36100Y-17100D02*
X36100Y-20800D01*
X37900Y-15600D02*
X37900Y-16700D01*
X37600Y-23500D02*
X37400Y-23700D01*
X37600Y-20800D02*
X37600Y-23500D01*
X37400Y-23700D02*
X37400Y-24300D01*
X40902Y-17200D02*
X40902Y-15602D01*
X36500Y-16700D02*
X36100Y-17100D01*
X42500Y-23500D02*
X42500Y-24700D01*
X41530Y-22530D02*
X42500Y-23500D01*
X41530Y-20980D02*
X41530Y-22530D01*
X62900Y-13200D02*
X63500Y-13200D01*
X62400Y-13700D02*
X62900Y-13200D01*
X61100Y-17900D02*
X60800Y-17900D01*
X60800Y-17900D02*
X60500Y-17600D01*
X62400Y-15000D02*
X62400Y-13700D01*
X60500Y-17600D02*
X60500Y-16900D01*
X60500Y-16900D02*
X62400Y-15000D01*
X61400Y-18200D02*
X61100Y-17900D01*
X61400Y-24000D02*
X61400Y-18200D01*
G54D40*
X44600Y-20675D02*
X44600Y-21300D01*
G54D38*
X50414Y-17462D02*
X50414Y-16714D01*
X50414Y-16714D02*
X50400Y-16700D01*
X51675Y-18600D02*
X51900Y-18600D01*
X52400Y-18100D02*
X52400Y-17600D01*
X51900Y-18600D02*
X52400Y-18100D01*
X43570Y-18930D02*
X43030Y-18930D01*
X42700Y-18600D02*
X42700Y-18100D01*
X43030Y-18930D02*
X42700Y-18600D01*
G54D40*
X34100Y-19375D02*
X34100Y-19800D01*
G54D39*
X38800Y-20275D02*
X38800Y-21400D01*
G54D40*
X49100Y-20575D02*
X49100Y-21100D01*
X51950Y-22250D02*
X51350Y-22250D01*
X51350Y-22250D02*
X51300Y-22300D01*
G54D38*
X39804Y-19248D02*
X40352Y-19248D01*
X40500Y-18600D02*
X40600Y-18500D01*
X40500Y-19100D02*
X40500Y-18600D01*
X40352Y-19248D02*
X40500Y-19100D01*
X49100Y-22475D02*
X49100Y-23100D01*
X61225Y-16775D02*
X61500Y-16500D01*
X39804Y-18618D02*
X39018Y-18618D01*
X39018Y-18618D02*
X39000Y-18600D01*
X61225Y-17200D02*
X61225Y-16775D01*
X33714Y-17462D02*
X33714Y-16514D01*
X33714Y-16514D02*
X33700Y-16500D01*
G54D42*
X45174Y-16674D02*
X41800Y-13300D01*
X47738Y-16674D02*
X45174Y-16674D01*
X41800Y-10000D02*
X41300Y-09500D01*
X41800Y-13300D02*
X41800Y-10000D01*
X46800Y-10000D02*
X46300Y-09500D01*
X46800Y-12800D02*
X46800Y-10000D01*
X47526Y-13526D02*
X46800Y-12800D01*
X47738Y-13526D02*
X47526Y-13526D01*
X42800Y-13200D02*
X42800Y-10000D01*
X45644Y-16044D02*
X42800Y-13200D01*
X47738Y-16044D02*
X45644Y-16044D01*
X42800Y-10000D02*
X42300Y-09500D01*
X46214Y-15414D02*
X43800Y-13000D01*
X47738Y-15414D02*
X46214Y-15414D01*
X43800Y-10000D02*
X43300Y-09500D01*
X43800Y-13000D02*
X43800Y-10000D01*
X46586Y-14786D02*
X44800Y-13000D01*
X47738Y-14786D02*
X46586Y-14786D01*
X44800Y-10000D02*
X44300Y-09500D01*
X44800Y-13000D02*
X44800Y-10000D01*
X46871Y-14471D02*
X45300Y-12900D01*
X47738Y-14471D02*
X46871Y-14471D01*
X45300Y-12900D02*
X45300Y-10500D01*
X47056Y-14156D02*
X45800Y-12900D01*
X47738Y-14156D02*
X47056Y-14156D01*
X45800Y-10000D02*
X45300Y-09500D01*
X45800Y-12900D02*
X45800Y-10000D01*
X54200Y-08100D02*
X54200Y-07100D01*
X51674Y-10626D02*
X54200Y-08100D01*
X51674Y-12738D02*
X51674Y-10626D01*
X54200Y-07100D02*
X53700Y-06600D01*
X33714Y-12738D02*
X33714Y-11214D01*
X32600Y-10100D02*
X32600Y-07600D01*
X33714Y-11214D02*
X32600Y-10100D01*
X31600Y-10200D02*
X31600Y-07600D01*
X31800Y-10400D02*
X31600Y-10200D01*
X32000Y-10400D02*
X31800Y-10400D01*
X33086Y-11486D02*
X32000Y-10400D01*
X33086Y-12738D02*
X33086Y-11486D01*
X32456Y-12738D02*
X32456Y-11756D01*
X30600Y-10900D02*
X30600Y-07600D01*
X30800Y-11100D02*
X30600Y-10900D01*
X31800Y-11100D02*
X30800Y-11100D01*
X32456Y-11756D02*
X31800Y-11100D01*
X29600Y-11300D02*
X29600Y-07600D01*
X30000Y-11700D02*
X29600Y-11300D01*
X31500Y-11700D02*
X30000Y-11700D01*
X31826Y-12026D02*
X31500Y-11700D01*
X31826Y-12738D02*
X31826Y-12026D01*
X34344Y-12738D02*
X34344Y-10644D01*
X33600Y-09900D02*
X33600Y-07600D01*
X34344Y-10644D02*
X33600Y-09900D01*
X31038Y-15729D02*
X27429Y-15729D01*
X25100Y-07100D02*
X24600Y-06600D01*
X25100Y-13400D02*
X25100Y-07100D01*
X27429Y-15729D02*
X25100Y-13400D01*
X24100Y-13500D02*
X24100Y-07100D01*
X26959Y-16359D02*
X24100Y-13500D01*
X31038Y-16359D02*
X26959Y-16359D01*
X24100Y-07100D02*
X23600Y-06600D01*
X51359Y-12738D02*
X51359Y-10141D01*
X53200Y-07100D02*
X52700Y-06600D01*
X53200Y-08300D02*
X53200Y-07100D01*
X51359Y-10141D02*
X53200Y-08300D01*
X52200Y-08300D02*
X52200Y-07100D01*
X50729Y-09771D02*
X52200Y-08300D01*
X50729Y-12738D02*
X50729Y-09771D01*
X52200Y-07100D02*
X51700Y-06600D01*
X50100Y-09600D02*
X51200Y-08500D01*
X50100Y-12738D02*
X50100Y-09600D01*
X51200Y-07100D02*
X50700Y-06600D01*
X51200Y-08500D02*
X51200Y-07100D01*
X49471Y-12738D02*
X49471Y-09229D01*
X50200Y-07100D02*
X49700Y-06600D01*
X50200Y-08500D02*
X50200Y-07100D01*
X49471Y-09229D02*
X50200Y-08500D01*
X49200Y-07100D02*
X48700Y-06600D01*
X49200Y-08400D02*
X49200Y-07100D01*
X48841Y-08759D02*
X49200Y-08400D01*
X48841Y-12738D02*
X48841Y-08759D01*
X35762Y-15414D02*
X36686Y-15414D01*
X39800Y-10000D02*
X39300Y-09500D01*
X39800Y-12300D02*
X39800Y-10000D01*
X36686Y-15414D02*
X39800Y-12300D01*
X27714Y-15414D02*
X25600Y-13300D01*
X31038Y-15414D02*
X27714Y-15414D01*
X25600Y-13300D02*
X25600Y-07600D01*
X40800Y-12200D02*
X40800Y-10000D01*
X36956Y-16044D02*
X40800Y-12200D01*
X35762Y-16044D02*
X36956Y-16044D01*
X40800Y-10000D02*
X40300Y-09500D01*
X31038Y-14786D02*
X28386Y-14786D01*
X26600Y-13000D02*
X26600Y-07600D01*
X28386Y-14786D02*
X26600Y-13000D01*
X36800Y-10000D02*
X36300Y-09500D01*
X36800Y-13000D02*
X36800Y-10000D01*
X36274Y-13526D02*
X36800Y-13000D01*
X35762Y-13526D02*
X36274Y-13526D01*
X27600Y-12900D02*
X27600Y-07600D01*
X28856Y-14156D02*
X27600Y-12900D01*
X31038Y-14156D02*
X28856Y-14156D01*
X28100Y-12800D02*
X28100Y-07100D01*
X29141Y-13841D02*
X28100Y-12800D01*
X31038Y-13841D02*
X29141Y-13841D01*
X28100Y-07100D02*
X27600Y-06600D01*
X36344Y-14156D02*
X37800Y-12700D01*
X35762Y-14156D02*
X36344Y-14156D01*
X37800Y-10000D02*
X37300Y-09500D01*
X37800Y-12700D02*
X37800Y-10000D01*
X23600Y-13400D02*
X23600Y-07600D01*
X26874Y-16674D02*
X23600Y-13400D01*
X31038Y-16674D02*
X26874Y-16674D01*
X29100Y-13100D02*
X29100Y-07100D01*
X29526Y-13526D02*
X29100Y-13100D01*
X31038Y-13526D02*
X29526Y-13526D01*
X29100Y-07100D02*
X28600Y-06600D01*
X36314Y-14786D02*
X38800Y-12300D01*
X35762Y-14786D02*
X36314Y-14786D01*
X38800Y-10000D02*
X38300Y-09500D01*
X38800Y-12300D02*
X38800Y-10000D01*
X52859Y-13841D02*
X55200Y-11500D01*
X52462Y-13841D02*
X52859Y-13841D01*
X55200Y-07100D02*
X54700Y-06600D01*
X55200Y-11500D02*
X55200Y-07100D01*
X52462Y-14156D02*
X53044Y-14156D01*
X55700Y-11500D02*
X55700Y-07600D01*
X53044Y-14156D02*
X55700Y-11500D01*
X51359Y-17462D02*
X51359Y-16759D01*
X31826Y-14926D02*
X31826Y-17462D01*
X31800Y-14900D02*
X31826Y-14926D01*
X51359Y-16759D02*
X49500Y-14900D01*
X53129Y-14471D02*
X56200Y-11400D01*
X52462Y-14471D02*
X53129Y-14471D01*
X56200Y-07100D02*
X55700Y-06600D01*
X56200Y-11400D02*
X56200Y-07100D01*
X48700Y-08552D02*
X48700Y-07600D01*
X48526Y-08726D02*
X48700Y-08552D01*
X48526Y-12738D02*
X48526Y-08726D01*
X53214Y-14786D02*
X56700Y-11300D01*
X52462Y-14786D02*
X53214Y-14786D01*
X56700Y-11300D02*
X56700Y-07600D01*
X49700Y-08512D02*
X49700Y-07600D01*
X49156Y-09056D02*
X49700Y-08512D01*
X49156Y-12738D02*
X49156Y-09056D01*
X50700Y-08500D02*
X50700Y-07600D01*
X49786Y-09414D02*
X50700Y-08500D01*
X49786Y-12738D02*
X49786Y-09414D01*
X50414Y-12738D02*
X50414Y-09686D01*
X51700Y-08400D02*
X51700Y-07600D01*
X50414Y-09686D02*
X51700Y-08400D01*
X52700Y-08300D02*
X52700Y-07600D01*
X51044Y-09956D02*
X52700Y-08300D01*
X51044Y-12738D02*
X51044Y-09956D01*
X27244Y-16044D02*
X24600Y-13400D01*
X31038Y-16044D02*
X27244Y-16044D01*
X24600Y-13400D02*
X24600Y-07600D01*
X32141Y-11841D02*
X31700Y-11400D01*
X32141Y-12738D02*
X32141Y-11841D01*
X30100Y-07100D02*
X29600Y-06600D01*
X30100Y-11300D02*
X30100Y-07100D01*
X30200Y-11400D02*
X30100Y-11300D01*
X31700Y-11400D02*
X30200Y-11400D01*
X32771Y-11629D02*
X31942Y-10800D01*
X32771Y-12738D02*
X32771Y-11629D01*
X31100Y-07100D02*
X30600Y-06600D01*
X31100Y-10500D02*
X31100Y-07100D01*
X31400Y-10800D02*
X31100Y-10500D01*
X31942Y-10800D02*
X31400Y-10800D01*
X32100Y-10200D02*
X32100Y-07100D01*
X33400Y-11500D02*
X32100Y-10200D01*
X33400Y-12738D02*
X33400Y-11500D01*
X32100Y-07100D02*
X31600Y-06600D01*
X33100Y-07100D02*
X32600Y-06600D01*
X33100Y-10000D02*
X33100Y-07100D01*
X34029Y-10929D02*
X33100Y-10000D01*
X34029Y-12738D02*
X34029Y-10929D01*
X34100Y-09800D02*
X34100Y-07100D01*
X34659Y-10359D02*
X34100Y-09800D01*
X34659Y-12738D02*
X34659Y-10359D01*
X34100Y-07100D02*
X33600Y-06600D01*
X57200Y-11200D02*
X57200Y-07100D01*
X53300Y-15100D02*
X57200Y-11200D01*
X52462Y-15100D02*
X53300Y-15100D01*
X57200Y-07100D02*
X56700Y-06600D01*
X53486Y-15414D02*
X57700Y-11200D01*
X52462Y-15414D02*
X53486Y-15414D01*
X57700Y-11200D02*
X57700Y-07600D01*
X53671Y-15729D02*
X58200Y-11200D01*
X52462Y-15729D02*
X53671Y-15729D01*
X58200Y-07100D02*
X57700Y-06600D01*
X58200Y-11200D02*
X58200Y-07100D01*
X53856Y-16044D02*
X58700Y-11200D01*
X52462Y-16044D02*
X53856Y-16044D01*
X58700Y-11200D02*
X58700Y-07600D01*
X59200Y-11100D02*
X59200Y-07100D01*
X53941Y-16359D02*
X59200Y-11100D01*
X52462Y-16359D02*
X53941Y-16359D01*
X59200Y-07100D02*
X58700Y-06600D01*
X52774Y-13526D02*
X54700Y-11600D01*
X52462Y-13526D02*
X52774Y-13526D01*
X54700Y-11600D02*
X54700Y-07600D01*
X26100Y-07100D02*
X25600Y-06600D01*
X26100Y-13200D02*
X26100Y-07100D01*
X28000Y-15100D02*
X26100Y-13200D01*
X31038Y-15100D02*
X28000Y-15100D01*
X27100Y-12900D02*
X27100Y-07100D01*
X28671Y-14471D02*
X27100Y-12900D01*
X31038Y-14471D02*
X28671Y-14471D01*
X27100Y-07100D02*
X26600Y-06600D01*
X35662Y-12738D02*
X36300Y-12100D01*
X34974Y-12738D02*
X35662Y-12738D01*
X36300Y-12100D02*
X36300Y-10500D01*
X36259Y-13841D02*
X37300Y-12800D01*
X35762Y-13841D02*
X36259Y-13841D01*
X37300Y-12800D02*
X37300Y-10500D01*
X35762Y-14471D02*
X36329Y-14471D01*
X38300Y-12500D02*
X38300Y-10500D01*
X36329Y-14471D02*
X38300Y-12500D01*
X36600Y-15100D02*
X39300Y-12400D01*
X35762Y-15100D02*
X36600Y-15100D01*
X39300Y-12400D02*
X39300Y-10500D01*
X40300Y-12300D02*
X40300Y-10500D01*
X36871Y-15729D02*
X40300Y-12300D01*
X35762Y-15729D02*
X36871Y-15729D01*
X47738Y-13841D02*
X47241Y-13841D01*
X46300Y-12900D02*
X46300Y-10500D01*
X47241Y-13841D02*
X46300Y-12900D01*
X47738Y-16359D02*
X45359Y-16359D01*
X42300Y-13300D02*
X42300Y-10500D01*
X45359Y-16359D02*
X42300Y-13300D01*
X47738Y-15729D02*
X45929Y-15729D01*
X43300Y-13100D02*
X43300Y-10500D01*
X45929Y-15729D02*
X43300Y-13100D01*
X44300Y-13000D02*
X44300Y-10500D01*
X46400Y-15100D02*
X44300Y-13000D01*
X47738Y-15100D02*
X46400Y-15100D01*
G54D40*
X50200Y-20708D02*
X50200Y-20300D01*
X49725Y-19825D02*
X49100Y-19825D01*
X50200Y-20300D02*
X49725Y-19825D01*
G54D42*
X50242Y-20750D02*
X50200Y-20708D01*
X51950Y-20750D02*
X50242Y-20750D01*
X49133Y-21692D02*
X49100Y-21725D01*
X50200Y-21692D02*
X50608Y-21692D01*
X51050Y-21250D02*
X51950Y-21250D01*
X50608Y-21692D02*
X51050Y-21250D01*
X50200Y-21692D02*
X49133Y-21692D01*
G54D37*
X21117Y-13948D02*
X21148Y-13948D01*
X22000Y-16569D02*
X21117Y-17452D01*
X22000Y-14800D02*
X22000Y-16569D01*
X21148Y-13948D02*
X22000Y-14800D01*
X08235Y-20000D02*
X08283Y-19952D01*
X06700Y-20000D02*
X08235Y-20000D01*
X08231Y-11500D02*
X08283Y-11448D01*
X06700Y-11500D02*
X08231Y-11500D01*
G54D42*
X54050Y-22250D02*
X53250Y-22250D01*
X45800Y-18900D02*
X46100Y-18600D01*
X45800Y-19800D02*
X45800Y-18900D01*
X46000Y-20000D02*
X45800Y-19800D01*
X46000Y-21400D02*
X46000Y-20000D01*
X46100Y-21500D02*
X46000Y-21400D01*
X53250Y-22250D02*
X53200Y-22200D01*
X46300Y-18400D02*
X46725Y-18400D01*
X46100Y-18600D02*
X46300Y-18400D01*
X42162Y-18538D02*
X42100Y-18600D01*
X42162Y-17200D02*
X42162Y-18538D01*
X54100Y-19975D02*
X54100Y-20000D01*
X53750Y-21250D02*
X54050Y-21250D01*
X53600Y-21100D02*
X53750Y-21250D01*
X54100Y-19975D02*
X54900Y-19975D01*
X53600Y-20500D02*
X53600Y-21100D01*
X54100Y-20000D02*
X53600Y-20500D01*
G54D38*
X54050Y-20750D02*
X54850Y-20750D01*
X55700Y-21600D02*
X55700Y-23000D01*
X54850Y-20750D02*
X55700Y-21600D01*
X55388Y-23765D02*
X55388Y-23212D01*
X55600Y-23000D02*
X55700Y-23000D01*
X55700Y-23000D02*
X56731Y-23000D01*
X55388Y-23212D02*
X55550Y-23050D01*
X55550Y-23050D02*
X55600Y-23000D01*
G54D40*
X28225Y-19900D02*
X28225Y-19225D01*
X22900Y-19200D02*
X22900Y-19900D01*
X28225Y-19225D02*
X28200Y-19200D01*
G54D37*
X22848Y-19952D02*
X22900Y-19900D01*
X21117Y-19952D02*
X22848Y-19952D01*
G54D42*
X54900Y-19225D02*
X54900Y-18600D01*
X39826Y-19900D02*
X39804Y-19878D01*
X40700Y-19900D02*
X39826Y-19900D01*
X40900Y-19700D02*
X40700Y-19900D01*
X40900Y-18900D02*
X40900Y-19700D01*
X54000Y-21800D02*
X54050Y-21750D01*
X53500Y-21800D02*
X54000Y-21800D01*
X53400Y-21700D02*
X53500Y-21800D01*
X53400Y-20000D02*
X53400Y-21700D01*
X41848Y-17200D02*
X41848Y-18252D01*
X46100Y-19200D02*
X46725Y-19200D01*
X41700Y-18400D02*
X41700Y-19200D01*
X41848Y-18252D02*
X41700Y-18400D01*
M02*
