M48
INCH,TZ
T1C0.024
T2C0.025
T3C0.030
T4C0.032
T5C0.035
T6C0.037
T7C0.039
T8C0.040
T9C0.042
T10C0.046
T11C0.120
%
G90
G05
T1
X30000Y-20400
X30000Y-21500
X31400Y-22600
X33000Y-20400
X33000Y-21500
X34400Y-22600
T2
X22600Y-8500
X22900Y-19200
X28200Y-19200
X30900Y-17400
X31800Y-14900
X33100Y-18400
X33400Y-15900
X33600Y-20200
X33700Y-16500
X34100Y-19800
X34400Y-15300
X35600Y-19400
X35700Y-18000
X35700Y-19900
X36100Y-20800
X36500Y-16700
X36500Y-20500
X36600Y-17500
X37600Y-20800
X37900Y-15600
X37900Y-16700
X38100Y-20500
X38400Y-16300
X38400Y-18400
X38800Y-21400
X38900Y-18000
X39000Y-18600
X39500Y-17200
X39900Y-16700
X39900Y-17500
X40000Y-20800
X40600Y-18500
X40600Y-21800
X40900Y-15600
X40900Y-18900
X41200Y-21800
X41500Y-20300
X41700Y-19200
X42100Y-18600
X42500Y-22600
X42500Y-24700
X42700Y-18100
X42700Y-19900
X42800Y-22200
X44000Y-21800
X44300Y-18300
X44600Y-21300
X44700Y-18000
X44900Y-22200
X45200Y-18300
X45300Y-21200
X45400Y-22600
X45600Y-18000
X45600Y-20700
X45700Y-21800
X46100Y-18600
X46100Y-19200
X46100Y-21500
X47000Y-20300
X47500Y-19800
X48100Y-21200
X48500Y-20700
X48600Y-23700
X48800Y-16600
X49100Y-16200
X49100Y-21100
X49100Y-23100
X49200Y-15700
X49500Y-14900
X50400Y-16700
X50900Y-19800
X51300Y-22300
X51500Y-23700
X51700Y-16600
X52400Y-17600
X53200Y-22200
X53400Y-20000
X54900Y-18600
X61400Y-24000
X61500Y-16500
T3
X26200Y-21516
X26200Y-23484
T4
X23600Y-7600
X35800Y-22100
X36300Y-10500
X36400Y-24300
X36800Y-22100
X37400Y-24300
X38400Y-24300
X39400Y-24300
X40400Y-24300
X41400Y-24300
X48700Y-7600
X49500Y-24300
X50500Y-24300
X52600Y-24300
X53600Y-24300
X63500Y-11200
X63500Y-12200
X63500Y-13200
X63500Y-14200
X63500Y-15200
X63500Y-16200
X63500Y-17200
X63500Y-18200
T5
X22900Y-19900
X22900Y-23900
T6
X28747Y-24200
X34653Y-24200
T7
X56731Y-23000
X60669Y-23000
T8
X23600Y-6600
X24600Y-6600
X24600Y-7600
X25600Y-6600
X25600Y-7600
X26600Y-6600
X26600Y-7600
X27600Y-6600
X27600Y-7600
X28600Y-6600
X28600Y-7600
X29600Y-6600
X29600Y-7600
X30600Y-6600
X30600Y-7600
X31600Y-6600
X31600Y-7600
X32600Y-6600
X32600Y-7600
X33600Y-6600
X33600Y-7600
X34600Y-6600
X34600Y-7600
X36300Y-9500
X37300Y-9500
X37300Y-10500
X38300Y-9500
X38300Y-10500
X39300Y-9500
X39300Y-10500
X40300Y-9500
X40300Y-10500
X41300Y-9500
X41300Y-10500
X42300Y-9500
X42300Y-10500
X43300Y-9500
X43300Y-10500
X44300Y-9500
X44300Y-10500
X44400Y-23300
X44400Y-24300
X45300Y-9500
X45300Y-10500
X45400Y-23300
X45400Y-24300
X46300Y-9500
X46300Y-10500
X46400Y-23300
X46400Y-24300
X47300Y-9500
X47300Y-10500
X48700Y-6600
X49700Y-6600
X49700Y-7600
X50700Y-6600
X50700Y-7600
X51700Y-6600
X51700Y-7600
X52700Y-6600
X52700Y-7600
X53700Y-6600
X53700Y-7600
X54700Y-6600
X54700Y-7600
X55700Y-6600
X55700Y-7600
X56700Y-6600
X56700Y-7600
X57700Y-6600
X57700Y-7600
X58700Y-6600
X58700Y-7600
X59700Y-6600
X59700Y-7600
T9
X8283Y-11448
X8283Y-19952
X21117Y-11448
X21117Y-13948
X21117Y-17452
X21117Y-19952
T10
X6700Y-11500
X6700Y-20000
T11
X6700Y-7200
X6800Y-24300
X63300Y-7200
X63300Y-24400
T0
M30
